<svg width="126" height="138" viewBox="0 0 126 138" fill="none" xmlns="http://www.w3.org/2000/svg">
<mask id="path-1-inside-1_1841_9051" fill="white">
<path fill-rule="evenodd" clip-rule="evenodd" d="M125.279 134.322C124.963 134.643 124.737 135.01 124.24 134.826C124.15 134.78 124.104 134.826 124.014 134.872C123.291 135.331 122.523 135.147 121.8 134.918C121.529 134.826 121.258 134.78 120.987 134.78C120.218 134.826 119.495 134.551 118.863 134.139C118.411 133.802 118.004 133.42 117.643 132.993C117.101 132.351 116.468 132.167 115.655 132.259C115.022 132.351 114.389 132.397 113.757 132.305C113.26 132.213 112.717 132.122 112.266 131.846C111.859 131.617 111.588 131.25 111.497 130.838C111.317 130.196 111.226 129.508 111.407 128.867C111.467 128.5 111.527 128.133 111.588 127.766C111.723 127.216 111.633 126.758 111.271 126.299C110.955 125.841 110.548 125.474 110.187 125.107C108.651 123.595 106.979 122.265 105.262 120.936C103.77 119.79 102.279 118.598 100.788 117.36C100.02 116.718 99.2066 116.122 98.4384 115.48C96.9924 114.334 95.7724 113.005 94.8686 111.354C94.0553 109.887 92.9708 108.604 92.067 107.274C91.9767 107.137 91.8411 106.999 91.7056 106.908C90.1692 105.716 88.8136 104.34 87.3676 103.057C85.4246 101.315 83.7527 99.2977 82.0356 97.3723C81.2825 96.486 80.5143 95.615 79.7311 94.7592C79.2792 94.2549 78.6918 93.8882 78.1495 93.5214C77.0349 92.788 75.9655 91.9933 74.9413 91.1376C74.0827 90.4499 73.3597 89.6706 72.6367 88.8913C72.2752 88.5704 71.9589 88.3411 71.5071 88.387C71.01 88.4328 70.5582 88.2495 70.1063 88.1119C69.8804 88.0202 69.6544 88.0661 69.4285 88.1578C69.2026 88.2036 69.1122 88.3411 69.067 88.5704C68.5699 90.725 67.3047 92.192 65.4521 93.1547C64.6387 93.5673 63.9157 94.0257 63.1475 94.4383C63.027 94.4689 62.9367 94.5147 62.8764 94.5758C61.0689 96.2262 58.9451 97.1889 56.731 98.0599C56.4147 98.1974 56.1436 98.335 55.8272 98.4267C54.788 98.7018 54.0198 99.3894 53.2968 100.077C50.9471 102.323 48.5522 104.478 45.9765 106.449C44.4402 107.595 42.8587 108.696 41.3223 109.842C40.9156 110.163 40.5541 110.529 40.2378 110.988C39.063 112.638 38.0237 114.38 36.9392 116.168C35.6288 118.323 33.8665 120.065 31.6072 121.211C31.0348 121.516 30.4775 121.883 29.9352 122.311C28.3989 123.503 26.7722 124.649 25.1455 125.703C23.2928 126.987 21.6209 128.5 20.0394 130.104C19.4067 130.746 19.1356 131.526 19.3163 132.442C19.3766 132.748 19.4369 133.054 19.4971 133.359C19.5875 133.772 19.5423 134.139 19.4519 134.505C19.1808 135.56 18.5934 136.11 17.5541 136.247C16.4696 136.339 15.4755 136.339 14.4814 136.018C12.945 135.606 11.4538 135.743 9.96268 136.018C9.42044 136.11 8.92339 136.385 8.47152 136.66C7.50754 137.118 6.48331 137.332 5.39883 137.302C5.08252 137.302 4.76621 137.302 4.49509 137.073C4.26916 136.889 4.13361 137.027 3.90767 137.073C3.27506 137.348 2.59724 137.531 1.91944 137.485C1.60314 137.439 1.28683 137.394 1.01571 137.164C0.6994 136.935 0.609038 136.614 0.744598 136.247C0.834972 135.972 1.01571 135.881 1.24164 135.881C1.60314 135.835 1.87427 135.651 2.1002 135.376C2.778 134.735 3.63655 134.505 4.49509 134.322C5.03734 134.23 5.57958 134.047 6.07663 133.68C6.93518 133.038 7.83892 132.442 8.78784 131.846C9.23971 131.571 9.60119 131.251 9.96268 130.884C11.499 129.371 13.2613 128.087 14.9784 126.804C16.7407 125.566 18.3223 124.145 19.8134 122.586C20.9431 121.44 21.9824 120.202 23.0668 119.056C23.112 118.965 23.2024 118.919 23.1572 118.827C22.615 118.689 22.5698 118.644 22.8409 118.093C23.353 117.146 23.8802 116.199 24.4224 115.251C24.4827 115.098 24.543 114.93 24.6032 114.747C24.8291 114.243 25.0551 113.784 25.3714 113.417C25.7329 112.959 25.9588 112.455 26.2299 111.905C26.501 111.263 26.9529 110.667 27.3144 110.025C27.5253 109.689 27.7512 109.368 27.9922 109.062C28.8056 107.962 29.2574 106.678 29.5737 105.349C29.9804 103.653 30.2516 101.957 30.4775 100.26C30.839 97.4181 31.5168 94.7134 32.6464 92.1003C32.9176 91.489 33.1134 90.8473 33.2339 90.1749C33.7761 87.3784 34.4087 84.6278 34.9962 81.8314C35.2221 80.8687 35.2673 79.8601 35.2673 78.8974C35.2673 76.6511 35.448 74.4506 35.9903 72.296C36.0355 72.1585 36.0355 72.0209 36.1258 71.9292C36.6229 70.6915 36.6681 69.362 36.7133 68.0326C36.7133 67.3908 36.6229 66.7948 36.4873 66.153C36.3518 65.7404 36.171 65.3736 35.8095 65.0527C35.0413 64.3651 34.1376 63.8608 33.1887 63.4482C32.5561 63.3107 31.9686 63.1732 31.6072 63.219C31.0197 63.3107 30.2516 63.3107 29.4382 63.2649C29.4081 63.2954 29.393 63.3107 29.393 63.3107C28.5796 63.6774 27.8567 63.6774 27.0433 63.4024C26.6366 63.2649 26.2299 63.219 25.7781 63.1273C25.6576 63.0968 25.5371 63.0509 25.4166 62.9898L26.4107 63.5399L25.1003 63.1732C24.9647 63.4941 24.784 63.815 24.6032 64.0442C24.1513 64.6402 23.2476 64.9152 22.5246 64.9611C21.8468 64.9611 21.0786 64.6402 20.4912 64.1817C19.9038 63.6774 19.949 62.8523 19.8586 62.1646C19.7682 61.7062 19.7682 61.2936 19.949 60.9268L19.4067 60.7893L19.9942 60.8352C20.0544 60.6823 20.1448 60.5295 20.2653 60.3767L18.7741 59.414L20.5364 60.1017C20.6268 59.9794 20.7171 59.8572 20.8075 59.7349C20.3556 59.0473 19.7682 57.672 19.7682 55.4256C19.7682 51.8499 22.7957 50.1537 22.7957 50.1537L22.1179 51.3456L23.5639 49.6494L22.7957 50.9788L24.558 49.3285L24.1965 50.2912L25.9136 49.5119L25.2358 50.0161C25.6576 49.8939 26.0944 49.8175 26.5462 49.7869C27.4048 49.7411 28.2633 49.7411 29.1219 49.9703C29.393 50.0161 29.5737 50.0161 29.5737 50.0161L29.4382 50.062C29.7545 50.1537 30.0708 50.1078 30.3871 49.9703C30.5679 49.8786 30.7938 49.7411 30.9745 49.6494C31.4264 49.4202 31.6523 49.5119 31.8783 49.9703C31.9084 50.062 31.9385 50.1537 31.9686 50.2453C32.0289 50.3982 32.1042 50.5051 32.1946 50.5663C32.2247 50.5663 32.2548 50.5663 32.285 50.5663C32.3151 50.5968 32.3603 50.6274 32.4205 50.6579C32.4808 50.6579 32.5561 50.6579 32.6464 50.6579C32.9176 50.5663 33.1887 50.6579 33.4146 50.8413C33.5954 50.9788 33.7761 51.1164 33.9569 51.1622C34.0924 51.1622 34.1828 51.2539 34.2732 51.2998C34.4991 51.7123 34.8606 51.8499 35.2673 51.9874C35.8547 52.1249 36.1258 52.6292 36.1258 53.2252C36.1258 54.0045 35.9903 54.738 35.8095 55.4715C35.7643 55.7466 35.7191 56.0216 35.8095 56.2967C35.8999 56.6634 36.0806 56.8926 36.3969 57.0302C36.8488 57.2594 37.3459 57.3969 37.7977 57.5344C38.2496 57.6261 38.2948 57.6261 38.3852 57.1677C38.7918 55.609 38.9274 54.0504 38.6111 52.4917C38.2948 50.8872 38.2496 49.3285 38.4755 47.724C38.8822 44.7441 39.0178 41.7185 38.837 38.6928C38.7467 37.7301 38.7919 36.7674 38.7919 35.8047C38.822 34.3072 38.7467 32.8249 38.5659 31.3579C38.3852 30.0285 38.4755 28.6531 38.4755 27.3237C38.4304 24.9398 38.6111 22.556 38.6563 20.1721C38.6563 18.2467 38.6563 16.3213 38.2496 14.3959C38.1592 14.0291 38.0689 13.6624 37.8881 13.3415C37.3459 12.2871 36.7585 11.2327 36.0807 10.27C35.8397 9.9338 35.6589 9.56705 35.5384 9.16974C35.2221 8.29872 34.7702 7.51937 34.3635 6.69419C34.2732 6.51082 34.1828 6.3733 34.0924 6.18993C33.9569 5.82318 34.002 5.73149 34.3635 5.6398C34.6347 5.59396 34.8154 5.6398 35.0413 5.77733C35.4932 6.09823 35.8547 6.51083 36.0807 7.06095C36.171 7.24432 36.2614 7.47354 36.3518 7.70275C36.4873 8.02366 36.7133 8.29872 37.1651 8.3904C37.0747 7.47354 37.4814 6.64836 37.4814 5.7315C37.4362 4.49373 37.7977 3.25596 38.0689 2.06403C38.114 1.83481 38.2044 1.69728 38.34 1.51391C38.5659 1.33053 38.7919 1.37638 38.9274 1.6056C39.0178 1.78897 39.063 1.98762 39.063 2.20155C38.9726 2.98089 38.9726 3.76023 38.8822 4.53957C38.837 5.13553 38.9274 5.68564 38.9274 6.28161C38.9726 5.45643 39.063 4.5854 39.063 3.76023C39.063 2.98089 39.1534 2.20155 39.2437 1.42221C39.2889 1.14715 39.3793 0.826258 39.6052 0.642885C39.786 0.413668 40.0119 0.459514 40.1475 0.688731C40.268 0.963791 40.3282 1.25413 40.3282 1.55975C40.3282 1.9265 40.3734 2.29324 40.3734 2.70583C40.4638 2.47662 40.4186 2.33908 40.4186 2.20155C40.5089 1.97234 40.5993 1.74313 40.7801 1.6056C41.006 1.42222 41.0964 1.42222 41.2319 1.69728C41.3524 1.91121 41.4127 2.15571 41.4127 2.43077C41.4579 3.6227 41.6386 4.81462 41.5934 6.00655C41.5934 6.32745 41.5031 6.55666 41.5482 6.92341C41.6838 6.46498 41.729 6.05239 41.7742 5.6398C41.7742 5.2425 41.7742 4.8299 41.7742 4.40203C41.7742 4.17281 41.7742 3.98944 41.7742 3.76023C41.7742 3.51573 41.8796 3.34763 42.0905 3.25595C42.2712 3.16426 42.4068 3.16426 42.452 3.34764C42.5424 3.43932 42.5875 3.57685 42.5875 3.71438C42.6779 4.31034 42.7683 4.90631 42.7683 5.54811C42.8135 6.37329 42.7683 7.24431 42.8135 8.06949C42.8135 8.29871 42.7683 8.52794 42.6779 8.71131C42.4369 9.32256 42.2712 9.94907 42.1809 10.5909C42.1357 10.9576 42.0905 11.3702 41.9549 11.6911C41.5483 12.7455 41.6386 13.7999 41.7742 14.8543C42.0453 17.1006 42.5875 19.2553 43.0846 21.4557C43.4913 23.152 43.6268 24.9398 43.898 26.6819C44.0335 27.9655 43.9431 29.2491 43.898 30.5327C43.8528 31.908 44.0335 33.2375 44.2594 34.5669C44.4854 36.1256 44.6661 37.6843 44.8017 39.243C45.0728 41.6726 45.118 44.1024 45.2084 46.532C45.2084 46.7154 45.2535 46.8988 45.2084 47.0822C45.0728 48.3658 45.5699 49.4202 46.2025 50.4287C47.1062 51.7582 48.3714 52.7209 49.6819 53.5461C49.8626 53.6836 50.0434 53.6836 50.2693 53.6836C50.9471 53.6378 51.6249 53.6378 52.3027 53.7753C53.5227 53.9587 54.5168 54.4629 55.3302 55.3798C55.5561 55.6549 55.8725 55.8382 56.1888 56.0216C57.9962 56.8468 59.8037 57.7636 61.4304 58.9556C63.8705 60.7435 66.1299 62.8064 67.9373 65.3278C68.6603 66.3822 69.5189 67.2991 70.4226 68.1701C71.3715 69.087 72.2301 70.1413 73.0434 71.1499C74.3087 72.8003 75.6191 74.4048 77.0199 75.9634C77.8784 76.9262 78.8273 77.7513 79.8214 78.5765C81.8097 80.2727 83.5268 82.244 85.1083 84.3528C88.2262 88.6621 91.2085 93.063 94.1908 97.4181C94.4318 97.7543 94.6427 98.1058 94.8235 98.4725C95.2301 99.206 95.7272 99.8937 96.3146 100.535C96.7665 100.948 97.0828 101.544 97.3539 102.14C97.7756 102.843 98.2426 103.515 98.7547 104.157C99.794 105.395 100.788 106.633 101.782 107.87C102.415 108.65 103.093 109.337 103.77 110.117C105.849 112.592 107.837 115.159 109.78 117.773C110.91 119.331 111.994 120.89 113.124 122.403C113.937 123.549 114.932 124.512 116.016 125.428C116.513 125.841 116.92 126.299 117.326 126.804C118.275 128.041 119.315 129.233 120.49 130.242C121.454 131.067 122.508 131.709 123.653 132.167C124.24 132.397 124.737 132.672 124.963 133.313C125.053 133.451 125.189 133.589 125.325 133.726C125.415 133.955 125.46 134.139 125.279 134.322ZM56.5954 83.0233C56.5954 82.7483 56.5051 82.4732 56.4147 82.1523C56.3846 81.9995 56.3394 81.8314 56.2791 81.648C55.8272 80.4561 55.6465 79.2183 55.5561 77.9347C55.511 77.4304 55.5561 76.8803 55.3302 76.4219C55.0139 75.8259 54.6524 75.3216 54.1102 74.8632C53.9294 74.7257 53.7487 74.6798 53.5227 74.7257C53.2516 74.8174 52.9805 74.8479 52.7094 74.8174C52.0316 74.7715 51.3538 74.7257 50.7211 74.634C50.5856 74.634 50.45 74.634 50.3145 74.6798C49.2752 75.0007 48.2359 74.8174 47.287 74.2673C46.7899 73.9922 46.2477 73.9005 45.7054 73.9922C44.1691 74.1756 42.949 74.8174 42.226 76.2844C41.8194 77.0179 41.4579 77.7513 41.1868 78.5765C40.8704 79.5851 40.5993 80.6395 40.283 81.6939C39.6052 84.2152 39.063 86.8283 38.2948 89.3039C38.114 89.8998 38.0237 90.5416 37.9333 91.1834C37.6622 93.3381 37.2103 95.4469 36.4873 97.464C35.8547 99.206 35.0413 100.856 34.228 102.507C33.6556 103.668 33.0833 104.814 32.5109 105.945C32.1494 106.678 31.8783 107.458 31.6523 108.237C31.5168 108.696 31.6071 109.246 31.2908 109.704C31.5168 109.704 31.562 109.567 31.6523 109.475C33.1887 107.595 34.725 105.67 36.0354 103.607C36.2162 103.332 36.397 103.011 36.6681 102.828C37.3911 102.186 37.9785 101.452 38.5207 100.719C39.3793 99.5728 40.3282 98.4725 41.1868 97.3264C43.2653 94.5758 45.3891 91.9169 47.6936 89.3956C49.0492 87.8827 50.5856 86.5533 52.3027 85.4989C53.6131 84.6737 54.9235 83.8485 56.3695 83.3901C56.5502 83.3442 56.5954 83.2067 56.5954 83.0233Z"/>
</mask>
<path fill-rule="evenodd" clip-rule="evenodd" d="M125.279 134.322C124.963 134.643 124.737 135.01 124.24 134.826C124.15 134.78 124.104 134.826 124.014 134.872C123.291 135.331 122.523 135.147 121.8 134.918C121.529 134.826 121.258 134.78 120.987 134.78C120.218 134.826 119.495 134.551 118.863 134.139C118.411 133.802 118.004 133.42 117.643 132.993C117.101 132.351 116.468 132.167 115.655 132.259C115.022 132.351 114.389 132.397 113.757 132.305C113.26 132.213 112.717 132.122 112.266 131.846C111.859 131.617 111.588 131.25 111.497 130.838C111.317 130.196 111.226 129.508 111.407 128.867C111.467 128.5 111.527 128.133 111.588 127.766C111.723 127.216 111.633 126.758 111.271 126.299C110.955 125.841 110.548 125.474 110.187 125.107C108.651 123.595 106.979 122.265 105.262 120.936C103.77 119.79 102.279 118.598 100.788 117.36C100.02 116.718 99.2066 116.122 98.4384 115.48C96.9924 114.334 95.7724 113.005 94.8686 111.354C94.0553 109.887 92.9708 108.604 92.067 107.274C91.9767 107.137 91.8411 106.999 91.7056 106.908C90.1692 105.716 88.8136 104.34 87.3676 103.057C85.4246 101.315 83.7527 99.2977 82.0356 97.3723C81.2825 96.486 80.5143 95.615 79.7311 94.7592C79.2792 94.2549 78.6918 93.8882 78.1495 93.5214C77.0349 92.788 75.9655 91.9933 74.9413 91.1376C74.0827 90.4499 73.3597 89.6706 72.6367 88.8913C72.2752 88.5704 71.9589 88.3411 71.5071 88.387C71.01 88.4328 70.5582 88.2495 70.1063 88.1119C69.8804 88.0202 69.6544 88.0661 69.4285 88.1578C69.2026 88.2036 69.1122 88.3411 69.067 88.5704C68.5699 90.725 67.3047 92.192 65.4521 93.1547C64.6387 93.5673 63.9157 94.0257 63.1475 94.4383C63.027 94.4689 62.9367 94.5147 62.8764 94.5758C61.0689 96.2262 58.9451 97.1889 56.731 98.0599C56.4147 98.1974 56.1436 98.335 55.8272 98.4267C54.788 98.7018 54.0198 99.3894 53.2968 100.077C50.9471 102.323 48.5522 104.478 45.9765 106.449C44.4402 107.595 42.8587 108.696 41.3223 109.842C40.9156 110.163 40.5541 110.529 40.2378 110.988C39.063 112.638 38.0237 114.38 36.9392 116.168C35.6288 118.323 33.8665 120.065 31.6072 121.211C31.0348 121.516 30.4775 121.883 29.9352 122.311C28.3989 123.503 26.7722 124.649 25.1455 125.703C23.2928 126.987 21.6209 128.5 20.0394 130.104C19.4067 130.746 19.1356 131.526 19.3163 132.442C19.3766 132.748 19.4369 133.054 19.4971 133.359C19.5875 133.772 19.5423 134.139 19.4519 134.505C19.1808 135.56 18.5934 136.11 17.5541 136.247C16.4696 136.339 15.4755 136.339 14.4814 136.018C12.945 135.606 11.4538 135.743 9.96268 136.018C9.42044 136.11 8.92339 136.385 8.47152 136.66C7.50754 137.118 6.48331 137.332 5.39883 137.302C5.08252 137.302 4.76621 137.302 4.49509 137.073C4.26916 136.889 4.13361 137.027 3.90767 137.073C3.27506 137.348 2.59724 137.531 1.91944 137.485C1.60314 137.439 1.28683 137.394 1.01571 137.164C0.6994 136.935 0.609038 136.614 0.744598 136.247C0.834972 135.972 1.01571 135.881 1.24164 135.881C1.60314 135.835 1.87427 135.651 2.1002 135.376C2.778 134.735 3.63655 134.505 4.49509 134.322C5.03734 134.23 5.57958 134.047 6.07663 133.68C6.93518 133.038 7.83892 132.442 8.78784 131.846C9.23971 131.571 9.60119 131.251 9.96268 130.884C11.499 129.371 13.2613 128.087 14.9784 126.804C16.7407 125.566 18.3223 124.145 19.8134 122.586C20.9431 121.44 21.9824 120.202 23.0668 119.056C23.112 118.965 23.2024 118.919 23.1572 118.827C22.615 118.689 22.5698 118.644 22.8409 118.093C23.353 117.146 23.8802 116.199 24.4224 115.251C24.4827 115.098 24.543 114.93 24.6032 114.747C24.8291 114.243 25.0551 113.784 25.3714 113.417C25.7329 112.959 25.9588 112.455 26.2299 111.905C26.501 111.263 26.9529 110.667 27.3144 110.025C27.5253 109.689 27.7512 109.368 27.9922 109.062C28.8056 107.962 29.2574 106.678 29.5737 105.349C29.9804 103.653 30.2516 101.957 30.4775 100.26C30.839 97.4181 31.5168 94.7134 32.6464 92.1003C32.9176 91.489 33.1134 90.8473 33.2339 90.1749C33.7761 87.3784 34.4087 84.6278 34.9962 81.8314C35.2221 80.8687 35.2673 79.8601 35.2673 78.8974C35.2673 76.6511 35.448 74.4506 35.9903 72.296C36.0355 72.1585 36.0355 72.0209 36.1258 71.9292C36.6229 70.6915 36.6681 69.362 36.7133 68.0326C36.7133 67.3908 36.6229 66.7948 36.4873 66.153C36.3518 65.7404 36.171 65.3736 35.8095 65.0527C35.0413 64.3651 34.1376 63.8608 33.1887 63.4482C32.5561 63.3107 31.9686 63.1732 31.6072 63.219C31.0197 63.3107 30.2516 63.3107 29.4382 63.2649C29.4081 63.2954 29.393 63.3107 29.393 63.3107C28.5796 63.6774 27.8567 63.6774 27.0433 63.4024C26.6366 63.2649 26.2299 63.219 25.7781 63.1273C25.6576 63.0968 25.5371 63.0509 25.4166 62.9898L26.4107 63.5399L25.1003 63.1732C24.9647 63.4941 24.784 63.815 24.6032 64.0442C24.1513 64.6402 23.2476 64.9152 22.5246 64.9611C21.8468 64.9611 21.0786 64.6402 20.4912 64.1817C19.9038 63.6774 19.949 62.8523 19.8586 62.1646C19.7682 61.7062 19.7682 61.2936 19.949 60.9268L19.4067 60.7893L19.9942 60.8352C20.0544 60.6823 20.1448 60.5295 20.2653 60.3767L18.7741 59.414L20.5364 60.1017C20.6268 59.9794 20.7171 59.8572 20.8075 59.7349C20.3556 59.0473 19.7682 57.672 19.7682 55.4256C19.7682 51.8499 22.7957 50.1537 22.7957 50.1537L22.1179 51.3456L23.5639 49.6494L22.7957 50.9788L24.558 49.3285L24.1965 50.2912L25.9136 49.5119L25.2358 50.0161C25.6576 49.8939 26.0944 49.8175 26.5462 49.7869C27.4048 49.7411 28.2633 49.7411 29.1219 49.9703C29.393 50.0161 29.5737 50.0161 29.5737 50.0161L29.4382 50.062C29.7545 50.1537 30.0708 50.1078 30.3871 49.9703C30.5679 49.8786 30.7938 49.7411 30.9745 49.6494C31.4264 49.4202 31.6523 49.5119 31.8783 49.9703C31.9084 50.062 31.9385 50.1537 31.9686 50.2453C32.0289 50.3982 32.1042 50.5051 32.1946 50.5663C32.2247 50.5663 32.2548 50.5663 32.285 50.5663C32.3151 50.5968 32.3603 50.6274 32.4205 50.6579C32.4808 50.6579 32.5561 50.6579 32.6464 50.6579C32.9176 50.5663 33.1887 50.6579 33.4146 50.8413C33.5954 50.9788 33.7761 51.1164 33.9569 51.1622C34.0924 51.1622 34.1828 51.2539 34.2732 51.2998C34.4991 51.7123 34.8606 51.8499 35.2673 51.9874C35.8547 52.1249 36.1258 52.6292 36.1258 53.2252C36.1258 54.0045 35.9903 54.738 35.8095 55.4715C35.7643 55.7466 35.7191 56.0216 35.8095 56.2967C35.8999 56.6634 36.0806 56.8926 36.3969 57.0302C36.8488 57.2594 37.3459 57.3969 37.7977 57.5344C38.2496 57.6261 38.2948 57.6261 38.3852 57.1677C38.7918 55.609 38.9274 54.0504 38.6111 52.4917C38.2948 50.8872 38.2496 49.3285 38.4755 47.724C38.8822 44.7441 39.0178 41.7185 38.837 38.6928C38.7467 37.7301 38.7919 36.7674 38.7919 35.8047C38.822 34.3072 38.7467 32.8249 38.5659 31.3579C38.3852 30.0285 38.4755 28.6531 38.4755 27.3237C38.4304 24.9398 38.6111 22.556 38.6563 20.1721C38.6563 18.2467 38.6563 16.3213 38.2496 14.3959C38.1592 14.0291 38.0689 13.6624 37.8881 13.3415C37.3459 12.2871 36.7585 11.2327 36.0807 10.27C35.8397 9.9338 35.6589 9.56705 35.5384 9.16974C35.2221 8.29872 34.7702 7.51937 34.3635 6.69419C34.2732 6.51082 34.1828 6.3733 34.0924 6.18993C33.9569 5.82318 34.002 5.73149 34.3635 5.6398C34.6347 5.59396 34.8154 5.6398 35.0413 5.77733C35.4932 6.09823 35.8547 6.51083 36.0807 7.06095C36.171 7.24432 36.2614 7.47354 36.3518 7.70275C36.4873 8.02366 36.7133 8.29872 37.1651 8.3904C37.0747 7.47354 37.4814 6.64836 37.4814 5.7315C37.4362 4.49373 37.7977 3.25596 38.0689 2.06403C38.114 1.83481 38.2044 1.69728 38.34 1.51391C38.5659 1.33053 38.7919 1.37638 38.9274 1.6056C39.0178 1.78897 39.063 1.98762 39.063 2.20155C38.9726 2.98089 38.9726 3.76023 38.8822 4.53957C38.837 5.13553 38.9274 5.68564 38.9274 6.28161C38.9726 5.45643 39.063 4.5854 39.063 3.76023C39.063 2.98089 39.1534 2.20155 39.2437 1.42221C39.2889 1.14715 39.3793 0.826258 39.6052 0.642885C39.786 0.413668 40.0119 0.459514 40.1475 0.688731C40.268 0.963791 40.3282 1.25413 40.3282 1.55975C40.3282 1.9265 40.3734 2.29324 40.3734 2.70583C40.4638 2.47662 40.4186 2.33908 40.4186 2.20155C40.5089 1.97234 40.5993 1.74313 40.7801 1.6056C41.006 1.42222 41.0964 1.42222 41.2319 1.69728C41.3524 1.91121 41.4127 2.15571 41.4127 2.43077C41.4579 3.6227 41.6386 4.81462 41.5934 6.00655C41.5934 6.32745 41.5031 6.55666 41.5482 6.92341C41.6838 6.46498 41.729 6.05239 41.7742 5.6398C41.7742 5.2425 41.7742 4.8299 41.7742 4.40203C41.7742 4.17281 41.7742 3.98944 41.7742 3.76023C41.7742 3.51573 41.8796 3.34763 42.0905 3.25595C42.2712 3.16426 42.4068 3.16426 42.452 3.34764C42.5424 3.43932 42.5875 3.57685 42.5875 3.71438C42.6779 4.31034 42.7683 4.90631 42.7683 5.54811C42.8135 6.37329 42.7683 7.24431 42.8135 8.06949C42.8135 8.29871 42.7683 8.52794 42.6779 8.71131C42.4369 9.32256 42.2712 9.94907 42.1809 10.5909C42.1357 10.9576 42.0905 11.3702 41.9549 11.6911C41.5483 12.7455 41.6386 13.7999 41.7742 14.8543C42.0453 17.1006 42.5875 19.2553 43.0846 21.4557C43.4913 23.152 43.6268 24.9398 43.898 26.6819C44.0335 27.9655 43.9431 29.2491 43.898 30.5327C43.8528 31.908 44.0335 33.2375 44.2594 34.5669C44.4854 36.1256 44.6661 37.6843 44.8017 39.243C45.0728 41.6726 45.118 44.1024 45.2084 46.532C45.2084 46.7154 45.2535 46.8988 45.2084 47.0822C45.0728 48.3658 45.5699 49.4202 46.2025 50.4287C47.1062 51.7582 48.3714 52.7209 49.6819 53.5461C49.8626 53.6836 50.0434 53.6836 50.2693 53.6836C50.9471 53.6378 51.6249 53.6378 52.3027 53.7753C53.5227 53.9587 54.5168 54.4629 55.3302 55.3798C55.5561 55.6549 55.8725 55.8382 56.1888 56.0216C57.9962 56.8468 59.8037 57.7636 61.4304 58.9556C63.8705 60.7435 66.1299 62.8064 67.9373 65.3278C68.6603 66.3822 69.5189 67.2991 70.4226 68.1701C71.3715 69.087 72.2301 70.1413 73.0434 71.1499C74.3087 72.8003 75.6191 74.4048 77.0199 75.9634C77.8784 76.9262 78.8273 77.7513 79.8214 78.5765C81.8097 80.2727 83.5268 82.244 85.1083 84.3528C88.2262 88.6621 91.2085 93.063 94.1908 97.4181C94.4318 97.7543 94.6427 98.1058 94.8235 98.4725C95.2301 99.206 95.7272 99.8937 96.3146 100.535C96.7665 100.948 97.0828 101.544 97.3539 102.14C97.7756 102.843 98.2426 103.515 98.7547 104.157C99.794 105.395 100.788 106.633 101.782 107.87C102.415 108.65 103.093 109.337 103.77 110.117C105.849 112.592 107.837 115.159 109.78 117.773C110.91 119.331 111.994 120.89 113.124 122.403C113.937 123.549 114.932 124.512 116.016 125.428C116.513 125.841 116.92 126.299 117.326 126.804C118.275 128.041 119.315 129.233 120.49 130.242C121.454 131.067 122.508 131.709 123.653 132.167C124.24 132.397 124.737 132.672 124.963 133.313C125.053 133.451 125.189 133.589 125.325 133.726C125.415 133.955 125.46 134.139 125.279 134.322ZM56.5954 83.0233C56.5954 82.7483 56.5051 82.4732 56.4147 82.1523C56.3846 81.9995 56.3394 81.8314 56.2791 81.648C55.8272 80.4561 55.6465 79.2183 55.5561 77.9347C55.511 77.4304 55.5561 76.8803 55.3302 76.4219C55.0139 75.8259 54.6524 75.3216 54.1102 74.8632C53.9294 74.7257 53.7487 74.6798 53.5227 74.7257C53.2516 74.8174 52.9805 74.8479 52.7094 74.8174C52.0316 74.7715 51.3538 74.7257 50.7211 74.634C50.5856 74.634 50.45 74.634 50.3145 74.6798C49.2752 75.0007 48.2359 74.8174 47.287 74.2673C46.7899 73.9922 46.2477 73.9005 45.7054 73.9922C44.1691 74.1756 42.949 74.8174 42.226 76.2844C41.8194 77.0179 41.4579 77.7513 41.1868 78.5765C40.8704 79.5851 40.5993 80.6395 40.283 81.6939C39.6052 84.2152 39.063 86.8283 38.2948 89.3039C38.114 89.8998 38.0237 90.5416 37.9333 91.1834C37.6622 93.3381 37.2103 95.4469 36.4873 97.464C35.8547 99.206 35.0413 100.856 34.228 102.507C33.6556 103.668 33.0833 104.814 32.5109 105.945C32.1494 106.678 31.8783 107.458 31.6523 108.237C31.5168 108.696 31.6071 109.246 31.2908 109.704C31.5168 109.704 31.562 109.567 31.6523 109.475C33.1887 107.595 34.725 105.67 36.0354 103.607C36.2162 103.332 36.397 103.011 36.6681 102.828C37.3911 102.186 37.9785 101.452 38.5207 100.719C39.3793 99.5728 40.3282 98.4725 41.1868 97.3264C43.2653 94.5758 45.3891 91.9169 47.6936 89.3956C49.0492 87.8827 50.5856 86.5533 52.3027 85.4989C53.6131 84.6737 54.9235 83.8485 56.3695 83.3901C56.5502 83.3442 56.5954 83.2067 56.5954 83.0233Z" stroke="#FDC442" stroke-width="4" mask="url(#path-1-inside-1_1841_9051)"/>
</svg>
