<svg width="1730" height="1730" viewBox="0 0 1730 1730" fill="none" xmlns="http://www.w3.org/2000/svg">
<path fill-rule="evenodd" clip-rule="evenodd" d="M641.475 30.4618C716.41 10.6071 791.345 1 865 1C938.655 1 1013.59 10.6071 1088.53 30.4618C1163.46 50.957 1233.27 79.7783 1296.68 116.926C1360.73 154.073 1420.93 199.547 1476.01 253.987C1530.45 309.068 1575.93 369.273 1613.07 433.32C1650.22 496.727 1679.04 566.539 1699.54 641.475C1719.39 716.41 1729 791.345 1729 865C1729 938.655 1719.39 1013.59 1699.54 1088.53C1679.04 1163.46 1650.22 1233.27 1613.07 1296.68C1575.93 1360.73 1530.45 1420.93 1476.01 1476.01C1420.93 1530.45 1360.73 1575.93 1296.68 1613.07C1233.27 1650.22 1163.46 1679.04 1088.53 1699.54C1013.59 1719.39 938.655 1729 865 1729C791.345 1729 716.41 1719.39 641.475 1699.54C566.539 1679.04 496.727 1650.22 433.32 1613.07C369.273 1575.93 309.068 1530.45 253.987 1476.01C199.547 1420.93 154.073 1360.73 116.926 1296.68C79.7783 1233.27 50.957 1163.46 30.4618 1088.53C10.6071 1013.59 1 938.655 1 865C1 791.345 10.6071 716.41 30.4618 641.475C50.957 566.539 79.7783 496.727 116.926 433.32C154.073 369.273 199.547 309.068 253.987 253.987C309.068 199.547 369.273 154.073 433.32 116.926C496.727 79.7783 566.539 50.957 641.475 30.4618V30.4618ZM865 401.297C859.022 401.724 853.045 402.364 847.067 403.218C789.424 411.544 739.467 385.925 757.4 320.597C764.446 293.056 777.895 266.797 784.3 239.257C802.874 154.073 732.422 148.95 690.151 118.207C675.42 107.959 664.532 97.7116 656.205 84.9021C654.924 100.274 650.441 114.364 642.755 131.016C622.26 178.411 563.337 218.121 622.26 282.809C641.475 303.304 665.813 319.316 686.308 339.811C734.343 387.206 703.6 434.601 649.801 455.737C644.25 458.299 638.699 460.861 633.148 463.423C628.025 466.838 623.114 470.468 618.417 474.311C572.944 510.177 516.582 512.739 499.289 447.411C492.244 419.87 490.963 390.408 481.996 363.509C455.737 280.247 391.689 311.63 340.451 305.866C322.518 303.944 307.787 300.742 294.337 294.337C300.742 307.787 303.944 322.518 305.866 340.451C311.63 391.689 280.247 455.737 363.509 481.996C390.408 490.963 419.87 492.244 447.411 499.289C512.739 516.582 510.177 572.944 474.311 618.417C470.468 623.114 466.838 628.025 463.423 633.148C460.861 638.699 458.299 644.25 455.737 649.801C434.601 703.6 387.206 734.343 339.811 686.308C319.316 665.813 303.304 641.475 282.809 622.26C218.121 563.337 178.411 622.26 131.016 642.755C114.364 650.441 100.274 654.924 84.9021 656.205C97.7116 664.532 107.959 675.42 118.207 690.151C148.95 732.422 154.073 802.874 239.257 784.3C266.797 777.895 293.056 764.446 320.597 757.4C385.925 739.467 411.544 789.424 403.218 847.067C402.364 853.045 401.724 859.022 401.297 865C401.724 870.978 402.364 876.956 403.218 882.933C411.544 940.576 385.925 990.533 320.597 972.6C293.056 965.555 266.797 952.105 239.257 945.7C154.073 927.126 148.95 997.578 118.207 1039.85C107.959 1054.58 97.7116 1065.47 84.9021 1073.79C100.274 1075.08 114.364 1079.56 131.016 1087.24C178.411 1107.74 218.121 1166.66 282.809 1107.74C303.304 1088.53 319.316 1064.19 339.811 1043.69C387.206 995.657 434.601 1026.4 455.737 1080.2C458.299 1085.75 460.861 1091.3 463.423 1096.85C466.838 1101.98 470.468 1106.89 474.311 1111.58C510.177 1157.06 512.739 1213.42 447.411 1230.71C419.87 1237.76 390.408 1239.04 363.509 1248C280.247 1274.26 311.63 1338.31 305.866 1389.55C303.944 1407.48 300.742 1422.21 294.337 1435.66C307.787 1429.26 322.518 1426.06 340.451 1424.13C391.689 1418.37 455.737 1449.75 481.996 1366.49C490.963 1339.59 492.244 1310.13 499.289 1282.59C516.582 1217.26 572.944 1219.82 618.417 1255.69C623.114 1259.53 628.025 1263.16 633.148 1266.58C638.699 1269.14 644.25 1271.7 649.801 1274.26C703.6 1295.4 734.343 1342.79 686.308 1390.19C665.813 1410.68 641.475 1426.7 622.26 1447.19C563.337 1511.88 622.26 1551.59 642.755 1598.98C650.441 1615.64 654.924 1629.73 656.205 1645.1C664.532 1632.29 675.42 1622.04 690.151 1611.79C732.422 1581.05 802.874 1575.93 784.3 1490.74C777.895 1463.2 764.446 1436.94 757.4 1409.4C739.467 1344.07 789.424 1318.46 847.067 1326.78C853.045 1327.64 859.022 1328.28 865 1328.7C870.978 1328.28 876.956 1327.64 882.933 1326.78C940.576 1318.46 990.533 1344.07 972.6 1409.4C965.555 1436.94 952.105 1463.2 945.7 1490.74C927.126 1575.93 997.578 1581.05 1039.85 1611.79C1054.58 1622.04 1065.47 1632.29 1073.79 1645.1C1075.08 1629.73 1079.56 1615.64 1087.24 1598.98C1107.74 1551.59 1166.66 1511.88 1107.74 1447.19C1088.53 1426.7 1064.19 1410.68 1043.69 1390.19C995.657 1342.79 1026.4 1295.4 1080.2 1274.26C1085.75 1271.7 1091.3 1269.14 1096.85 1266.58C1101.98 1263.16 1106.89 1259.53 1111.58 1255.69C1157.06 1219.82 1213.42 1217.26 1230.71 1282.59C1237.76 1310.13 1239.04 1339.59 1248 1366.49C1274.26 1449.75 1338.31 1418.37 1389.55 1424.13C1407.48 1426.06 1422.21 1429.26 1435.66 1435.66C1429.26 1422.21 1426.06 1407.48 1424.13 1389.55C1418.37 1338.31 1449.75 1274.26 1366.49 1248C1339.59 1239.04 1310.13 1237.76 1282.59 1230.71C1217.26 1213.42 1219.82 1157.06 1255.69 1111.58C1259.53 1106.89 1263.16 1101.98 1266.58 1096.85C1269.14 1091.3 1271.7 1085.75 1274.26 1080.2C1295.4 1026.4 1342.79 995.657 1390.19 1043.69C1410.68 1064.19 1426.7 1088.53 1447.19 1107.74C1511.88 1166.66 1551.59 1107.74 1598.98 1087.24C1615.64 1079.56 1629.73 1075.08 1645.1 1073.79C1632.29 1065.47 1622.04 1054.58 1611.79 1039.85C1581.05 997.578 1575.93 927.126 1490.74 945.7C1463.2 952.105 1436.94 965.555 1409.4 972.6C1344.07 990.533 1318.46 940.576 1326.78 882.933C1327.64 876.956 1328.28 870.978 1328.7 865C1328.28 859.022 1327.64 853.045 1326.78 847.067C1318.46 789.424 1344.07 739.467 1409.4 757.4C1436.94 764.446 1463.2 777.895 1490.74 784.3C1575.93 802.874 1581.05 732.422 1611.79 690.151C1622.04 675.42 1632.29 664.532 1645.1 656.205C1629.73 654.924 1615.64 650.441 1598.98 642.755C1551.59 622.26 1511.88 563.337 1447.19 622.26C1426.7 641.475 1410.68 665.813 1390.19 686.308C1342.79 734.343 1295.4 703.6 1274.26 649.801C1271.7 644.25 1269.14 638.699 1266.58 633.148C1263.16 628.025 1259.53 623.114 1255.69 618.417C1219.82 572.944 1217.26 516.582 1282.59 499.289C1310.13 492.244 1339.59 490.963 1366.49 481.996C1449.75 455.737 1418.37 391.689 1424.13 340.451C1426.06 322.518 1429.26 307.787 1435.66 294.337C1422.21 300.742 1407.48 303.944 1389.55 305.866C1338.31 311.63 1274.26 280.247 1248 363.509C1239.04 390.408 1237.76 419.87 1230.71 447.411C1213.42 512.739 1157.06 510.177 1111.58 474.311C1106.89 470.468 1101.98 466.838 1096.85 463.423C1091.3 460.861 1085.75 458.299 1080.2 455.737C1026.4 434.601 995.657 387.206 1043.69 339.811C1064.19 319.316 1088.53 303.304 1107.74 282.809C1166.66 218.121 1107.74 178.411 1087.24 131.016C1079.56 114.364 1075.08 100.274 1073.79 84.9021C1065.47 97.7116 1054.58 107.959 1039.85 118.207C997.578 148.95 927.126 154.073 945.7 239.257C952.105 266.797 965.555 293.056 972.6 320.597C990.533 385.925 940.576 411.544 882.933 403.218C876.956 402.364 870.978 401.724 865 401.297V401.297ZM865 128.454C811.841 128.454 760.603 77.8569 747.153 29.1809C718.118 33.4507 689.083 39.215 660.048 46.4737C683.105 126.533 789.424 118.847 807.998 200.828C827.212 281.528 701.039 380.801 865 380.801C1028.96 380.801 902.788 281.528 922.002 200.828C940.576 118.847 1046.89 126.533 1069.95 46.4737C1040.92 39.215 1011.88 33.4507 982.847 29.1809C969.397 77.8569 918.159 128.454 865 128.454V128.454ZM1233.27 227.088C1187.16 200.828 1168.59 131.657 1180.75 82.3403C1153.43 71.2387 1125.46 61.6316 1096.85 53.5189C1076.36 134.859 1172.43 180.973 1148.09 261.033C1123.75 341.092 964.914 363.509 1107.1 445.489C1249.28 528.11 1189.72 378.88 1246.08 318.035C1303.73 256.549 1391.47 316.754 1452.32 258.471C1430.54 237.549 1408.12 218.121 1385.07 200.188C1348.56 235.414 1278.75 253.987 1233.27 227.088V227.088ZM1502.91 496.727C1476.01 451.254 1494.59 381.442 1529.81 344.935C1511.88 321.878 1492.45 299.461 1471.53 277.685C1413.25 338.53 1473.45 426.275 1411.97 483.918C1351.12 540.28 1201.89 480.715 1284.51 622.901C1366.49 765.086 1388.91 606.248 1468.97 581.91C1549.03 557.572 1595.14 653.644 1676.48 633.148C1668.37 604.54 1658.76 576.573 1647.66 549.246C1598.34 561.415 1529.17 542.841 1502.91 496.727V496.727ZM1601.55 865C1601.55 811.841 1652.14 760.603 1700.82 747.153C1696.55 718.118 1690.79 689.083 1683.53 660.048C1603.47 683.105 1611.15 789.424 1529.17 807.998C1448.47 827.212 1349.2 701.039 1349.2 865C1349.2 1028.96 1448.47 902.788 1529.17 922.002C1611.15 940.576 1603.47 1046.89 1683.53 1069.95C1690.79 1040.92 1696.55 1011.88 1700.82 982.847C1652.14 969.397 1601.55 918.159 1601.55 865ZM1502.91 1233.27C1529.17 1187.16 1598.34 1168.59 1647.66 1180.75C1658.76 1153.43 1668.37 1125.46 1676.48 1096.85C1595.14 1076.36 1549.03 1172.43 1468.97 1148.09C1388.91 1123.75 1366.49 964.914 1284.51 1107.1C1201.89 1249.28 1351.12 1189.72 1411.97 1246.08C1473.45 1303.73 1413.25 1391.47 1471.53 1452.32C1492.45 1430.54 1511.88 1408.12 1529.81 1385.07C1494.59 1348.56 1476.01 1278.75 1502.91 1233.27V1233.27ZM1233.27 1502.91C1278.75 1476.01 1348.56 1494.59 1385.07 1529.81C1408.12 1511.88 1430.54 1492.45 1452.32 1471.53C1391.47 1413.25 1303.73 1473.45 1246.08 1411.97C1189.72 1351.12 1249.28 1201.89 1107.1 1284.51C964.914 1366.49 1123.75 1388.91 1148.09 1468.97C1172.43 1549.03 1076.36 1595.14 1096.85 1676.48C1125.46 1668.37 1153.43 1658.76 1180.75 1647.66C1168.59 1598.34 1187.16 1529.17 1233.27 1502.91V1502.91ZM865 1601.55C918.159 1601.55 969.397 1652.14 982.847 1700.82C1011.88 1696.55 1040.92 1690.79 1069.95 1683.53C1046.89 1603.47 940.576 1611.15 922.002 1529.17C902.788 1448.47 1028.96 1349.2 865 1349.2C701.039 1349.2 827.212 1448.47 807.998 1529.17C789.424 1611.15 683.105 1603.47 660.048 1683.53C689.083 1690.79 718.118 1696.55 747.153 1700.82C760.603 1652.14 811.841 1601.55 865 1601.55ZM496.727 1502.91C542.841 1529.17 561.415 1598.34 549.246 1647.66C576.573 1658.76 604.54 1668.37 633.148 1676.48C653.644 1595.14 557.572 1549.03 581.91 1468.97C606.248 1388.91 765.086 1366.49 622.901 1284.51C480.715 1201.89 540.28 1351.12 483.918 1411.97C426.275 1473.45 338.53 1413.25 277.685 1471.53C299.461 1492.45 321.878 1511.88 344.935 1529.81C381.442 1494.59 451.254 1476.01 496.727 1502.91V1502.91ZM227.088 1233.27C253.987 1278.75 235.414 1348.56 200.188 1385.07C218.121 1408.12 237.549 1430.54 258.471 1452.32C316.754 1391.47 256.549 1303.73 318.035 1246.08C378.88 1189.72 528.11 1249.28 445.489 1107.1C363.509 964.914 341.092 1123.75 261.033 1148.09C180.973 1172.43 134.859 1076.36 53.5189 1096.85C61.6316 1125.46 71.2387 1153.43 82.3403 1180.75C131.657 1168.59 200.828 1187.16 227.088 1233.27ZM128.454 865C128.454 918.159 77.8569 968.757 29.1809 982.847C33.0237 1011.88 38.5745 1040.92 45.8332 1069.95C126.533 1046.89 118.847 940.576 200.828 922.002C281.528 902.788 380.801 1028.96 380.801 865C380.801 700.398 281.528 826.572 200.828 807.998C118.847 788.784 126.533 683.105 45.8332 659.408C38.5745 688.87 33.0237 718.118 29.1809 747.153C77.8569 760.603 128.454 811.841 128.454 865V865ZM227.088 496.727C200.828 542.841 131.657 561.415 82.3403 549.246C71.2387 576.573 61.6316 604.54 53.5189 633.148C134.859 653.003 180.973 557.572 261.033 581.91C341.092 606.248 363.509 765.086 445.489 622.901C528.11 480.715 378.88 540.279 318.035 483.277C256.549 426.275 316.754 338.53 258.471 277.685C237.549 299.461 218.121 321.878 200.188 344.935C235.414 381.442 253.987 450.613 227.088 496.727V496.727ZM496.727 227.088C450.613 253.987 381.442 235.414 344.935 200.188C321.878 218.121 299.461 237.549 277.685 258.471C338.53 316.754 426.275 256.549 483.277 318.035C540.279 378.88 480.715 528.11 622.901 445.489C765.086 363.509 606.248 341.092 581.91 261.033C557.572 180.973 653.003 134.859 633.148 53.5189C604.54 61.6316 576.573 71.2387 549.246 82.3403C561.415 131.657 542.841 200.828 496.727 227.088V227.088ZM865 66.9689C850.269 65.6879 836.179 64.407 826.572 52.238C818.886 42.6308 815.684 33.0237 815.043 22.1357C798.818 22.9896 782.806 24.4841 767.007 26.619C779.817 63.126 822.729 113.083 865 108.6C906.631 113.083 950.183 63.126 962.993 26.619C946.767 24.4841 930.756 22.9896 914.957 22.1357C914.317 33.0237 911.114 42.6308 903.428 52.238C893.181 64.407 879.731 65.6879 865 66.9689ZM1264.02 173.928C1251.85 165.602 1240.32 157.276 1238.4 141.904C1236.48 129.735 1238.4 120.128 1243.52 109.881C1229 102.622 1214.27 95.7902 1199.33 89.3855C1192.28 128.454 1204.45 193.142 1242.88 210.435C1277.47 234.773 1339.59 213.638 1369.05 188.019C1356.24 178.198 1343.01 168.804 1329.34 159.838C1323.58 169.445 1315.89 175.85 1304.37 180.333C1289.63 186.097 1277.47 179.692 1264.02 173.928ZM1556.07 465.984C1550.31 452.534 1543.9 439.725 1549.67 425.635C1554.15 414.106 1560.56 406.42 1570.16 400.656C1561.2 386.993 1551.8 373.756 1541.98 360.947C1516.36 390.409 1495.23 452.535 1519.56 487.12C1536.86 525.549 1601.55 537.718 1639.97 530.672C1633.57 515.728 1626.74 500.997 1619.48 486.48C1609.87 491.603 1600.26 493.525 1588.1 491.603C1572.72 489.042 1564.4 477.513 1556.07 465.984V465.984ZM1663.03 865C1664.31 850.269 1665.59 836.179 1677.76 826.572C1687.37 818.886 1696.98 815.684 1707.86 815.043C1707.01 798.818 1705.52 782.806 1703.38 767.007C1666.23 779.817 1616.92 822.729 1620.76 865C1616.92 906.631 1666.23 950.183 1703.38 962.993C1705.52 946.767 1707.01 930.756 1707.86 914.957C1696.98 914.317 1687.37 911.114 1677.76 903.428C1665.59 893.181 1664.31 879.731 1663.03 865ZM1556.07 1264.02C1564.4 1251.85 1572.72 1240.32 1588.1 1238.4C1600.26 1236.48 1609.87 1238.4 1619.48 1243.52C1626.74 1229 1633.57 1214.27 1639.97 1199.33C1601.55 1192.28 1536.86 1204.45 1519.56 1242.88C1495.23 1277.47 1516.36 1339.59 1541.98 1369.05C1551.8 1356.24 1561.2 1343.01 1570.16 1329.34C1560.56 1323.58 1554.15 1315.89 1549.67 1304.37C1543.9 1289.63 1550.31 1277.47 1556.07 1264.02V1264.02ZM1264.02 1556.07C1277.47 1550.31 1289.63 1543.9 1304.37 1549.67C1315.89 1554.15 1323.58 1560.56 1329.34 1570.16C1343.01 1561.2 1356.24 1551.8 1369.05 1541.98C1339.59 1516.36 1277.47 1495.23 1242.88 1519.56C1204.45 1536.86 1192.28 1601.55 1199.33 1639.97C1214.27 1633.57 1229 1626.74 1243.52 1619.48C1238.4 1609.87 1236.48 1600.26 1238.4 1588.1C1240.32 1572.72 1252.49 1564.4 1264.02 1556.07V1556.07ZM865 1663.03C879.731 1664.31 893.181 1665.59 903.428 1677.76C911.114 1687.37 914.317 1696.98 914.957 1707.86C930.756 1707.01 946.767 1705.52 962.993 1703.38C950.183 1666.23 906.631 1616.92 865 1620.76C822.729 1616.92 779.817 1666.23 767.007 1703.38C782.806 1705.52 798.818 1707.01 815.043 1707.86C815.684 1696.98 818.886 1687.37 826.572 1677.76C836.179 1665.59 850.269 1664.31 865 1663.03ZM465.984 1556.07C477.513 1564.4 489.682 1572.72 491.603 1588.1C493.525 1600.26 491.603 1609.87 486.48 1619.48C500.997 1627.16 515.728 1634 530.672 1639.97C537.718 1601.55 525.549 1536.86 487.12 1519.56C452.535 1495.23 390.409 1516.36 360.947 1541.98C373.756 1551.8 386.993 1561.2 400.656 1570.16C406.42 1560.56 414.106 1554.15 425.635 1549.67C439.725 1543.9 452.534 1550.31 465.984 1556.07V1556.07ZM173.928 1264.02C179.692 1277.47 186.097 1290.28 180.333 1304.37C175.85 1315.89 169.445 1323.58 159.838 1329.34C168.804 1343.01 178.198 1356.24 188.019 1369.05C213.638 1339.59 234.773 1277.47 210.435 1242.88C193.142 1204.45 128.454 1192.28 89.3855 1199.33C95.7902 1214.27 102.622 1229 109.881 1243.52C120.128 1238.4 129.735 1236.48 141.904 1238.4C157.276 1240.32 165.602 1252.49 173.928 1264.02V1264.02ZM66.9689 865C65.6879 879.731 64.407 893.181 52.238 903.428C42.6308 911.114 33.0237 914.317 22.1357 914.957C22.9896 930.756 24.4841 946.767 26.619 962.993C63.126 950.183 113.083 906.631 108.6 865C113.083 822.729 63.126 779.817 26.619 767.007C24.4841 782.806 22.9896 798.818 22.1357 815.043C33.0237 815.684 42.6308 818.886 52.238 826.572C64.407 836.179 65.6879 850.269 66.9689 865ZM173.928 465.984C165.602 477.513 157.276 489.682 141.904 491.603C129.735 493.525 120.128 491.603 109.881 486.48C102.622 500.997 95.7902 515.728 89.3855 530.672C128.454 537.718 193.142 525.549 210.435 487.12C234.773 452.535 213.638 390.409 188.019 360.947C178.198 373.756 168.804 386.993 159.838 400.656C169.445 406.42 175.85 414.106 180.333 425.635C186.097 439.725 179.692 452.534 173.928 465.984V465.984ZM465.984 173.928C452.534 179.692 439.725 186.097 425.635 180.333C414.106 175.85 406.42 169.445 400.656 159.838C386.993 168.804 373.756 178.198 360.947 188.019C390.409 213.638 452.535 234.773 487.12 210.435C525.549 193.142 537.718 128.454 530.672 89.3855C515.728 95.7902 500.997 102.835 486.48 110.521C491.603 120.128 493.525 129.735 491.603 141.904C489.042 157.276 477.513 165.602 465.984 173.928V173.928ZM865 20.8547C853.471 20.8547 841.729 21.0682 829.774 21.4952C831.055 40.069 843.864 53.5189 865 52.238C886.136 53.5189 898.305 40.069 899.586 21.4952C888.057 21.0682 876.529 20.8547 865 20.8547ZM1287.07 134.219C1276.83 128.241 1266.58 122.477 1256.33 116.926C1248.64 133.578 1252.49 152.152 1271.06 161.119C1288.99 173.288 1306.29 166.883 1316.53 152.152C1306.71 145.747 1296.89 139.769 1287.07 134.219ZM1595.78 442.927C1590.23 432.68 1584.25 422.646 1577.85 412.825C1562.48 423.073 1556.71 441.006 1568.88 458.299C1577.85 477.513 1596.42 481.356 1613.07 473.67C1607.52 463.423 1601.76 453.175 1595.78 442.927ZM1709.15 865C1709.15 853.471 1708.93 841.729 1708.5 829.774C1689.93 831.055 1675.84 843.864 1677.76 865C1675.84 886.136 1689.93 898.305 1708.5 899.586C1708.93 888.057 1709.15 876.529 1709.15 865ZM1595.78 1287.07C1601.76 1276.83 1607.52 1266.58 1613.07 1256.33C1596.42 1248.64 1577.85 1252.49 1568.88 1271.06V1271.7C1556.71 1288.99 1562.48 1306.93 1577.85 1317.18C1584.25 1306.93 1590.23 1296.89 1595.78 1287.07V1287.07ZM1287.07 1595.78C1296.89 1590.23 1306.71 1584.25 1316.53 1577.85C1306.29 1562.48 1288.99 1556.71 1271.06 1568.88C1252.49 1577.85 1248.64 1596.42 1256.33 1613.07C1266.58 1607.52 1276.83 1601.76 1287.07 1595.78ZM865 1709.15C876.529 1709.15 888.057 1708.93 899.586 1708.5C898.305 1689.93 886.136 1675.84 865 1677.76C843.864 1675.84 831.055 1689.93 829.774 1708.5C841.729 1708.93 853.471 1709.15 865 1709.15ZM442.927 1595.78C452.748 1601.76 462.996 1607.52 473.67 1613.07C481.356 1596.42 477.513 1577.85 458.299 1568.88C441.006 1556.71 423.073 1562.48 412.825 1577.85C422.646 1584.25 432.68 1590.23 442.927 1595.78ZM133.578 1287.07C139.556 1296.89 145.747 1306.93 152.152 1317.18C166.883 1306.93 173.288 1288.99 161.119 1271.7C161.119 1271.27 161.119 1271.06 161.119 1271.06C152.152 1252.49 133.578 1248.64 116.926 1256.33C122.477 1266.58 128.027 1276.83 133.578 1287.07V1287.07ZM20.8547 865C20.8547 876.529 21.0682 888.057 21.4952 899.586C40.069 898.305 53.5189 886.136 52.238 865C53.5189 843.864 40.069 831.055 21.4952 829.774C21.0682 841.729 20.8547 853.471 20.8547 865ZM133.578 442.927C128.027 453.175 122.477 463.423 116.926 473.67C133.578 481.356 152.152 477.513 161.119 458.299C173.288 441.006 166.883 423.073 152.152 412.825C145.747 422.646 139.556 432.68 133.578 442.927ZM442.927 134.219C432.68 139.769 422.646 145.747 412.825 152.152C423.073 166.883 441.006 173.288 458.299 161.119C477.513 152.152 481.356 133.578 473.67 116.926C462.996 122.477 452.748 128.241 442.927 134.219Z" stroke="white"/>
<path fill-rule="evenodd" clip-rule="evenodd" d="M743.309 411.543C745.871 410.902 748.433 410.902 750.995 412.824C751.422 412.824 752.062 413.037 752.916 413.464C756.119 416.667 847.066 478.793 864.999 495.445C882.932 478.793 973.88 416.667 977.082 413.464C977.936 413.037 978.577 412.824 979.004 412.824C981.566 410.902 984.127 410.902 986.689 411.543C988.611 412.183 991.173 413.464 992.454 416.026C992.881 416.453 993.308 417.094 993.735 417.947C995.016 422.431 1042.41 521.704 1050.1 544.761C1073.79 539.638 1183.31 531.311 1187.8 530.031C1188.65 530.031 1189.29 530.031 1189.72 530.031C1192.92 530.031 1195.48 531.311 1196.76 533.233C1198.69 534.514 1199.97 537.076 1199.97 540.278C1199.97 540.705 1199.97 541.346 1199.97 542.2C1198.69 546.683 1190.36 656.204 1185.24 679.902C1208.29 687.587 1307.57 734.982 1312.05 736.263C1312.9 736.69 1313.54 737.117 1313.97 737.544C1316.53 738.825 1317.81 741.387 1318.46 743.309C1319.1 745.87 1319.1 748.432 1317.17 750.994C1317.17 751.421 1316.96 752.062 1316.53 752.916C1313.33 756.118 1251.21 847.065 1234.55 864.999C1251.21 882.932 1313.33 973.879 1316.53 977.082C1316.96 977.936 1317.17 978.576 1317.17 979.003C1319.1 981.565 1319.1 984.127 1318.46 986.689C1317.81 988.61 1316.53 991.172 1313.97 992.453C1313.54 992.88 1312.9 993.307 1312.05 993.734C1307.57 995.015 1208.29 1042.41 1185.24 1050.1C1190.36 1073.79 1198.69 1183.31 1199.97 1187.8C1199.97 1188.65 1199.97 1189.29 1199.97 1189.72C1199.97 1192.92 1198.69 1195.48 1196.76 1196.76C1195.48 1198.69 1192.92 1199.97 1189.72 1199.97C1189.29 1199.97 1188.65 1199.97 1187.8 1199.97C1183.31 1198.69 1073.79 1190.36 1050.1 1185.24C1042.41 1208.29 995.016 1307.57 993.735 1312.05C993.308 1312.9 992.881 1313.54 992.454 1313.97C991.173 1316.53 988.611 1317.81 986.689 1318.45C984.127 1319.1 981.566 1319.1 979.004 1317.17C978.577 1317.17 977.936 1316.96 977.082 1316.53C973.88 1313.33 882.932 1251.2 864.999 1234.55C847.066 1251.2 756.119 1313.33 752.916 1316.53C752.062 1316.96 751.422 1317.17 750.995 1317.17C748.433 1319.1 745.871 1319.1 743.309 1318.45C741.388 1317.81 738.826 1316.53 737.545 1313.97C737.118 1313.54 736.691 1312.9 736.264 1312.05C734.983 1307.57 687.588 1208.29 679.902 1185.24C656.205 1190.36 546.683 1198.69 542.2 1199.97C541.346 1199.97 540.706 1199.97 540.279 1199.97C537.076 1199.97 534.514 1198.69 533.233 1196.76C531.312 1195.48 530.031 1192.92 530.031 1189.72C530.031 1189.29 530.031 1188.65 530.031 1187.8C531.312 1183.31 539.638 1073.79 544.762 1050.1C521.705 1042.41 422.431 995.015 417.948 993.734C417.094 993.307 416.453 992.88 416.027 992.453C413.465 991.172 412.184 988.61 411.543 986.689C410.903 984.127 410.903 981.565 412.824 979.003C412.824 978.576 413.038 977.936 413.465 977.082C416.667 973.879 478.793 882.932 495.445 864.999C478.793 847.065 416.667 756.118 413.465 752.916C413.038 752.062 412.824 751.421 412.824 750.994C410.903 748.432 410.903 745.87 411.543 743.309C412.184 741.387 413.465 738.825 416.027 737.544C416.453 737.117 417.094 736.69 417.948 736.263C422.431 734.982 521.705 687.587 544.762 679.902C539.638 656.204 531.312 546.683 530.031 542.2C530.031 541.346 530.031 540.705 530.031 540.278C530.031 537.076 531.312 534.514 533.233 533.233C534.514 531.311 537.076 530.031 540.279 530.031C540.706 530.031 541.346 530.031 542.2 530.031C546.683 531.311 656.205 539.638 679.902 544.761C687.588 521.704 734.983 422.431 736.264 417.947C736.691 417.094 737.118 416.453 737.545 416.026C738.826 413.464 741.388 412.183 743.309 411.543ZM864.999 531.311C861.797 531.311 858.594 530.031 856.673 526.828C829.773 484.557 786.861 466.624 750.354 436.521C733.061 480.714 705.521 517.862 702.959 567.819C702.959 571.661 701.038 574.223 698.476 576.145C695.273 577.426 692.071 578.066 688.869 576.145C644.676 553.728 597.921 558.852 551.167 551.166C558.852 597.921 553.729 644.675 576.145 688.868C578.067 692.071 577.426 695.273 576.145 698.475C574.224 701.037 571.662 702.959 567.819 702.959C517.862 705.521 480.715 733.061 436.522 750.354C466.624 786.861 484.557 829.773 526.829 856.673C530.031 858.594 531.312 861.796 531.312 864.999C531.312 868.201 530.031 871.403 526.829 873.325C484.557 900.225 466.624 943.137 436.522 979.644C480.715 996.936 517.862 1024.48 567.819 1027.04C571.662 1027.04 574.224 1028.96 576.145 1031.52C577.426 1034.72 578.067 1037.93 576.145 1041.13C553.729 1085.32 558.852 1132.08 551.167 1178.83C597.921 1171.15 644.676 1176.27 688.869 1153.85C692.071 1151.93 695.273 1152.57 698.476 1153.85C701.038 1155.77 702.959 1158.34 702.959 1162.18C705.521 1212.14 733.061 1249.28 750.354 1293.48C786.861 1263.37 829.773 1245.44 856.673 1203.17C858.594 1199.97 861.797 1198.69 864.999 1198.69C868.202 1198.69 871.404 1199.97 873.325 1203.17C900.225 1245.44 943.137 1263.37 979.644 1293.48C996.937 1249.28 1024.48 1212.14 1027.04 1162.18C1027.04 1158.34 1028.96 1155.77 1031.52 1153.85C1034.72 1152.57 1037.93 1151.93 1041.13 1153.85C1085.32 1176.27 1132.08 1171.15 1178.83 1178.83C1171.15 1132.08 1176.27 1085.32 1153.85 1041.13C1151.93 1037.93 1152.57 1034.72 1153.85 1031.52C1155.77 1028.96 1158.34 1027.04 1162.18 1027.04C1212.14 1024.48 1249.28 996.936 1293.48 979.644C1263.37 943.137 1245.44 900.225 1203.17 873.325C1199.97 871.403 1198.69 868.201 1198.69 864.999C1198.69 861.796 1199.97 858.594 1203.17 856.673C1245.44 829.773 1263.37 786.861 1293.48 750.354C1249.28 733.061 1212.14 705.521 1162.18 702.959C1158.34 702.959 1155.77 701.037 1153.85 698.475C1152.57 695.273 1151.93 692.071 1153.85 688.868C1176.27 644.675 1171.15 597.921 1178.83 551.166C1132.08 558.852 1085.32 553.728 1041.13 576.145C1037.93 578.066 1034.72 577.426 1031.52 576.145C1028.96 574.223 1027.04 571.661 1027.04 567.819C1024.48 517.862 996.937 480.714 979.644 436.521C943.137 466.624 900.225 484.557 873.325 526.828C871.404 530.031 868.202 531.311 864.999 531.311V531.311Z" stroke="white"/>
<path fill-rule="evenodd" clip-rule="evenodd" d="M770.215 511.459C792.631 507.616 811.846 508.897 827.857 529.392C840.026 545.404 848.353 564.618 850.274 585.113C854.971 584.686 859.881 584.473 865.005 584.473C870.129 584.473 875.039 584.686 879.736 585.113C881.657 564.618 889.983 545.404 902.152 529.392C918.164 508.897 937.379 507.616 959.795 511.459C980.931 519.785 996.943 530.032 1000.15 555.651C1003.35 576.147 1000.79 596.642 992.459 615.215C996.729 617.35 1001 619.485 1005.27 621.62C1009.54 624.182 1013.81 626.958 1018.08 629.946C1029.61 612.654 1046.26 600.485 1064.83 593.439C1089.17 583.832 1106.46 591.518 1123.76 606.249C1138.49 623.542 1146.17 640.834 1136.57 665.173C1129.52 683.746 1117.35 700.399 1100.06 711.927C1103.05 716.197 1105.82 720.467 1108.39 724.737C1110.52 729.007 1112.66 733.276 1114.79 737.546C1133.36 729.22 1153.86 726.658 1174.35 729.86C1199.97 733.063 1210.22 749.075 1218.55 770.21C1222.39 792.627 1221.11 811.841 1200.61 827.853C1184.6 840.022 1165.39 848.348 1144.89 850.27C1145.32 854.966 1145.53 859.877 1145.53 865.001C1145.53 870.124 1145.32 875.035 1144.89 879.731C1165.39 881.653 1184.6 889.979 1200.61 902.148C1221.11 918.16 1222.39 937.374 1218.55 959.791C1210.22 980.926 1199.97 996.938 1174.35 1000.14C1153.86 1003.34 1133.36 1000.78 1114.79 992.455C1112.66 996.725 1110.52 1000.99 1108.39 1005.26C1105.82 1009.53 1103.05 1013.8 1100.06 1018.07C1117.35 1029.6 1129.52 1046.25 1136.57 1064.83C1146.17 1089.17 1138.49 1106.46 1123.76 1123.75C1106.46 1138.48 1089.17 1146.17 1064.83 1136.56C1046.26 1129.52 1029.61 1117.35 1018.08 1100.05C1013.81 1103.04 1009.54 1105.82 1005.27 1108.38C1001 1110.52 996.729 1112.65 992.459 1114.79C1000.79 1133.36 1003.35 1153.85 1000.15 1174.35C996.943 1199.97 980.931 1210.22 959.795 1218.54C937.379 1222.39 918.164 1221.1 902.152 1200.61C889.983 1184.6 881.657 1165.38 879.736 1144.89C875.039 1145.31 870.129 1145.53 865.005 1145.53C859.881 1145.53 854.971 1145.31 850.274 1144.89C848.353 1165.38 840.026 1184.6 827.857 1200.61C811.846 1221.1 792.631 1222.39 770.215 1218.54C749.079 1210.22 733.067 1199.97 729.865 1174.35C726.662 1153.85 729.224 1133.36 737.551 1114.79C733.281 1112.65 729.011 1110.52 724.741 1108.38C720.471 1105.82 716.201 1103.04 711.932 1100.05C700.403 1117.35 683.751 1129.52 665.177 1136.56C640.839 1146.17 623.546 1138.48 606.253 1123.75C591.522 1106.46 583.837 1089.17 593.444 1064.83C600.489 1046.25 612.658 1029.6 629.951 1018.07C626.962 1013.8 624.187 1009.53 621.625 1005.26C619.49 1000.99 617.355 996.725 615.22 992.455C596.646 1000.78 576.151 1003.34 555.656 1000.14C530.037 996.938 519.789 980.926 511.463 959.791C507.62 937.374 508.901 918.16 529.396 902.148C545.408 889.979 564.622 881.653 585.118 879.731C584.691 875.035 584.477 870.124 584.477 865.001C584.477 859.877 584.691 854.966 585.118 850.27C564.622 848.348 545.408 840.022 529.396 827.853C508.901 811.841 507.62 792.627 511.463 770.21C519.789 749.075 530.037 733.063 555.656 729.86C576.151 726.658 596.646 729.22 615.22 737.546C617.355 733.276 619.49 729.007 621.625 724.737C624.187 720.467 626.962 716.197 629.951 711.927C612.658 700.399 600.489 683.746 593.444 665.173C583.837 640.834 591.522 623.542 606.253 606.249C623.546 591.518 640.839 583.832 665.177 593.439C683.751 600.485 700.403 612.654 711.932 629.946C716.201 626.958 720.471 624.182 724.741 621.62C729.011 619.485 733.281 617.35 737.551 615.215C729.224 596.642 726.662 576.147 729.865 555.651C733.067 530.032 749.079 519.785 770.215 511.459ZM865.005 604.327C842.588 604.327 820.172 607.53 797.755 613.935C775.339 619.699 754.203 628.025 734.348 638.913C715.134 650.442 697.201 664.532 681.189 681.184C664.536 697.196 650.446 715.13 638.917 734.344C628.029 754.199 619.703 775.334 613.939 797.751C607.534 820.167 604.332 842.584 604.332 865.001C604.332 887.417 607.534 909.834 613.939 932.25C619.703 954.667 628.029 975.803 638.917 995.657C650.446 1014.87 664.536 1032.8 681.189 1048.82C697.201 1065.47 715.134 1079.56 734.348 1091.09C754.203 1101.98 775.339 1110.3 797.755 1116.07C820.172 1122.47 842.588 1125.67 865.005 1125.67C887.422 1125.67 909.838 1122.47 932.255 1116.07C954.671 1110.3 975.807 1101.98 995.662 1091.09C1014.88 1079.56 1032.81 1065.47 1048.82 1048.82C1065.47 1032.8 1079.56 1014.87 1091.09 995.657C1101.98 975.803 1110.31 954.667 1116.07 932.25C1122.48 909.834 1125.68 887.417 1125.68 865.001C1125.68 842.584 1122.48 820.167 1116.07 797.751C1110.31 775.334 1101.98 754.199 1091.09 734.344C1079.56 715.13 1065.47 697.196 1048.82 681.184C1032.81 664.532 1014.88 650.442 995.662 638.913C975.807 628.025 954.671 619.699 932.255 613.935C909.838 607.53 887.422 604.327 865.005 604.327ZM786.227 571.023C795.193 569.101 806.081 569.742 811.846 578.708C813.767 582.551 814.407 586.394 813.767 589.597C819.745 588.743 825.509 587.889 831.06 587.035C829.138 556.292 807.362 522.347 775.339 529.392C743.955 539.64 742.034 579.989 755.484 607.53C760.608 605.395 765.945 603.26 771.496 601.125C769.574 598.563 768.293 594.72 768.293 590.237C768.293 579.989 777.26 573.585 786.227 571.023V571.023ZM943.783 571.023C952.75 573.585 961.717 579.989 961.717 590.237C961.717 594.72 960.436 598.563 958.514 601.125C964.065 603.26 969.402 605.395 974.526 607.53C987.976 579.989 986.055 539.64 954.671 529.392C922.648 522.347 900.872 556.292 898.95 587.035C904.501 587.889 910.265 588.743 916.243 589.597C915.602 586.394 916.243 582.551 918.164 578.708C923.929 569.742 934.817 569.101 943.783 571.023V571.023ZM1080.2 649.801C1086.61 656.846 1091.09 666.453 1085.97 675.42C1084.05 679.903 1080.84 681.825 1077.64 683.106C1081.49 687.803 1085.11 692.286 1088.53 696.556C1114.15 679.903 1132.72 643.396 1110.31 619.699C1086.61 597.282 1050.1 615.856 1033.45 641.475C1037.72 644.891 1042.2 648.52 1046.9 652.363C1048.18 649.161 1050.1 645.958 1054.59 644.037C1063.55 638.913 1073.16 643.396 1080.2 649.801V649.801ZM1158.98 786.222C1160.9 795.189 1160.26 806.077 1151.3 811.841C1147.45 813.763 1143.61 814.403 1140.41 813.763C1141.26 819.74 1142.12 825.505 1142.97 831.055C1173.71 829.134 1207.66 807.358 1200.61 775.334C1190.37 743.951 1150.02 742.029 1122.48 755.479C1124.61 760.603 1126.75 765.94 1128.88 771.491C1131.44 769.57 1135.29 768.289 1139.77 768.289C1150.02 768.289 1156.42 777.256 1158.98 786.222V786.222ZM1158.98 943.779C1156.42 952.746 1150.02 961.712 1139.77 961.712C1135.29 961.712 1131.44 960.431 1128.88 958.51C1126.75 964.061 1124.61 969.398 1122.48 974.522C1150.02 987.972 1190.37 986.05 1200.61 954.667C1207.66 922.643 1173.71 900.867 1142.97 898.946C1142.12 904.497 1141.26 910.261 1140.41 916.239C1143.61 915.598 1147.45 916.239 1151.3 918.16C1160.26 923.924 1160.9 934.812 1158.98 943.779V943.779ZM1080.2 1080.2C1073.16 1086.6 1063.55 1091.09 1054.59 1085.96C1050.1 1084.04 1048.18 1080.84 1046.9 1077.64C1042.2 1081.48 1037.72 1085.11 1033.45 1088.53C1050.1 1114.15 1086.61 1132.72 1110.31 1110.3C1132.72 1086.6 1114.15 1050.1 1088.53 1033.45C1085.11 1037.72 1081.49 1042.2 1077.64 1046.9C1080.84 1048.18 1084.05 1050.1 1085.97 1054.58C1091.09 1063.55 1086.61 1073.15 1080.2 1080.2V1080.2ZM943.783 1158.98C934.817 1160.9 923.929 1160.26 918.164 1151.29C916.243 1147.45 915.602 1143.61 916.243 1140.4C910.265 1141.26 904.501 1142.11 898.95 1142.97C900.872 1173.71 922.648 1207.65 954.671 1200.61C986.055 1190.36 987.976 1150.01 974.526 1122.47C969.402 1124.61 964.065 1126.74 958.514 1128.88C960.436 1131.44 961.717 1135.28 961.717 1139.76C961.717 1150.01 952.75 1156.42 943.783 1158.98V1158.98ZM786.227 1158.98C777.26 1156.42 768.293 1150.01 768.293 1139.76C768.293 1135.28 769.574 1131.44 771.496 1128.88C765.945 1126.74 760.608 1124.61 755.484 1122.47C742.034 1150.01 743.955 1190.36 775.339 1200.61C807.362 1207.65 829.138 1173.71 831.06 1142.97C825.509 1142.11 819.745 1141.26 813.767 1140.4C814.407 1143.61 813.767 1147.45 811.846 1151.29C806.081 1160.26 795.193 1160.9 786.227 1158.98V1158.98ZM649.805 1080.2C643.401 1073.15 638.917 1063.55 644.041 1054.58C645.963 1050.1 649.165 1048.18 652.367 1046.9C648.525 1042.2 644.895 1037.72 641.479 1033.45C615.86 1050.1 597.287 1086.6 619.703 1110.3C643.401 1132.72 679.908 1114.15 696.56 1088.53C692.29 1085.11 687.807 1081.48 683.11 1077.64C681.829 1080.84 679.908 1084.04 675.424 1085.96C666.458 1091.09 656.851 1086.6 649.805 1080.2V1080.2ZM571.027 943.779C569.106 934.812 569.746 923.924 578.713 918.16C582.556 916.239 586.399 915.598 589.601 916.239C588.747 910.261 587.893 904.497 587.039 898.946C556.296 900.867 522.351 922.643 529.396 954.667C539.644 986.05 579.994 987.972 607.534 974.522C605.399 969.398 603.264 964.061 601.129 958.51C598.568 960.431 594.725 961.712 590.241 961.712C579.994 961.712 573.589 952.746 571.027 943.779V943.779ZM571.027 786.222C573.589 777.256 579.994 768.289 590.241 768.289C594.725 768.289 598.568 769.57 601.129 771.491C603.264 765.94 605.399 760.603 607.534 755.479C579.994 742.029 539.644 743.951 529.396 775.334C522.351 807.358 556.296 829.134 587.039 831.055C587.893 825.505 588.747 819.74 589.601 813.763C586.399 814.403 582.556 813.763 578.713 811.841C569.746 806.077 569.106 795.189 571.027 786.222V786.222ZM649.805 649.801C656.851 643.396 666.458 638.913 675.424 644.037C679.908 645.958 681.829 649.161 683.11 652.363C687.807 648.52 692.29 644.891 696.56 641.475C679.908 615.856 643.401 597.282 619.703 619.699C597.287 643.396 615.86 679.903 641.479 696.556C644.895 692.286 648.525 687.803 652.367 683.106C649.165 681.825 645.963 679.903 644.041 675.42C638.917 666.453 643.401 656.846 649.805 649.801V649.801ZM791.35 590.877C791.991 590.237 792.631 590.237 793.272 589.597C792.418 589.597 791.777 589.81 791.35 590.237C790.496 590.237 789.856 590.45 789.429 590.877C790.069 590.877 790.71 590.877 791.35 590.877ZM938.66 590.877C939.3 590.877 939.94 590.877 940.581 590.877C940.154 590.45 939.513 590.237 938.66 590.237C938.233 589.81 937.592 589.597 936.738 589.597C937.379 590.237 938.019 590.237 938.66 590.877ZM1065.47 664.532C1066.75 664.532 1066.75 664.532 1067.39 665.173C1066.97 664.746 1066.54 664.319 1066.11 663.892C1065.69 663.465 1065.26 663.038 1064.83 662.611C1065.47 663.251 1065.47 663.251 1065.47 664.532V664.532ZM1139.13 791.346C1139.77 791.986 1139.77 792.627 1140.41 793.267C1140.41 792.413 1140.2 791.773 1139.77 791.346C1139.77 790.492 1139.56 789.852 1139.13 789.425C1139.13 790.065 1139.13 790.706 1139.13 791.346ZM1139.13 938.655C1139.13 939.296 1139.13 939.936 1139.13 940.577C1139.56 940.15 1139.77 939.509 1139.77 938.655C1140.2 938.228 1140.41 937.588 1140.41 936.734C1139.77 937.374 1139.77 938.015 1139.13 938.655ZM1065.47 1065.47C1065.47 1066.75 1065.47 1066.75 1064.83 1067.39C1065.26 1066.96 1065.69 1066.54 1066.11 1066.11C1066.54 1065.68 1066.97 1065.26 1067.39 1064.83C1066.75 1065.47 1066.75 1065.47 1065.47 1065.47V1065.47ZM938.66 1139.12C938.019 1139.76 937.379 1139.76 936.738 1140.4C937.592 1140.4 938.233 1140.19 938.66 1139.76C939.513 1139.76 940.154 1139.55 940.581 1139.12C939.94 1139.12 939.3 1139.12 938.66 1139.12ZM791.35 1139.12C790.71 1139.12 790.069 1139.12 789.429 1139.12C789.856 1139.55 790.496 1139.76 791.35 1139.76C791.777 1140.19 792.418 1140.4 793.272 1140.4C792.631 1139.76 791.991 1139.76 791.35 1139.12ZM664.536 1065.47C663.255 1065.47 663.255 1065.47 662.615 1064.83C663.042 1065.26 663.469 1065.68 663.896 1066.11C664.323 1066.54 664.75 1066.96 665.177 1067.39C664.536 1066.75 664.536 1066.75 664.536 1065.47V1065.47ZM590.882 938.655C590.241 938.015 590.241 937.374 589.601 936.734C589.601 937.588 589.814 938.228 590.241 938.655C590.241 939.509 590.455 940.15 590.882 940.577C590.882 939.936 590.882 939.296 590.882 938.655ZM590.882 791.346C590.882 790.706 590.882 790.065 590.882 789.425C590.455 789.852 590.241 790.492 590.241 791.346C589.814 791.773 589.601 792.413 589.601 793.267C590.241 792.627 590.241 791.986 590.882 791.346ZM664.536 664.532C664.536 663.251 664.536 663.251 665.177 662.611C664.75 663.038 664.323 663.465 663.896 663.892C663.469 664.319 663.042 664.746 662.615 665.173C663.255 664.532 663.255 664.532 664.536 664.532V664.532Z" stroke="white"/>
<path fill-rule="evenodd" clip-rule="evenodd" d="M804.158 638.274C814.833 635.285 825.294 633.15 835.541 631.869C836.182 631.229 836.823 631.869 836.823 631.869C837.463 631.869 838.103 631.229 838.103 631.229C847.07 630.375 856.037 629.948 865.003 629.948C873.97 629.948 882.937 630.375 891.903 631.229C891.903 631.229 892.544 631.869 893.184 631.869C893.184 631.869 893.825 631.229 894.465 631.869C904.713 633.15 915.174 635.285 925.848 638.274C936.096 640.836 946.344 644.252 956.591 648.521L957.232 649.162C957.872 649.162 958.513 649.162 958.513 649.162C966.625 653.005 974.738 657.061 982.851 661.331C990.536 666.028 997.795 670.938 1004.63 676.062C1005.27 676.062 1005.27 676.702 1005.91 676.702C1005.91 677.343 1006.55 677.343 1006.55 677.343C1015.09 684.175 1023.2 691.433 1030.89 699.119C1038.57 706.805 1045.83 714.917 1052.66 723.457C1052.66 723.457 1052.66 724.097 1053.3 724.097C1053.3 724.738 1053.94 724.738 1053.94 725.378C1059.07 732.21 1063.98 739.469 1068.67 747.155C1072.94 755.267 1077 763.38 1080.84 771.493C1080.84 771.493 1080.84 772.133 1080.84 772.774L1081.48 773.414C1085.75 783.662 1089.17 793.909 1091.73 804.157C1094.72 814.831 1096.86 825.292 1098.14 835.54C1098.78 836.181 1098.14 836.821 1098.14 836.821C1098.14 837.462 1098.78 838.102 1098.78 838.102C1099.63 847.069 1100.06 856.035 1100.06 865.002C1100.06 873.969 1099.63 882.935 1098.78 891.902C1098.78 891.902 1098.14 892.542 1098.14 893.183C1098.14 893.183 1098.78 893.823 1098.14 894.464C1096.86 904.711 1094.72 915.172 1091.73 925.847C1089.17 936.095 1085.75 946.342 1081.48 956.59L1080.84 957.23C1080.84 957.871 1080.84 958.511 1080.84 958.511C1077 966.624 1072.94 974.736 1068.67 982.849C1063.98 990.535 1059.07 997.794 1053.94 1004.63C1053.94 1005.27 1053.3 1005.27 1053.3 1005.91C1052.66 1005.91 1052.66 1006.55 1052.66 1006.55C1045.83 1015.09 1038.57 1023.2 1030.89 1030.88C1023.2 1038.57 1015.09 1045.83 1006.55 1052.66C1006.55 1052.66 1005.91 1052.66 1005.91 1053.3C1005.27 1053.3 1005.27 1053.94 1004.63 1053.94C997.795 1059.07 990.536 1063.98 982.851 1068.67C974.738 1072.94 966.625 1077 958.513 1080.84C958.513 1080.84 957.872 1080.84 957.232 1080.84L956.591 1081.48C946.344 1085.75 936.096 1089.17 925.848 1091.73C915.174 1094.72 904.713 1096.85 894.465 1098.13C893.825 1098.78 893.184 1098.13 893.184 1098.13C892.544 1098.13 891.903 1098.78 891.903 1098.78C882.937 1099.63 873.97 1100.06 865.003 1100.06C856.037 1100.06 847.07 1099.63 838.103 1098.78C838.103 1098.78 837.463 1098.13 836.823 1098.13C836.823 1098.13 836.182 1098.78 835.541 1098.13C825.294 1096.85 814.833 1094.72 804.158 1091.73C793.911 1089.17 783.663 1085.75 773.415 1081.48L772.775 1080.84C772.135 1080.84 771.494 1080.84 771.494 1080.84C763.381 1077 755.269 1072.94 747.156 1068.67C739.47 1063.98 732.212 1059.07 725.38 1053.94C724.739 1053.94 724.739 1053.3 724.099 1053.3C724.099 1052.66 723.458 1052.66 723.458 1052.66C714.919 1045.83 706.806 1038.57 699.12 1030.88C691.435 1023.2 684.176 1015.09 677.344 1006.55C677.344 1006.55 677.344 1005.91 676.704 1005.91C676.704 1005.27 676.063 1005.27 676.063 1004.63C670.94 997.794 666.029 990.535 661.332 982.849C657.063 974.736 653.006 966.624 649.163 958.511C649.163 958.511 649.163 957.871 649.163 957.23L648.523 956.59C644.253 946.342 640.837 936.095 638.275 925.847C635.287 915.172 633.152 904.711 631.871 894.464C631.23 893.823 631.871 893.183 631.871 893.183C631.871 892.542 631.23 891.902 631.23 891.902C630.376 882.935 629.949 873.969 629.949 865.002C629.949 856.035 630.376 847.069 631.23 838.102C631.23 838.102 631.871 837.462 631.871 836.821C631.871 836.821 631.23 836.181 631.871 835.54C633.152 825.292 635.287 814.831 638.275 804.157C640.837 793.909 644.253 783.662 648.523 773.414L649.163 772.774C649.163 772.133 649.163 771.493 649.163 771.493C653.006 763.38 657.063 755.267 661.332 747.155C666.029 739.469 670.94 732.21 676.063 725.378C676.063 724.738 676.704 724.738 676.704 724.097C677.344 724.097 677.344 723.457 677.344 723.457C684.176 714.917 691.435 706.805 699.12 699.119C706.806 691.433 714.919 684.175 723.458 677.343C723.458 677.343 724.099 677.343 724.099 676.702C724.739 676.702 724.739 676.062 725.38 676.062C732.212 670.938 739.47 666.028 747.156 661.331C755.269 657.061 763.381 653.005 771.494 649.162C771.494 649.162 772.135 649.162 772.775 649.162L773.415 648.521C783.663 644.252 793.911 640.836 804.158 638.274ZM865.003 703.602C838.103 701.04 828.496 670.298 838.744 651.083C828.923 652.364 819.103 654.286 809.282 656.848C799.461 659.41 790.068 662.612 781.101 666.455C799.034 677.983 806.08 709.367 784.304 724.738C759.325 736.267 736.268 714.49 734.987 692.714C727.301 699.119 719.829 705.737 712.57 712.569C705.739 719.828 699.12 727.3 692.716 734.986C714.492 736.266 736.268 759.324 724.739 784.302C709.368 806.078 677.985 799.033 666.456 781.1C662.613 790.066 659.411 799.46 656.849 809.281C654.287 819.101 652.366 828.922 651.085 838.742C670.299 828.495 701.042 838.102 703.604 865.002C701.042 891.902 670.299 901.509 651.085 891.261C652.366 901.082 654.287 910.903 656.849 920.723C659.411 930.544 662.613 939.937 666.456 948.904C677.985 930.971 709.368 923.926 724.739 945.702C736.268 970.68 714.492 993.737 692.716 995.018C699.12 1002.7 705.739 1010.18 712.57 1017.43C719.829 1024.27 727.301 1030.88 734.987 1037.29C736.268 1015.51 759.325 993.737 784.304 1005.27C806.08 1020.64 799.034 1052.02 781.101 1063.55C790.068 1067.39 799.461 1070.59 809.282 1073.16C819.103 1075.72 828.923 1077.64 838.744 1078.92C828.496 1059.71 838.103 1028.96 865.003 1026.4C891.903 1028.96 901.51 1059.71 891.263 1078.92C901.083 1077.64 910.904 1075.72 920.725 1073.16C930.545 1070.59 939.939 1067.39 948.906 1063.55C930.972 1052.02 923.927 1020.64 945.703 1005.27C970.682 993.737 993.739 1015.51 995.02 1037.29C1002.71 1030.88 1010.18 1024.27 1017.44 1017.43C1024.27 1010.18 1030.89 1002.7 1037.29 995.018C1015.51 993.737 993.739 970.68 1005.27 945.702C1020.64 923.926 1052.02 930.971 1063.55 948.904C1067.39 939.937 1070.6 930.544 1073.16 920.723C1075.72 910.903 1077.64 901.082 1078.92 891.261C1059.71 901.509 1028.96 891.902 1026.4 865.002C1028.96 838.102 1059.71 828.495 1078.92 838.742C1077.64 828.922 1075.72 819.101 1073.16 809.281C1070.6 799.46 1067.39 790.066 1063.55 781.1C1052.02 799.033 1020.64 806.078 1005.27 784.302C993.739 759.324 1015.51 736.266 1037.29 734.986C1030.89 727.3 1024.27 719.828 1017.44 712.569C1010.18 705.737 1002.71 699.119 995.02 692.714C993.739 714.49 970.682 736.267 945.703 724.738C923.927 709.367 930.972 677.983 948.906 666.455C939.939 662.612 930.545 659.41 920.725 656.848C910.904 654.286 901.083 652.364 891.263 651.083C901.51 670.298 891.903 701.04 865.003 703.602ZM865.003 654.286C848.991 654.926 850.913 685.029 865.003 683.748C879.094 685.029 881.015 654.926 865.003 654.286ZM970.041 682.467C955.951 675.421 942.501 702.321 955.31 708.086C955.31 708.086 955.524 708.086 955.951 708.086C966.839 716.412 984.132 691.433 970.682 682.467H970.041ZM1046.9 759.964C1038.57 746.514 1012.95 763.166 1021.28 774.695C1027.04 787.504 1053.94 774.055 1046.9 759.964ZM1075.08 865.002C1074.44 848.99 1044.34 850.911 1045.62 865.002C1044.34 879.092 1074.44 881.014 1075.08 865.002ZM1046.9 970.04C1054.58 955.949 1027.04 942.499 1021.28 955.309V955.949C1012.95 966.837 1038.57 984.13 1046.9 970.68C1046.9 970.68 1046.9 970.467 1046.9 970.04ZM970.041 1047.54C983.491 1038.57 966.839 1013.59 955.31 1021.92C955.31 1021.92 955.097 1021.92 954.67 1021.92C942.501 1027.68 955.951 1054.58 970.041 1047.54ZM864.363 1075.72C880.375 1075.08 878.453 1044.98 864.363 1046.26C850.272 1044.98 848.351 1075.08 864.363 1075.72ZM759.325 1047.54C773.416 1054.58 786.865 1027.68 774.056 1021.92C762.527 1013.59 745.875 1038.57 759.325 1047.54ZM682.468 970.04V970.68C690.794 984.13 715.773 966.837 707.447 955.309C701.682 942.499 674.782 955.949 682.468 970.04ZM654.287 865.002H653.647C654.287 881.014 685.03 879.092 683.749 865.002C685.03 850.911 654.287 848.99 653.647 865.002C654.074 865.002 654.287 865.002 654.287 865.002ZM682.468 759.964C674.782 774.055 701.682 787.504 707.447 774.695C715.773 763.166 690.794 746.514 682.468 759.964ZM759.325 682.467C745.875 691.433 762.527 716.412 774.056 708.086C786.865 702.321 773.416 675.421 759.325 682.467Z" stroke="white"/>
<path fill-rule="evenodd" clip-rule="evenodd" d="M823.375 710.005C823.375 710.005 823.589 710.005 824.015 710.005C826.577 709.364 828.499 710.005 831.061 711.286C843.87 718.331 855.399 724.095 865.006 733.062C874.613 724.095 886.142 718.331 898.951 711.286C901.513 710.005 903.434 709.364 905.996 710.005C906.423 710.005 906.637 710.005 906.637 710.005C906.637 710.005 906.85 710.005 907.277 710.005C909.199 711.286 911.12 711.926 912.401 714.488C920.087 727.938 927.132 738.186 930.975 750.995C943.784 747.793 955.953 748.433 971.325 748.433C974.527 749.074 976.448 749.714 977.729 750.995C978.156 750.995 978.37 751.209 978.37 751.636C978.797 751.636 979.01 751.849 979.01 752.276C980.291 753.557 980.932 755.478 981.572 758.681C981.572 774.052 982.213 786.221 979.01 799.031C991.82 802.873 1002.07 809.919 1015.52 817.604C1018.08 818.885 1018.72 820.807 1020 822.728C1020 823.155 1020 823.369 1020 823.369C1020 823.369 1020 823.582 1020 824.009C1020.64 826.571 1020 828.492 1018.72 831.054C1011.67 843.864 1005.91 855.392 996.944 864.999C1005.91 874.607 1011.67 886.135 1018.72 898.945C1020 901.507 1020.64 903.428 1020 905.99C1020 906.417 1020 906.63 1020 906.63C1020 906.63 1020 906.844 1020 907.271C1018.72 909.192 1018.08 911.114 1015.52 912.395C1002.07 920.08 991.82 927.126 979.01 930.968C982.213 943.778 981.572 955.947 981.572 971.318C980.932 974.521 980.291 976.442 979.01 977.723C979.01 978.15 978.797 978.363 978.37 978.363C978.37 978.79 978.156 979.004 977.729 979.004C976.448 980.285 974.527 980.925 971.325 981.566C955.953 981.566 943.784 982.206 930.975 979.004C927.132 991.813 920.087 1002.06 912.401 1015.51C911.12 1018.07 909.199 1018.71 907.277 1019.99C906.85 1019.99 906.637 1019.99 906.637 1019.99C906.637 1019.99 906.423 1019.99 905.996 1019.99C903.434 1020.63 901.513 1019.99 898.951 1018.71C886.142 1011.67 874.613 1005.9 865.006 996.937C855.399 1005.9 843.87 1011.67 831.061 1018.71C828.499 1019.99 826.577 1020.63 824.015 1019.99C823.589 1019.99 823.375 1019.99 823.375 1019.99C823.375 1019.99 823.161 1019.99 822.734 1019.99C820.813 1018.71 818.892 1018.07 817.611 1015.51C809.925 1002.06 802.88 991.813 799.037 979.004C786.227 982.206 774.058 981.566 758.687 981.566C755.485 980.925 753.563 980.285 752.282 979.004C751.855 979.004 751.642 978.79 751.642 978.363C751.215 978.363 751.001 978.15 751.001 977.723C749.72 976.442 749.08 974.521 748.439 971.318C748.439 955.947 747.799 943.778 751.001 930.968C738.192 927.126 727.944 920.08 714.494 912.395C711.932 911.114 711.292 909.192 710.011 907.271C710.011 906.844 710.011 906.63 710.011 906.63C710.011 906.63 710.011 906.417 710.011 905.99C709.371 903.428 710.011 901.507 711.292 898.945C718.337 886.135 724.101 874.607 733.068 864.999C724.101 855.392 718.337 843.864 711.292 831.054C710.011 828.492 709.371 826.571 710.011 824.009C710.011 823.582 710.011 823.369 710.011 823.369C710.011 823.369 710.011 823.155 710.011 822.728C711.292 820.807 711.932 818.885 714.494 817.604C727.944 809.919 738.192 802.873 751.001 799.031C747.799 786.221 748.439 774.052 748.439 758.681C749.08 755.478 749.72 753.557 751.001 752.276C751.001 751.849 751.215 751.636 751.642 751.636C751.642 751.209 751.855 750.995 752.282 750.995C753.563 749.714 755.485 749.074 758.687 748.433C774.058 748.433 786.227 747.793 799.037 750.995C802.88 738.186 809.925 727.938 817.611 714.488C818.892 711.926 820.813 711.286 822.734 710.005C823.161 710.005 823.375 710.005 823.375 710.005ZM865.006 757.4C861.803 757.4 858.601 755.478 856.68 752.916C848.994 742.669 839.387 737.545 829.78 732.421C829.353 732.421 829.139 732.421 829.139 732.421C823.375 742.028 817.611 750.995 816.33 763.805C815.689 767.007 813.768 770.209 811.206 771.49C808.644 773.412 804.801 773.412 801.599 772.131C790.07 767.007 779.182 767.647 768.294 767.647C768.294 768.074 768.294 768.288 768.294 768.288C768.294 768.288 768.081 768.288 767.654 768.288C767.654 779.176 767.013 790.064 772.137 801.593C773.418 804.795 773.418 808.638 771.497 811.2C770.216 813.762 767.013 815.683 763.811 816.323C751.001 817.604 742.035 823.369 732.428 829.133C732.428 829.133 732.428 829.346 732.428 829.773C737.551 839.381 742.675 848.988 752.923 856.673C755.485 858.595 757.406 861.797 757.406 864.999C757.406 868.202 755.485 871.404 752.923 873.326C742.675 881.011 737.551 890.618 732.428 900.226C732.428 900.653 732.428 900.866 732.428 900.866C742.035 906.63 751.001 912.395 763.811 913.676C767.013 914.316 770.216 916.237 771.497 918.799C773.418 921.361 773.418 925.204 772.137 928.406C767.013 939.935 767.654 950.823 767.654 961.711C768.081 961.711 768.294 961.711 768.294 961.711C768.294 961.711 768.294 961.925 768.294 962.352C779.182 962.352 790.07 962.992 801.599 957.868C804.801 956.587 808.644 956.587 811.206 958.509C813.768 959.79 815.689 962.992 816.33 966.194C817.611 978.363 823.375 987.971 829.139 997.578C829.139 997.578 829.353 997.578 829.78 997.578C839.387 992.454 848.994 987.33 856.68 977.083C858.601 974.521 861.803 972.599 865.006 972.599C868.208 972.599 871.411 974.521 873.332 977.083C881.018 987.33 890.625 992.454 900.232 997.578C900.659 997.578 900.872 997.578 900.872 997.578C906.637 987.971 912.401 978.363 913.682 966.194C914.322 962.992 916.244 959.79 918.806 958.509C921.368 956.587 925.21 956.587 928.413 957.868C939.941 962.992 950.829 962.352 961.718 962.352C961.718 961.925 961.718 961.711 961.718 961.711C961.718 961.711 961.931 961.711 962.358 961.711C962.358 950.823 962.998 939.935 957.875 928.406C956.594 925.204 956.594 921.361 958.515 918.799C959.796 916.237 962.998 914.316 966.201 913.676C978.37 912.395 987.977 906.63 997.584 900.866C997.584 900.866 997.584 900.653 997.584 900.226C992.46 890.618 987.336 881.011 977.089 873.326C974.527 871.404 972.606 868.202 972.606 864.999C972.606 861.797 974.527 858.595 977.089 856.673C987.336 848.988 992.46 839.381 997.584 829.773C997.584 829.346 997.584 829.133 997.584 829.133C987.977 823.369 978.37 817.604 966.201 816.323C962.998 815.683 959.796 813.762 958.515 811.2C956.594 808.638 956.594 804.795 957.875 801.593C962.998 790.064 962.358 779.176 962.358 768.288C961.931 768.288 961.718 768.288 961.718 768.288C961.718 768.288 961.718 768.074 961.718 767.647C950.829 767.647 939.941 767.007 928.413 772.131C925.21 773.412 921.368 773.412 918.806 771.49C916.244 770.209 914.322 767.007 913.682 763.805C912.401 750.995 906.637 742.028 900.872 732.421C900.872 732.421 900.659 732.421 900.232 732.421C890.625 737.545 881.018 742.669 873.332 752.916C871.411 755.478 868.208 757.4 865.006 757.4Z" stroke="white"/>
<path fill-rule="evenodd" clip-rule="evenodd" d="M837.458 761.244C838.098 761.244 838.098 761.244 837.458 761.244C843.222 759.323 852.829 762.525 854.11 768.93C854.11 771.065 854.11 772.773 854.11 774.054C857.526 773.627 861.155 773.2 864.998 772.773C868.841 773.2 872.47 773.627 875.886 774.054C875.886 772.773 875.886 771.065 875.886 768.93C877.167 762.525 886.774 759.323 892.539 761.244C891.898 761.244 891.898 761.244 892.539 761.244C893.179 761.244 893.819 761.885 893.179 761.885C898.943 763.166 905.989 770.211 903.427 776.616C902.573 778.323 901.932 779.818 901.505 781.099C904.494 782.38 907.696 783.874 911.112 785.582C914.101 787.29 916.877 789.212 919.438 791.347C920.292 790.066 921.36 788.785 922.641 787.504C926.484 782.38 936.091 784.301 940.574 788.785C939.934 788.144 940.574 788.785 940.574 789.425C941.215 789.425 941.855 790.066 941.215 789.425C945.698 793.908 947.619 803.516 942.496 807.358C941.215 808.639 939.934 809.707 938.653 810.561C940.788 813.123 942.709 815.898 944.417 818.887C946.125 822.303 947.619 825.505 948.9 828.494C950.181 828.067 951.676 827.427 953.384 826.573C959.788 824.011 966.834 831.056 968.115 836.82C968.115 836.18 968.755 836.82 968.755 837.461C968.755 838.101 968.755 838.101 968.755 837.461C970.676 843.225 967.474 852.832 961.069 854.113C958.934 854.113 957.226 854.113 955.946 854.113C956.372 857.529 956.799 861.158 957.226 865.001C956.799 868.844 956.372 872.473 955.946 875.889C957.226 875.889 958.934 875.889 961.069 875.889C967.474 877.17 970.676 886.777 968.755 892.541C968.755 891.901 968.755 891.901 968.755 892.541C968.755 893.182 968.115 893.822 968.115 893.182C966.834 898.946 959.788 905.991 953.384 903.43C951.676 902.576 950.181 901.935 948.9 901.508C947.619 904.497 946.125 907.699 944.417 911.115C942.709 914.104 940.788 916.88 938.653 919.441C939.934 920.295 941.215 921.363 942.496 922.644C947.619 926.487 945.698 936.094 941.215 940.577C941.855 939.937 941.215 940.577 940.574 940.577C940.574 941.218 939.934 941.858 940.574 941.218C936.091 945.701 926.484 947.622 922.641 942.499C921.36 941.218 920.292 939.937 919.438 938.656C916.877 940.791 914.101 942.712 911.112 944.42C907.696 946.128 904.494 947.622 901.505 948.903C901.932 950.184 902.573 951.679 903.427 953.387C905.989 959.791 898.943 966.837 893.179 968.117C893.819 968.117 893.179 968.758 892.539 968.758C891.898 968.758 891.898 968.758 892.539 968.758C886.774 970.679 877.167 967.477 875.886 961.072C875.886 958.937 875.886 957.229 875.886 955.948C872.47 956.375 868.841 956.802 864.998 957.229C861.155 956.802 857.526 956.375 854.11 955.948C854.11 957.229 854.11 958.937 854.11 961.072C852.829 967.477 843.222 970.679 837.458 968.758C838.098 968.758 838.098 968.758 837.458 968.758C836.817 968.758 836.177 968.117 836.817 968.117C831.053 966.837 824.008 959.791 826.57 953.387C827.424 951.679 828.064 950.184 828.491 948.903C825.502 947.622 822.3 946.128 818.884 944.42C815.895 942.712 813.12 940.791 810.558 938.656C809.704 939.937 808.636 941.218 807.355 942.499C803.513 947.622 793.905 945.701 789.422 941.218C790.063 941.858 789.422 941.218 789.422 940.577C788.782 940.577 788.141 939.937 788.782 940.577C784.298 936.094 782.377 926.487 787.501 922.644C788.782 921.363 790.063 920.295 791.344 919.441C789.209 916.88 787.287 914.104 785.579 911.115C783.871 907.699 782.377 904.497 781.096 901.508C779.815 901.935 778.321 902.576 776.613 903.43C770.208 905.991 763.163 898.946 761.882 893.182C761.882 893.822 761.241 893.182 761.241 892.541C761.241 891.901 761.241 891.901 761.241 892.541C759.32 886.777 762.522 877.17 768.927 875.889C771.062 875.889 772.77 875.889 774.051 875.889C773.624 872.473 773.197 868.844 772.77 865.001C773.197 861.158 773.624 857.529 774.051 854.113C772.77 854.113 771.062 854.113 768.927 854.113C762.522 852.832 759.32 843.225 761.241 837.461C761.241 838.101 761.241 838.101 761.241 837.461C761.241 836.82 761.882 836.18 761.882 836.82C763.163 831.056 770.208 824.011 776.613 826.573C778.321 827.427 779.815 828.067 781.096 828.494C782.377 825.505 783.871 822.303 785.579 818.887C787.287 815.898 789.209 813.123 791.344 810.561C790.063 809.707 788.782 808.639 787.501 807.358C782.377 803.516 784.298 793.908 788.782 789.425C788.141 790.066 788.782 789.425 789.422 789.425C789.422 788.785 790.063 788.144 789.422 788.785C793.905 784.301 803.513 782.38 807.355 787.504C808.636 788.785 809.704 790.066 810.558 791.347C813.12 789.212 815.895 787.29 818.884 785.582C822.3 783.874 825.502 782.38 828.491 781.099C828.064 779.818 827.424 778.323 826.57 776.616C824.008 770.211 831.053 763.166 836.817 761.885C836.177 761.885 836.817 761.244 837.458 761.244ZM864.998 791.987C859.02 792.414 852.829 793.695 846.424 795.83C839.593 797.111 833.615 799.032 828.491 801.594C823.794 805.01 819.098 809.28 814.401 814.404C809.277 819.1 805.007 823.797 801.591 828.494C799.029 833.618 797.108 839.596 795.827 846.427C793.692 852.832 792.411 859.023 791.984 865.001C792.411 870.979 793.692 877.17 795.827 883.575C797.108 890.407 799.029 896.384 801.591 901.508C805.007 906.205 809.277 910.902 814.401 915.599C819.098 920.722 823.794 924.992 828.491 928.408C833.615 930.97 839.593 932.891 846.424 934.172C852.829 936.307 859.02 937.588 864.998 938.015C870.976 937.588 877.167 936.307 883.572 934.172C890.404 932.891 896.381 930.97 901.505 928.408C906.202 924.992 910.899 920.722 915.596 915.599C920.719 910.902 924.989 906.205 928.405 901.508C930.967 896.384 932.888 890.407 934.169 883.575C936.304 877.17 937.585 870.979 938.012 865.001C937.585 859.023 936.304 852.832 934.169 846.427C932.888 839.596 930.967 833.618 928.405 828.494C924.989 823.797 920.719 819.1 915.596 814.404C910.899 809.28 906.202 805.01 901.505 801.594C896.381 799.032 890.404 797.111 883.572 795.83C877.167 793.695 870.976 792.414 864.998 791.987Z" stroke="white"/>
<path fill-rule="evenodd" clip-rule="evenodd" d="M865.006 361.586C829.14 360.946 793.273 345.574 805.442 303.943C813.128 279.605 832.983 227.086 865.006 227.086C897.03 227.086 916.885 279.605 924.571 303.943C936.74 345.574 900.873 360.946 865.006 361.586ZM1116.71 429.476C1085.97 410.262 1062.27 379.519 1094.3 349.417C1112.87 332.124 1156.42 296.898 1183.96 312.91C1211.5 328.922 1202.54 384.003 1196.77 408.981C1186.52 451.253 1148.1 446.129 1116.71 429.476ZM1301.17 613.293C1301.17 613.293 1300.96 613.293 1300.53 613.293C1283.88 581.909 1278.75 543.481 1321.02 533.233C1346 527.469 1401.08 518.502 1417.1 546.043C1433.11 573.583 1397.88 617.135 1380.59 635.709C1350.49 667.733 1319.74 644.035 1301.17 613.293ZM1368.42 864.999C1369.06 829.132 1384.43 793.266 1426.06 805.435C1450.4 813.121 1502.92 832.975 1502.92 864.999C1502.92 897.023 1450.4 916.877 1426.06 924.563C1384.43 936.732 1369.06 900.866 1368.42 864.999ZM1301.17 1116.71C1319.74 1085.96 1350.49 1062.27 1380.59 1094.29C1397.88 1112.86 1433.11 1156.41 1417.1 1183.96C1401.08 1211.5 1346 1202.53 1321.02 1196.76C1278.75 1186.52 1283.88 1148.09 1300.53 1116.71C1300.96 1116.71 1301.17 1116.71 1301.17 1116.71ZM1116.71 1300.52C1148.1 1283.87 1186.52 1278.75 1196.77 1321.02C1203.18 1346 1211.5 1401.08 1183.96 1417.09C1156.42 1433.1 1112.87 1397.87 1094.3 1380.58C1062.91 1350.48 1085.97 1319.74 1116.71 1300.52ZM865.006 1368.41C900.873 1369.05 936.74 1384.42 924.571 1426.05C916.885 1450.39 897.03 1502.91 865.006 1502.91C832.983 1502.91 813.128 1450.39 806.083 1426.05C793.273 1384.42 829.14 1369.05 865.006 1368.41ZM613.3 1300.52C644.043 1319.74 667.74 1350.48 636.357 1380.58C617.783 1397.87 574.231 1433.1 546.05 1417.09C518.51 1401.08 527.476 1346 533.241 1321.02C543.488 1278.75 581.917 1283.87 613.3 1300.52ZM429.484 1116.71C446.136 1148.09 451.26 1186.52 408.989 1196.76C384.01 1202.53 328.929 1211.5 312.917 1183.96C296.906 1156.41 332.132 1112.86 350.065 1094.29C379.527 1062.27 410.27 1085.96 429.484 1116.71ZM361.594 864.999C360.953 900.866 346.222 936.732 304.591 924.563C279.613 916.877 227.734 897.023 227.734 864.999C227.734 832.975 279.613 813.121 304.591 805.435C346.222 793.266 360.953 829.132 361.594 864.999ZM429.484 613.293C410.27 644.035 379.527 667.733 350.065 635.709C332.132 617.135 296.906 573.583 312.917 546.043C328.929 518.502 384.01 527.469 408.989 533.233C451.26 543.481 446.136 581.909 429.484 613.293ZM613.3 429.476C581.917 446.129 543.488 451.253 533.241 408.981C527.476 384.003 518.51 328.922 546.05 312.91C573.591 296.898 617.783 332.124 636.357 349.417C667.74 379.519 644.043 410.262 613.3 429.476ZM865.006 241.817C863.299 242.244 861.377 243.098 859.242 244.379C840.668 257.189 827.859 281.527 821.454 302.662C817.611 314.191 812.488 332.124 827.859 339.169C832.983 341.091 837.466 342.372 842.59 343.653C840.668 340.45 839.388 335.967 840.028 330.843C841.309 319.315 853.478 309.067 865.006 309.067C876.535 309.067 889.344 319.315 889.985 330.843C890.625 335.967 889.344 340.45 887.423 343.653C892.547 342.372 897.671 341.091 902.794 339.169C917.525 332.124 912.402 314.191 908.559 302.662C902.794 281.527 889.344 257.189 870.771 244.379C869.063 243.098 867.141 242.244 865.006 241.817ZM1176.28 325.72C1174.57 324.866 1172.65 324.439 1170.51 324.439C1148.1 326.36 1124.4 341.091 1108.39 356.462C1099.42 364.788 1085.97 377.598 1095.58 391.048C1098.78 394.891 1102.62 398.734 1106.47 402.576C1106.47 398.093 1107.75 394.25 1110.31 389.767C1117.35 380.16 1133.37 377.598 1142.97 383.362C1153.22 389.126 1158.98 404.498 1153.86 414.745C1151.94 419.229 1148.74 423.072 1144.89 424.993C1150.02 426.274 1155.14 427.555 1160.27 428.195C1176.92 429.476 1181.4 411.543 1183.96 400.015C1189.09 378.238 1190.37 350.698 1180.76 330.203C1179.48 328.068 1177.99 326.573 1176.28 325.72V325.72ZM1404.29 553.728C1403.43 552.02 1401.94 550.526 1399.8 549.245C1379.31 539.638 1351.77 540.919 1329.99 546.043C1318.46 548.605 1300.53 553.088 1301.81 569.74C1302.45 574.864 1303.73 579.988 1305.01 585.112C1306.93 581.269 1310.78 578.066 1315.26 576.145C1325.51 571.021 1340.88 577.426 1346.64 587.033C1352.41 596.64 1349.85 613.293 1340.24 619.697C1335.76 622.259 1331.91 624.181 1327.43 623.54C1331.27 627.383 1335.11 631.226 1338.96 634.428C1352.41 644.035 1365.22 630.585 1373.54 621.619C1388.91 605.607 1403.65 581.909 1405.57 559.493C1405.57 557.358 1405.14 555.436 1404.29 553.728V553.728ZM1488.19 864.999C1487.76 862.864 1486.91 860.943 1485.63 859.235C1473.46 840.661 1448.48 827.851 1427.34 821.447C1415.81 817.604 1397.88 812.48 1390.84 827.851C1388.91 832.335 1387.63 837.459 1386.35 842.582C1389.56 840.661 1394.04 839.38 1399.16 840.021C1410.69 840.661 1420.94 853.47 1420.94 864.999C1420.94 876.528 1410.69 889.337 1399.16 889.977C1394.04 890.618 1389.56 889.337 1386.35 887.416C1387.63 892.539 1388.91 897.023 1390.84 902.147C1397.88 917.518 1415.81 912.394 1427.34 908.551C1448.48 902.147 1473.46 889.337 1485.63 870.763C1486.91 869.055 1487.76 867.134 1488.19 864.999ZM1404.29 1176.27C1405.14 1174.56 1405.57 1172.64 1405.57 1170.51C1403.65 1148.09 1388.91 1124.39 1373.54 1108.38C1365.22 1099.41 1352.41 1085.96 1338.96 1095.57C1335.11 1098.77 1331.27 1102.62 1327.43 1106.46C1331.91 1105.82 1335.76 1107.74 1340.24 1110.3C1349.85 1116.71 1352.41 1133.36 1346.64 1142.96C1340.88 1152.57 1325.51 1158.34 1315.26 1153.85C1310.78 1151.93 1306.93 1148.73 1305.01 1144.89C1303.73 1150.01 1302.45 1155.13 1301.81 1160.26C1300.53 1176.91 1318.46 1181.39 1329.99 1183.96C1351.77 1189.08 1379.31 1190.36 1399.8 1180.11C1401.94 1179.26 1403.43 1177.98 1404.29 1176.27V1176.27ZM1176.28 1404.28C1177.99 1403.42 1179.48 1401.93 1180.76 1399.8C1190.37 1379.3 1189.09 1351.76 1183.96 1329.98C1181.4 1318.46 1176.92 1299.88 1160.27 1301.8C1155.14 1302.44 1150.02 1303.72 1144.89 1305.01C1148.74 1306.93 1151.94 1310.13 1153.86 1315.25C1158.98 1325.5 1153.22 1340.87 1142.97 1346.64C1133.37 1352.4 1117.35 1349.84 1110.31 1340.23C1107.75 1335.75 1106.47 1331.26 1106.47 1327.42C1102.62 1331.26 1098.78 1334.47 1095.58 1338.95C1085.97 1352.4 1099.42 1365.21 1108.39 1373.54C1124.4 1388.91 1148.1 1403.64 1170.51 1405.56C1172.65 1405.56 1174.57 1405.13 1176.28 1404.28V1404.28ZM865.006 1488.18C867.141 1487.75 869.063 1486.9 870.771 1485.62C889.344 1472.81 902.794 1448.47 908.559 1426.7C912.402 1415.81 917.525 1397.87 902.794 1390.83C897.671 1388.91 892.547 1386.99 887.423 1385.7C889.344 1389.55 890.625 1394.03 889.985 1399.15C889.344 1410.68 876.535 1420.93 865.006 1420.93C853.478 1420.93 841.309 1410.68 840.028 1399.15C839.388 1394.03 840.668 1389.55 842.59 1385.7C837.466 1386.99 832.983 1388.91 827.859 1390.83C812.488 1397.87 817.611 1415.81 821.454 1426.7C827.859 1448.47 840.668 1472.81 859.242 1485.62C861.377 1486.9 863.299 1487.75 865.006 1488.18ZM553.736 1404.28C555.444 1405.13 557.365 1405.56 559.5 1405.56C581.917 1403.64 605.614 1388.91 622.267 1373.54C630.593 1365.21 644.043 1352.4 634.436 1338.95C631.233 1334.47 627.39 1331.26 624.188 1327.42C624.188 1331.26 622.907 1335.75 619.705 1340.23C613.3 1349.84 596.648 1352.4 587.041 1346.64C577.433 1340.87 571.669 1325.5 576.152 1315.25C578.714 1310.13 581.276 1306.93 585.119 1305.01C579.995 1303.72 574.871 1302.44 569.748 1301.8C553.736 1299.88 548.612 1318.46 546.05 1329.98C540.926 1351.76 539.645 1379.3 549.893 1399.8C550.747 1401.93 552.028 1403.42 553.736 1404.28V1404.28ZM325.727 1176.27C326.581 1177.98 328.075 1179.26 330.21 1180.11C350.705 1190.36 378.246 1189.08 400.022 1183.96C412.191 1181.39 430.124 1176.91 428.203 1160.26C427.562 1155.13 426.281 1150.01 425.001 1144.89C423.079 1148.73 419.877 1151.93 414.753 1153.85C404.505 1158.34 389.134 1152.57 383.37 1142.96C377.605 1133.36 380.808 1116.71 389.774 1110.3C394.258 1107.74 398.741 1105.82 402.584 1106.46C398.741 1102.62 395.539 1098.77 391.055 1095.57C377.605 1085.96 364.796 1099.41 356.47 1108.38C341.098 1124.39 326.367 1148.09 324.446 1170.51C324.446 1172.64 324.873 1174.56 325.727 1176.27V1176.27ZM241.825 864.999C242.252 867.134 243.106 869.055 244.387 870.763C257.196 889.337 281.534 902.147 303.31 908.551C314.839 912.394 332.132 917.518 339.177 902.147C341.098 897.023 343.02 892.539 344.301 887.416C340.458 889.337 335.975 890.618 330.851 889.977C319.322 889.337 309.075 876.528 309.075 864.999C309.075 853.47 319.322 840.661 330.851 840.021C335.975 839.38 340.458 840.661 344.301 842.582C343.02 837.459 341.098 832.335 339.177 827.851C332.132 812.48 314.839 817.604 303.31 821.447C281.534 827.851 257.196 840.661 244.387 859.235C243.106 860.943 242.252 862.864 241.825 864.999ZM325.727 553.728C324.873 555.436 324.446 557.358 324.446 559.493C326.367 581.909 341.098 605.607 356.47 621.619C364.796 630.585 377.605 644.035 391.055 634.428C395.539 631.226 398.741 627.383 402.584 623.54C398.741 624.181 394.258 622.259 389.774 619.697C380.808 613.293 377.605 596.64 383.37 587.033C389.134 577.426 404.505 571.021 414.753 576.145C419.877 578.066 423.079 581.269 425.001 585.112C426.281 579.988 427.562 574.864 428.203 569.74C430.124 553.088 412.191 548.605 400.022 546.043C378.246 540.919 350.705 539.638 330.21 549.245C328.075 550.526 326.581 552.02 325.727 553.728V553.728ZM553.736 325.72C552.028 326.573 550.747 328.068 549.893 330.203C539.645 350.698 540.926 378.238 546.05 400.015C548.612 411.543 553.736 429.476 569.748 428.195C574.871 427.555 579.995 426.274 585.119 424.993C581.276 423.072 578.714 419.229 576.152 414.745C571.669 404.498 577.433 389.126 587.041 383.362C596.648 377.598 613.3 380.16 619.705 389.767C622.907 394.25 624.188 398.093 624.188 402.576C627.39 398.734 631.233 394.891 634.436 391.048C644.043 377.598 630.593 364.788 622.267 356.462C605.614 341.091 581.917 326.36 559.5 324.439C557.365 324.439 555.444 324.866 553.736 325.72V325.72ZM865.006 323.798C865.006 323.798 864.793 323.798 864.366 323.798C860.523 325.079 854.118 327.641 854.118 332.765C854.759 339.169 859.883 341.091 865.006 341.731C870.13 341.091 875.254 339.169 875.895 332.765C875.895 327.641 869.49 325.079 865.647 323.798C865.647 323.798 865.433 323.798 865.006 323.798ZM1135.93 396.172C1135.5 396.172 1135.29 396.172 1135.29 396.172C1131.44 395.531 1123.76 394.25 1121.84 398.734C1119.27 404.498 1122.48 408.341 1126.96 411.543C1131.44 413.464 1136.57 414.745 1140.41 409.622C1142.97 405.138 1138.49 399.374 1136.57 396.812C1136.14 396.385 1135.93 396.172 1135.93 396.172V396.172ZM1333.83 594.078C1333.83 594.078 1333.62 594.078 1333.19 594.078C1330.63 591.516 1324.87 587.033 1320.38 589.595C1315.26 593.438 1316.54 598.562 1318.46 603.045C1321.66 607.528 1325.51 610.731 1331.27 608.169C1335.76 606.247 1335.11 598.562 1333.83 594.719C1333.83 594.719 1333.83 594.505 1333.83 594.078V594.078ZM1406.21 864.999C1406.21 864.572 1406.21 864.359 1406.21 864.359C1404.93 860.516 1402.36 854.111 1397.24 854.111C1390.84 854.751 1389.56 859.875 1388.27 864.999C1389.56 870.123 1390.84 875.247 1397.24 875.887C1402.36 875.887 1404.93 869.482 1406.21 865.64C1406.21 865.64 1406.21 865.426 1406.21 864.999ZM1333.83 1135.92C1333.83 1135.49 1333.83 1135.28 1333.83 1135.28C1335.11 1131.44 1335.76 1123.75 1331.27 1121.83C1325.51 1119.27 1321.66 1122.47 1318.46 1126.31C1318.46 1126.74 1318.46 1126.95 1318.46 1126.95C1316.54 1131.44 1315.26 1136.56 1320.38 1140.4C1324.87 1142.97 1330.63 1138.48 1333.19 1135.92C1333.62 1135.92 1333.83 1135.92 1333.83 1135.92V1135.92ZM1135.93 1333.83C1135.93 1333.83 1136.14 1333.61 1136.57 1333.19C1138.49 1330.62 1142.97 1324.86 1140.41 1320.38C1136.57 1315.25 1131.44 1316.53 1126.96 1318.45C1122.48 1321.66 1119.27 1325.5 1121.84 1331.26C1123.76 1335.75 1131.44 1334.47 1135.29 1333.83C1135.29 1333.83 1135.5 1333.83 1135.93 1333.83V1333.83ZM865.006 1406.2C865.433 1406.2 865.647 1406.2 865.647 1406.2C869.49 1404.92 875.895 1402.36 875.895 1397.23C875.254 1390.83 870.13 1388.91 865.006 1388.27C859.883 1388.91 854.759 1390.83 854.118 1397.23C854.118 1402.36 860.523 1404.92 864.366 1406.2C864.793 1406.2 865.006 1406.2 865.006 1406.2ZM594.726 1333.83C594.726 1333.83 594.94 1333.83 595.367 1333.83C598.569 1334.47 606.255 1335.75 608.176 1331.26C610.738 1325.5 607.536 1321.66 603.693 1318.45C603.693 1318.45 603.479 1318.45 603.052 1318.45C598.569 1316.53 593.445 1315.25 589.602 1320.38C587.041 1324.86 591.524 1330.62 594.086 1333.19C594.086 1333.61 594.299 1333.83 594.726 1333.83V1333.83ZM396.179 1135.92C396.179 1135.92 396.393 1135.92 396.82 1135.92C399.382 1138.48 405.146 1142.97 409.629 1140.4C414.753 1136.56 413.472 1131.44 411.551 1126.95V1126.31C408.348 1122.47 404.505 1119.27 398.741 1121.83C394.258 1123.75 395.539 1131.44 396.179 1135.28C396.179 1135.28 396.179 1135.49 396.179 1135.92ZM323.806 864.999C323.806 865.426 323.806 865.64 323.806 865.64C325.086 869.482 327.648 875.887 332.772 875.887C339.177 875.247 341.098 870.123 341.739 864.999C341.098 859.875 339.177 854.751 332.772 854.111C327.648 854.111 325.086 860.516 323.806 864.359C323.806 864.359 323.806 864.572 323.806 864.999ZM396.179 594.078C396.179 594.505 396.179 594.719 396.179 594.719C395.539 598.562 394.258 606.247 398.741 608.169C404.505 610.731 408.348 607.528 411.551 603.045C413.472 598.562 414.753 593.438 409.629 589.595C405.146 587.033 399.382 591.516 396.82 594.078C396.393 594.078 396.179 594.078 396.179 594.078V594.078ZM594.726 396.172C594.299 396.172 594.086 396.385 594.086 396.812C591.524 399.374 587.041 405.138 589.602 409.622C593.445 414.745 598.569 413.464 603.052 411.543C603.479 411.543 603.693 411.543 603.693 411.543C607.536 408.341 610.738 404.498 608.176 398.734C606.255 394.25 598.569 395.531 595.367 396.172C594.94 396.172 594.726 396.172 594.726 396.172Z" stroke="white"/>
<path fill-rule="evenodd" clip-rule="evenodd" d="M851.554 814.403C851.981 814.403 852.621 814.403 853.475 814.403C853.902 814.403 854.543 814.403 855.397 814.403C855.397 814.403 856.037 814.403 856.678 814.403C859.88 815.044 862.442 815.684 865.004 815.684C867.566 815.684 870.128 815.044 873.33 814.403C873.97 814.403 874.611 814.403 874.611 814.403C875.465 814.403 876.105 814.403 876.532 814.403C877.386 814.403 878.027 814.403 878.454 814.403C878.881 814.403 879.521 814.617 880.375 815.044C880.802 815.471 881.229 815.898 881.656 816.325C882.297 816.325 882.937 816.325 882.937 816.965C885.499 819.527 887.42 820.808 889.982 822.089C891.904 823.37 894.466 824.651 897.668 825.291C898.308 825.291 898.308 825.932 898.949 825.932C899.376 826.359 900.016 826.572 900.87 826.572C901.297 826.999 901.724 827.426 902.151 827.853C902.578 828.28 903.005 828.707 903.432 829.134C903.432 829.988 903.646 830.629 904.073 831.056C904.073 831.696 904.713 831.696 904.713 832.337C905.354 835.539 906.635 838.101 907.915 840.022C909.196 842.584 910.477 844.506 913.039 847.067C913.68 847.067 913.68 847.708 913.68 848.348C914.107 848.775 914.534 849.202 914.961 849.629C915.388 850.483 915.601 851.124 915.601 851.551C915.601 851.978 915.601 852.618 915.601 853.472C915.601 853.899 915.601 854.54 915.601 855.394C915.601 855.394 915.601 856.034 915.601 856.675C914.961 859.877 914.32 862.439 914.32 865.001C914.32 867.563 914.961 870.125 915.601 873.327C915.601 873.967 915.601 874.608 915.601 874.608C915.601 875.462 915.601 876.102 915.601 876.529C915.601 877.383 915.601 878.024 915.601 878.451C915.601 878.878 915.388 879.518 914.961 880.372C914.534 880.799 914.107 881.226 913.68 881.653C913.68 882.294 913.68 882.934 913.039 882.934C910.477 885.496 909.196 887.417 907.915 889.979C906.635 891.901 905.354 894.463 904.713 897.665C904.713 898.305 904.073 898.305 904.073 898.946C903.646 899.373 903.432 900.013 903.432 900.867C903.005 901.294 902.578 901.721 902.151 902.148C901.724 902.575 901.297 903.002 900.87 903.429C900.016 903.429 899.376 903.643 898.949 904.07C898.308 904.07 898.308 904.71 897.668 904.71C894.466 905.351 891.904 906.632 889.982 907.913C887.42 909.193 885.499 910.474 882.937 913.036C882.937 913.677 882.297 913.677 881.656 913.677C881.229 914.104 880.802 914.531 880.375 914.958C879.521 915.385 878.881 915.598 878.454 915.598C878.027 915.598 877.386 915.598 876.532 915.598C876.105 915.598 875.465 915.598 874.611 915.598C874.611 915.598 873.97 915.598 873.33 915.598C870.128 914.958 867.566 914.317 865.004 914.317C862.442 914.317 859.88 914.958 856.678 915.598C856.037 915.598 855.397 915.598 855.397 915.598C854.543 915.598 853.902 915.598 853.475 915.598C852.621 915.598 851.981 915.598 851.554 915.598C851.127 915.598 850.486 915.385 849.632 914.958C849.205 914.531 848.778 914.104 848.351 913.677C847.711 913.677 847.07 913.677 847.07 913.036C844.508 910.474 842.587 909.193 840.025 907.913C838.104 906.632 835.542 905.351 832.339 904.71C831.699 904.71 831.699 904.07 831.059 904.07C830.632 903.643 829.991 903.429 829.137 903.429C828.71 903.002 828.283 902.575 827.856 902.148C827.429 901.721 827.002 901.294 826.575 900.867C826.575 900.013 826.362 899.373 825.935 898.946C825.935 898.305 825.294 898.305 825.294 897.665C824.654 894.463 823.373 891.901 822.092 889.979C820.811 887.417 819.53 885.496 816.968 882.934C816.328 882.934 816.328 882.294 816.328 881.653C815.901 881.226 815.474 880.799 815.047 880.372C814.62 879.518 814.406 878.878 814.406 878.451C814.406 878.024 814.406 877.383 814.406 876.529C814.406 876.102 814.406 875.462 814.406 874.608C814.406 874.608 814.406 873.967 814.406 873.327C815.047 870.125 815.687 867.563 815.687 865.001C815.687 862.439 815.047 859.877 814.406 856.675C814.406 856.034 814.406 855.394 814.406 855.394C814.406 854.54 814.406 853.899 814.406 853.472C814.406 852.618 814.406 851.978 814.406 851.551C814.406 851.124 814.62 850.483 815.047 849.629C815.474 849.202 815.901 848.775 816.328 848.348C816.328 847.708 816.328 847.067 816.968 847.067C819.53 844.506 820.811 842.584 822.092 840.022C823.373 838.101 824.654 835.539 825.294 832.337C825.294 831.696 825.935 831.696 825.935 831.056C826.362 830.629 826.575 829.988 826.575 829.134C827.002 828.707 827.429 828.28 827.856 827.853C828.283 827.426 828.71 826.999 829.137 826.572C829.991 826.572 830.632 826.359 831.059 825.932C831.699 825.932 831.699 825.291 832.339 825.291C835.542 824.651 838.104 823.37 840.025 822.089C842.587 820.808 844.508 819.527 847.07 816.965C847.07 816.325 847.711 816.325 848.351 816.325C848.778 815.898 849.205 815.471 849.632 815.044C850.486 814.617 851.127 814.403 851.554 814.403ZM865.004 835.539C862.442 835.539 859.88 835.539 856.678 834.898C854.756 836.82 852.194 838.101 850.273 839.382C848.351 840.663 845.789 841.944 842.587 842.584C841.947 845.787 840.666 848.348 839.385 850.27C838.104 852.191 836.823 854.753 834.901 856.675C835.542 859.877 835.542 862.439 835.542 865.001C835.542 867.563 835.542 870.125 834.901 873.327C836.823 875.248 838.104 877.81 839.385 879.732C840.666 881.653 841.947 884.215 842.587 887.417C845.789 888.058 848.351 889.339 850.273 890.62C852.194 891.901 854.756 893.182 856.678 895.103C859.88 895.103 862.442 894.463 865.004 894.463C867.566 894.463 870.128 895.103 873.33 895.103C875.251 893.182 877.813 891.901 879.735 890.62C881.656 889.339 884.218 888.058 887.42 887.417C888.061 884.215 889.342 881.653 890.623 879.732C891.904 877.81 893.185 875.248 895.106 873.327C895.106 870.125 894.466 867.563 894.466 865.001C894.466 862.439 895.106 859.877 895.106 856.675C893.185 854.753 891.904 852.191 890.623 850.27C889.342 848.348 888.061 845.787 887.42 842.584C884.218 841.944 881.656 840.663 879.735 839.382C877.813 838.101 875.251 836.82 873.33 834.898C870.128 835.539 867.566 835.539 865.004 835.539Z" stroke="white"/>
<path fill-rule="evenodd" clip-rule="evenodd" d="M865 202.748C850.27 202.748 829.134 192.501 826.572 177.129C822.729 154.713 847.067 143.825 865 143.825C882.934 143.825 907.272 154.713 903.429 177.129C900.867 192.501 879.731 202.748 865 202.748ZM1196.13 291.774C1183.32 284.089 1169.87 264.874 1175.63 249.503C1183.32 229.008 1210.22 231.57 1225.59 240.536C1240.96 249.503 1256.97 271.279 1242.88 288.572C1232.63 300.741 1208.94 298.82 1196.13 291.774ZM1438.23 533.874C1431.18 521.064 1429.26 497.367 1441.43 487.119C1458.72 473.029 1480.5 489.04 1489.46 504.412C1498.43 519.783 1500.99 546.683 1480.5 554.369C1465.13 560.133 1445.91 546.683 1438.23 533.874ZM1527.25 864.999C1527.25 850.268 1537.5 829.132 1552.87 826.571C1575.29 822.728 1586.17 847.066 1586.17 864.999C1586.17 882.932 1575.29 907.27 1552.87 903.427C1537.5 900.866 1527.25 879.73 1527.25 864.999ZM1438.23 1196.12C1445.91 1183.31 1465.13 1169.86 1480.5 1175.63C1500.99 1183.31 1498.43 1210.21 1489.46 1225.59C1480.5 1240.96 1458.72 1256.97 1441.43 1242.88C1429.26 1232.63 1431.18 1208.93 1438.23 1196.12ZM1196.13 1438.22C1208.94 1431.18 1232.63 1429.26 1242.88 1441.43C1256.97 1458.72 1240.96 1480.5 1225.59 1489.46C1210.22 1498.43 1183.32 1500.99 1175.63 1480.5C1169.87 1465.12 1183.32 1445.91 1196.13 1438.22ZM865 1527.25C879.731 1527.25 900.867 1537.5 903.429 1553.51C907.272 1575.29 882.934 1586.17 865 1586.17C847.067 1586.17 822.729 1575.29 826.572 1553.51C828.493 1537.5 850.27 1527.25 865 1527.25ZM533.875 1438.22C546.685 1445.91 560.135 1465.76 554.37 1480.5C546.685 1500.99 519.785 1498.43 504.413 1489.46C489.042 1480.5 473.03 1458.72 487.12 1441.43C497.368 1429.26 521.066 1431.18 533.875 1438.22ZM291.776 1196.12C298.821 1208.93 300.742 1232.63 288.573 1242.88C271.281 1256.97 249.504 1240.96 240.538 1225.59C231.571 1210.21 229.009 1183.31 249.504 1175.63C264.235 1169.86 284.09 1183.31 291.776 1196.12ZM202.75 864.999C202.75 879.73 192.502 900.866 176.49 903.427C154.714 907.27 143.826 882.932 143.826 864.999C143.826 847.066 154.714 822.728 176.49 826.571C192.502 829.132 202.75 850.268 202.75 864.999ZM291.776 533.874C284.09 546.683 264.235 560.133 249.504 554.369C228.369 546.683 231.571 519.783 240.538 504.412C249.504 489.04 271.281 473.029 288.573 487.119C300.742 497.367 298.821 521.064 291.776 533.874ZM533.875 291.774C521.066 298.82 497.368 300.741 487.12 288.572C473.03 271.279 489.042 249.503 504.413 240.536C519.785 231.57 546.685 229.008 554.37 249.503C560.135 264.234 546.685 284.089 533.875 291.774ZM865 158.556C858.596 158.556 849.629 158.556 845.786 164.32C842.584 168.163 838.101 173.927 842.584 178.41C847.067 182.894 858.596 189.298 865 188.658C871.405 189.298 882.934 182.894 887.417 178.41C891.9 173.927 887.417 168.163 884.215 164.32C880.372 158.556 871.405 158.556 865 158.556ZM1218.54 252.705C1212.78 249.503 1205.09 245.66 1198.69 248.222C1194.2 250.143 1187.16 252.705 1189.08 259.11C1190.36 264.874 1196.77 276.403 1203.17 278.965C1208.29 283.448 1221.74 282.808 1227.51 281.527C1233.91 280.246 1233.27 272.56 1231.99 267.436C1231.35 261.032 1223.67 255.908 1218.54 253.346C1218.54 252.919 1218.54 252.705 1218.54 252.705V252.705ZM1476.65 511.457C1473.45 506.333 1468.97 498.648 1462.56 498.007C1457.44 496.726 1449.75 496.086 1448.47 502.49C1447.19 508.255 1446.55 521.705 1451.03 526.828C1453.6 533.233 1465.13 539.638 1470.89 540.919C1477.29 542.84 1479.86 535.795 1481.78 531.312C1484.34 524.907 1479.86 517.221 1477.29 511.457C1476.87 511.457 1476.65 511.457 1476.65 511.457ZM1571.44 864.999C1571.44 858.594 1571.44 849.628 1565.68 845.785C1561.84 842.582 1556.07 838.099 1551.59 842.582C1547.11 847.066 1540.7 858.594 1541.34 864.999C1540.7 871.404 1547.11 882.932 1551.59 887.416C1556.07 891.899 1561.84 887.416 1565.68 884.213C1571.44 880.37 1571.44 871.404 1571.44 864.999ZM1476.65 1218.54H1477.29C1479.86 1212.78 1484.34 1205.09 1481.78 1198.69C1479.86 1194.2 1477.29 1187.16 1470.89 1189.08C1465.13 1190.36 1453.6 1196.76 1451.03 1203.17C1446.55 1208.29 1447.19 1221.74 1448.47 1227.51C1449.75 1233.91 1457.44 1233.27 1462.56 1231.99C1468.97 1231.35 1473.45 1223.66 1476.65 1218.54V1218.54ZM1218.54 1477.29C1223.67 1474.09 1231.35 1468.97 1231.99 1462.56C1233.27 1457.44 1233.91 1449.75 1227.51 1448.47C1221.74 1447.19 1208.29 1446.55 1203.17 1451.03C1196.77 1453.6 1190.36 1465.12 1189.08 1470.89C1187.16 1477.29 1194.2 1479.85 1198.69 1481.78C1205.09 1484.34 1212.78 1480.5 1218.54 1477.29V1477.29ZM865 1571.44C871.405 1571.44 880.372 1571.44 884.215 1565.68C887.417 1561.84 891.9 1556.07 887.417 1551.59C882.934 1547.1 871.405 1540.7 865 1541.98C858.596 1540.7 847.067 1547.1 842.584 1551.59C838.101 1556.07 842.584 1561.84 845.786 1565.68C849.629 1571.44 858.596 1571.44 865 1571.44ZM511.459 1477.29C517.223 1480.5 524.908 1484.34 531.313 1481.78C535.797 1479.85 542.842 1477.29 540.92 1470.89C539.639 1465.12 533.235 1453.6 526.83 1451.03C521.706 1446.55 508.256 1447.19 502.492 1448.47C496.087 1450.39 496.728 1457.44 498.009 1462.56C498.649 1468.97 506.335 1474.09 511.459 1477.29ZM252.707 1218.54C255.909 1223.66 261.033 1231.35 267.438 1231.99C272.562 1233.27 279.607 1233.91 281.528 1227.51C282.809 1221.74 283.45 1208.29 278.966 1203.17C276.404 1196.76 264.876 1190.36 259.112 1189.08C252.707 1187.16 250.145 1194.2 248.223 1198.69C245.662 1205.09 249.504 1212.78 252.707 1218.54ZM158.557 864.999C158.557 871.404 158.557 880.37 164.321 884.213C168.164 887.416 173.928 891.899 178.412 887.416C182.895 882.932 189.3 871.404 188.019 864.999C189.3 858.594 182.895 847.066 178.412 842.582C173.928 838.099 168.164 842.582 164.321 845.785C158.557 849.628 158.557 858.594 158.557 864.999ZM252.707 511.457C249.504 517.221 245.662 524.907 248.223 531.312C250.145 535.795 252.707 542.84 259.112 540.919C264.876 539.638 276.404 533.233 278.966 526.828C283.45 521.705 282.809 508.255 281.528 502.49C279.607 496.086 272.562 496.726 267.438 498.007C261.033 498.648 255.909 506.333 252.707 511.457ZM511.459 253.346C506.335 256.548 498.649 261.032 498.009 267.436C496.728 272.56 496.087 280.246 502.492 281.527C508.256 283.448 521.706 283.448 526.83 278.965C533.235 277.043 539.639 264.874 540.92 259.11C542.842 252.705 535.797 250.143 531.313 248.222C524.908 245.66 517.223 250.143 511.459 253.346Z" stroke="white"/>
<path d="M861.157 850.27C861.157 849.843 861.157 849.63 861.157 849.63C862.438 849.63 863.719 849.63 865 849.63C866.281 849.63 867.562 849.63 868.843 849.63C868.843 849.63 868.843 849.843 868.843 850.27C869.27 850.27 869.484 850.27 869.484 850.27C870.765 850.27 872.045 850.911 872.686 851.551C873.967 852.192 874.607 852.832 875.888 853.473C875.888 853.9 875.888 854.113 875.888 854.113C875.888 854.113 876.102 854.113 876.529 854.113C877.169 855.394 877.81 856.035 878.45 857.316C879.091 857.956 879.731 859.237 879.731 860.518C879.731 860.518 879.731 860.731 879.731 861.158C880.158 861.158 880.372 861.158 880.372 861.158C880.372 862.439 880.372 863.72 880.372 865.001C880.372 866.282 880.372 867.563 880.372 868.844C880.372 868.844 880.158 868.844 879.731 868.844C879.731 869.271 879.731 869.485 879.731 869.485C879.731 870.765 879.091 872.046 878.45 872.687C877.81 873.968 877.169 874.608 876.529 875.889C876.102 875.889 875.888 875.889 875.888 875.889C875.888 875.889 875.888 876.103 875.888 876.53C874.607 877.17 873.967 877.811 872.686 878.451C872.045 879.092 870.765 879.732 869.484 879.732C869.484 879.732 869.27 879.732 868.843 879.732C868.843 880.159 868.843 880.373 868.843 880.373C867.562 880.373 866.281 880.373 865 880.373C863.719 880.373 862.438 880.373 861.157 880.373C861.157 880.373 861.157 880.159 861.157 879.732C860.73 879.732 860.517 879.732 860.517 879.732C859.236 879.732 857.955 879.092 857.315 878.451C856.034 877.811 855.393 877.17 854.112 876.53C854.112 876.103 854.112 875.889 854.112 875.889C854.112 875.889 853.899 875.889 853.472 875.889C852.831 874.608 852.191 873.968 851.55 872.687C850.91 872.046 850.269 870.765 850.269 869.485C850.269 869.485 850.269 869.271 850.269 868.844C849.842 868.844 849.629 868.844 849.629 868.844C849.629 867.563 849.629 866.282 849.629 865.001C849.629 863.72 849.629 862.439 849.629 861.158C849.629 861.158 849.842 861.158 850.269 861.158C850.269 860.731 850.269 860.518 850.269 860.518C850.269 859.237 850.91 857.956 851.55 857.316C852.191 856.035 852.831 855.394 853.472 854.113C853.899 854.113 854.112 854.113 854.112 854.113C854.112 854.113 854.112 853.9 854.112 853.473C855.393 852.832 856.034 852.192 857.315 851.551C857.955 850.911 859.236 850.27 860.517 850.27C860.517 850.27 860.73 850.27 861.157 850.27Z" stroke="white"/>
<path fill-rule="evenodd" clip-rule="evenodd" d="M672.861 147.028C673.288 146.601 673.501 146.388 673.501 146.388C675.423 146.388 677.984 146.388 679.906 147.669C717.053 168.804 750.999 172.647 761.887 220.683C770.213 257.83 734.987 286.011 727.941 320.597C727.301 323.799 724.099 326.361 720.896 327.001C717.694 328.282 713.851 327.642 711.289 324.44C688.232 298.821 643.399 291.775 631.87 255.268C617.139 208.514 644.68 188.019 666.456 151.511C667.737 148.95 669.658 147.669 671.58 147.028C671.58 147.028 672.007 147.028 672.861 147.028ZM1057.15 147.028C1058 147.028 1058.43 147.028 1058.43 147.028C1060.35 147.669 1062.27 148.95 1063.55 151.511C1085.33 188.019 1112.87 208.514 1098.14 255.268C1086.61 291.775 1041.77 298.821 1018.72 324.44C1016.15 327.642 1012.31 328.282 1009.11 327.001C1005.91 326.361 1002.7 323.799 1002.06 320.597C995.019 286.011 959.793 257.83 968.119 220.683C979.008 172.647 1012.95 168.804 1050.1 147.669C1052.02 146.388 1054.58 146.388 1056.5 146.388C1056.5 146.388 1056.72 146.601 1057.15 147.028ZM1390.83 339.171C1391.26 339.597 1391.47 340.024 1391.47 340.451C1392.75 341.732 1393.39 343.654 1393.39 346.216C1394.03 389.128 1408.13 419.87 1371.62 453.175C1343.44 479.434 1301.17 462.782 1267.86 473.67C1264.66 474.951 1260.82 473.67 1258.89 471.108C1256.33 469.187 1255.05 465.344 1256.33 462.142C1267.22 428.837 1250.57 386.566 1276.83 358.385C1310.13 321.878 1340.88 335.968 1383.79 336.609C1386.35 336.609 1388.27 337.249 1389.55 338.53C1389.98 338.53 1390.41 338.744 1390.83 339.171V339.171ZM1582.97 672.858C1583.4 673.285 1583.62 673.498 1583.62 673.498C1583.62 675.42 1583.62 677.982 1582.33 679.903C1561.2 717.051 1557.36 750.996 1509.32 761.884C1472.17 770.21 1443.99 734.984 1409.41 727.939C1406.2 727.298 1403.64 724.096 1403 720.893C1401.72 717.691 1402.36 713.848 1405.56 711.286C1431.18 688.229 1438.23 643.396 1474.73 631.867C1521.49 617.136 1541.98 644.677 1578.49 666.453C1581.05 667.734 1582.33 669.655 1582.97 671.577C1582.97 671.577 1582.97 672.004 1582.97 672.858ZM1582.97 1057.14C1582.97 1058 1582.97 1058.42 1582.97 1058.42C1582.33 1060.34 1581.05 1062.27 1578.49 1063.55C1541.98 1085.32 1521.49 1112.86 1474.73 1098.13C1438.23 1086.6 1431.18 1041.77 1405.56 1018.71C1402.36 1016.15 1401.72 1012.31 1403 1009.11C1403.64 1005.9 1406.2 1002.7 1409.41 1002.06C1443.99 995.016 1472.17 959.79 1509.32 968.117C1557.36 979.005 1561.2 1012.95 1582.33 1050.1C1583.62 1052.02 1583.62 1054.58 1583.62 1056.5C1583.62 1056.5 1583.4 1056.72 1582.97 1057.14ZM1390.83 1390.83C1390.41 1391.26 1389.98 1391.47 1389.55 1391.47C1388.27 1392.75 1386.35 1393.39 1383.79 1393.39C1340.88 1394.03 1310.13 1408.12 1276.83 1371.62C1250.57 1343.43 1267.22 1301.16 1256.33 1267.86C1255.05 1264.66 1256.33 1260.81 1258.89 1258.89C1260.82 1256.33 1264.66 1255.05 1267.86 1256.33C1301.17 1267.22 1343.44 1250.57 1371.62 1276.83C1408.13 1310.13 1394.03 1340.87 1393.39 1383.78C1393.39 1386.35 1392.75 1388.27 1391.47 1389.55C1391.47 1389.98 1391.26 1390.4 1390.83 1390.83V1390.83ZM1057.15 1582.97C1056.72 1583.4 1056.5 1583.61 1056.5 1583.61C1054.58 1583.61 1052.02 1583.61 1050.1 1582.33C1012.95 1561.2 979.008 1557.35 968.119 1509.32C959.793 1472.17 995.019 1443.99 1002.06 1409.4C1002.7 1406.2 1005.91 1403.64 1009.11 1403C1012.31 1401.72 1016.15 1402.36 1018.72 1405.56C1041.77 1431.18 1086.61 1438.22 1098.14 1474.73C1112.87 1521.49 1085.33 1541.98 1063.55 1578.49C1062.27 1581.05 1060.35 1582.33 1058.43 1582.97C1058.43 1582.97 1058 1582.97 1057.15 1582.97ZM672.861 1582.97C672.007 1582.97 671.58 1582.97 671.58 1582.97C669.658 1582.33 667.737 1581.05 666.456 1578.49C644.68 1541.98 617.139 1521.49 631.87 1474.73C643.399 1438.22 688.232 1431.18 711.289 1405.56C713.851 1402.36 717.694 1401.72 720.896 1403C724.099 1403.64 727.301 1406.2 727.941 1409.4C734.987 1443.99 770.213 1472.17 761.887 1509.32C750.999 1557.35 717.053 1561.2 679.906 1582.33C677.984 1583.61 675.423 1583.61 673.501 1583.61C673.501 1583.61 673.288 1583.4 672.861 1582.97ZM339.173 1390.83C338.746 1390.4 338.533 1389.98 338.533 1389.55C337.252 1388.27 336.612 1386.35 336.612 1383.78C335.971 1340.87 321.881 1310.13 358.388 1276.83C386.569 1250.57 428.84 1267.22 462.145 1256.33C465.347 1255.05 469.19 1256.33 471.111 1258.89C473.673 1260.81 474.954 1264.66 473.673 1267.86C462.785 1301.16 479.437 1343.43 453.178 1371.62C419.873 1408.12 389.13 1394.03 346.219 1393.39C343.657 1393.39 341.735 1392.75 340.454 1391.47C340.027 1391.47 339.6 1391.26 339.173 1390.83V1390.83ZM147.031 1057.14C146.604 1056.72 146.391 1056.5 146.391 1056.5C146.391 1054.58 146.391 1052.02 147.672 1050.1C168.807 1012.95 172.65 979.005 220.686 968.117C257.833 959.79 286.014 995.016 320.6 1002.06C323.802 1002.7 326.364 1005.9 327.004 1009.11C328.285 1012.31 327.645 1016.15 324.443 1018.71C298.824 1041.77 291.778 1086.6 255.271 1098.13C208.517 1112.86 188.021 1085.32 151.514 1063.55C148.952 1062.27 147.672 1060.34 147.031 1058.42C147.031 1058.42 147.031 1058 147.031 1057.14ZM147.031 672.858C147.031 672.004 147.031 671.577 147.031 671.577C147.672 669.655 148.952 667.734 151.514 666.453C188.021 644.677 208.517 617.136 255.271 631.867C291.778 643.396 298.824 688.229 324.443 711.286C327.645 713.848 328.285 717.691 327.004 720.893C326.364 724.096 323.802 727.298 320.6 727.939C286.014 734.984 257.833 770.21 220.686 761.884C172.65 750.996 168.807 717.051 147.672 679.903C146.391 677.982 146.391 675.42 146.391 673.498C146.391 673.498 146.604 673.285 147.031 672.858ZM339.173 339.171C339.6 338.744 340.027 338.53 340.454 338.53C341.735 337.249 343.657 336.609 346.219 336.609C389.13 335.968 419.873 321.878 453.178 358.385C479.437 386.566 462.785 428.837 473.673 462.142C474.954 465.344 473.673 469.187 471.111 471.108C469.19 473.67 465.347 474.951 462.145 473.67C428.84 462.782 386.569 479.434 358.388 453.175C321.881 419.87 335.971 389.128 336.612 346.216C336.612 343.654 337.252 341.732 338.533 340.451C338.533 340.024 338.746 339.597 339.173 339.171V339.171ZM713.851 300.102C713.851 300.529 713.851 300.742 713.851 300.742C724.739 277.685 745.234 254.628 743.313 230.93C740.11 189.299 708.727 183.535 678.625 168.804C660.051 196.345 635.713 217.48 653.006 254.628C663.253 276.404 692.715 286.011 713.211 300.742C713.638 300.742 713.851 300.529 713.851 300.102ZM1016.16 300.102C1016.16 300.529 1016.37 300.742 1016.8 300.742C1037.29 286.011 1066.75 276.404 1077 254.628C1094.29 217.48 1069.95 196.345 1051.38 168.804C1021.28 183.535 989.896 189.299 986.693 230.93C984.772 254.628 1005.27 277.685 1016.16 300.742C1016.16 300.742 1016.16 300.529 1016.16 300.102ZM1278.11 451.894C1303.73 449.973 1333.83 456.377 1353.68 442.287C1387.63 418.589 1376.74 388.487 1374.82 355.182C1341.52 353.261 1311.41 342.373 1287.72 376.318C1273.63 396.173 1280.03 426.275 1278.11 451.894ZM1429.9 713.848C1429.47 713.848 1429.26 713.848 1429.26 713.848C1452.32 724.736 1475.38 745.231 1499.07 743.31C1540.7 740.108 1546.47 708.724 1561.2 678.622C1533.66 660.048 1512.52 635.71 1475.38 653.003C1453.6 663.251 1443.99 692.712 1429.26 713.208C1429.26 713.635 1429.47 713.848 1429.9 713.848ZM1429.9 1016.15C1429.47 1016.15 1429.26 1016.37 1429.26 1016.79C1443.99 1037.29 1453.6 1066.75 1475.38 1077C1512.52 1094.29 1533.66 1069.95 1561.2 1051.38C1546.47 1021.28 1540.7 989.893 1499.07 986.69C1475.38 984.769 1452.32 1005.26 1429.26 1016.15C1429.26 1016.15 1429.47 1016.15 1429.9 1016.15ZM1278.11 1278.11C1280.03 1303.73 1273.63 1333.83 1287.72 1353.68C1311.41 1387.63 1341.52 1376.74 1374.82 1374.82C1376.74 1341.51 1387.63 1311.41 1353.68 1287.71C1333.83 1273.62 1303.73 1280.03 1278.11 1278.11ZM1016.16 1429.9C1016.16 1429.47 1016.16 1429.26 1016.16 1429.26C1005.27 1452.32 984.772 1475.37 986.693 1499.07C989.896 1540.7 1021.28 1546.47 1051.38 1561.2C1069.95 1533.66 1094.29 1512.52 1077 1475.37C1066.75 1453.6 1037.29 1443.99 1016.8 1429.26C1016.37 1429.26 1016.16 1429.47 1016.16 1429.9ZM713.851 1429.9C713.851 1429.47 713.638 1429.26 713.211 1429.26C692.715 1443.99 663.253 1453.6 653.006 1475.37C635.713 1512.52 660.051 1533.66 678.625 1561.2C708.727 1546.47 740.11 1540.7 743.313 1499.07C745.234 1475.37 724.739 1452.32 713.851 1429.26C713.851 1429.26 713.851 1429.47 713.851 1429.9ZM451.897 1278.11C426.278 1280.03 396.176 1273.62 376.321 1287.71C342.376 1311.41 353.264 1341.51 355.185 1374.82C388.49 1376.74 418.592 1387.63 442.29 1353.68C456.38 1333.83 449.976 1303.73 451.897 1278.11ZM300.105 1016.15C300.531 1016.15 300.745 1016.15 300.745 1016.15C277.688 1005.26 254.631 984.769 230.933 986.69C189.302 989.893 183.538 1021.28 168.807 1051.38C196.348 1069.95 217.483 1094.29 254.631 1077C276.407 1066.75 286.014 1037.29 300.745 1016.79C300.745 1016.37 300.531 1016.15 300.105 1016.15ZM300.105 713.848C300.531 713.848 300.745 713.635 300.745 713.208C286.014 692.712 276.407 663.251 254.631 653.003C217.483 635.71 196.348 660.048 168.807 678.622C183.538 708.724 189.302 740.108 230.933 743.31C254.631 745.231 277.688 724.736 300.745 713.848C300.745 713.848 300.531 713.848 300.105 713.848ZM451.897 451.894C449.976 426.275 456.38 396.173 442.29 376.318C418.592 342.373 388.49 353.261 355.185 355.182C353.264 388.487 342.376 418.589 376.321 442.287C396.176 456.377 426.278 449.973 451.897 451.894Z" stroke="white"/>
</svg>
