<svg width="81" height="80" viewBox="0 0 81 80" fill="none" xmlns="http://www.w3.org/2000/svg">
<path d="M42.5197 42.2135C41.3349 43.2222 39.5672 43.0476 38.5893 41.8255C37.6114 40.6033 37.7807 38.7798 38.9842 37.7711C40.169 36.7623 41.9179 36.9369 42.8958 38.1591C43.8737 39.4006 43.7044 41.2047 42.5197 42.2135Z" fill="white" fill-opacity="0.05"/>
<path fill-rule="evenodd" clip-rule="evenodd" d="M44.8145 34.7821L45.5667 32.5706C46.4317 30.0294 46.5446 27.2165 45.8864 24.6559L45.83 24.5007L45.924 24.3455C48.3875 20.5239 53.0701 18.7974 53.277 18.7198L53.6907 18.584L53.7659 19.0302C53.8035 19.2242 54.5181 23.9963 52.8632 28.3999L52.788 28.5744L52.6 28.6132C50.1929 29.3116 47.6729 30.9993 46.2061 32.9392L44.8145 34.7821ZM46.6386 24.6365C47.1652 26.7703 47.184 29.0594 46.7138 31.2515C48.2183 29.7578 50.2493 28.5357 52.2239 27.9343C53.4462 24.5589 53.2206 20.9119 53.0889 19.6315C51.9042 20.1359 48.5568 21.7654 46.6386 24.6365Z" fill="white" fill-opacity="0.05"/>
<path fill-rule="evenodd" clip-rule="evenodd" d="M46.4492 31.7376L46.7877 30.3603C47.2202 28.6144 47.2955 26.7327 47.051 24.9286L47.0134 24.754L47.145 24.6182C48.4426 23.1827 50.1163 21.9217 51.9969 20.9906L52.4858 20.7578L52.5234 21.301C52.7303 23.3573 52.5234 25.6851 51.9969 27.4893L51.9593 27.6638L51.79 27.722C50.2291 28.3622 48.5554 29.5261 47.4083 30.7289L46.4492 31.7376ZM47.8032 25.0062C47.9913 26.4417 47.9725 27.916 47.7468 29.371C48.7999 28.4398 50.0787 27.625 51.3387 27.0819C51.7524 25.5494 51.9405 23.6871 51.8276 21.9218C50.2856 22.7559 48.9127 23.8035 47.8032 25.0062Z" fill="white" fill-opacity="0.05"/>
<path d="M48.4258 28.147C48.4258 28.147 48.5386 27.4487 48.5574 26.7503C48.595 26.0714 48.5762 25.3342 48.5762 25.3342C48.5762 25.3342 49.1028 24.8686 49.6858 24.4418C50.2687 24.0151 50.8893 23.6465 50.8893 23.6465C50.8893 23.6465 50.9081 24.403 50.8517 25.1208C50.8329 25.4894 50.7953 25.8386 50.7389 26.1295C50.7013 26.3817 50.6825 26.5757 50.6825 26.5757C50.6825 26.5757 50.532 26.6533 50.3063 26.7891C49.7234 27.1189 48.9335 27.7009 48.4258 28.147Z" fill="white" fill-opacity="0.05"/>
<path fill-rule="evenodd" clip-rule="evenodd" d="M41.0704 33.3095L40.4122 31.0786C39.6788 28.4791 38.1556 26.1513 36.1622 24.4829L36.0305 24.3666V24.2114C35.8425 19.6138 38.6445 15.3654 38.7573 15.1908L39.0206 14.8223L39.3215 15.1326C39.472 15.2878 42.7629 18.7021 43.9289 23.2608L43.9665 23.4548L43.8537 23.61C42.2928 25.6275 41.2209 28.5179 41.1457 30.9816L41.0704 33.3095ZM38.5505 25.8409C39.3779 26.8884 40.0737 28.0524 40.5815 29.2939C40.9576 27.1794 41.8979 24.9679 43.1767 23.2802C42.2364 19.8078 39.9609 16.9755 39.1335 16.025C38.4565 17.1501 36.6699 20.5062 36.764 23.998C37.4033 24.5411 38.0051 25.1619 38.5505 25.8409Z" fill="white" fill-opacity="0.05"/>
<path fill-rule="evenodd" clip-rule="evenodd" d="M40.6573 29.8579L40.1495 28.5388C39.4913 26.8705 38.4946 25.2991 37.2535 23.9994L37.1406 23.8636L37.1594 23.689C37.3851 21.7297 38.0433 19.6928 39.0212 17.7917L39.2845 17.3262L39.623 17.7336C40.9582 19.2855 42.1241 21.2642 42.7259 23.0489L42.7823 23.2235L42.6883 23.3786C41.7856 24.853 41.0898 26.7929 40.8641 28.4612L40.6573 29.8579ZM38.6075 24.4068C39.2845 25.2603 39.8674 26.1721 40.3376 27.1614C40.6761 25.7647 41.2402 24.3292 41.9549 23.1265C41.4283 21.6327 40.488 20.0032 39.4161 18.6647C38.6451 20.2554 38.1185 21.9625 37.8928 23.592C38.1436 23.8507 38.3818 24.1223 38.6075 24.4068Z" fill="white" fill-opacity="0.05"/>
<path d="M40.2063 25.7444C40.2063 25.7444 39.9055 25.1236 39.5293 24.5416C39.172 23.9597 38.7207 23.3971 38.7207 23.3971C38.7207 23.3971 38.89 22.6987 39.1156 22.0004C39.3413 21.302 39.6422 20.623 39.6422 20.623C39.6422 20.623 40.0747 21.2244 40.4508 21.8452C40.6389 22.1556 40.8081 22.4659 40.921 22.7181C41.0526 22.9509 41.1278 23.1255 41.1278 23.1255C41.1278 23.1255 41.0526 23.2807 40.9586 23.5135C40.6765 24.1537 40.3756 25.0848 40.2063 25.7444Z" fill="white" fill-opacity="0.05"/>
<path fill-rule="evenodd" clip-rule="evenodd" d="M28.0394 30.222L27.9266 30.0862C25.1622 26.478 25.0117 21.3567 25.0117 21.1239V20.6777L25.4442 20.7553C25.6323 20.7747 30.2585 21.5507 33.7939 24.5381L33.9256 24.6545V24.8485C33.8127 27.4286 34.6026 30.416 35.9378 32.4529L37.1977 34.3928L35.3924 32.9767C33.3238 31.3278 30.7662 30.3578 28.2087 30.222H28.0394ZM25.7827 21.5895C25.8768 22.928 26.3469 26.7108 28.3967 29.4849C30.5406 29.6207 32.6656 30.319 34.5274 31.4636C33.6247 29.5043 33.1169 27.1376 33.1734 25.0037C30.4465 22.7728 27.0051 21.8611 25.7827 21.5895Z" fill="white" fill-opacity="0.05"/>
<path fill-rule="evenodd" clip-rule="evenodd" d="M28.6411 29.1367L28.5471 28.9815C27.6256 27.255 26.9862 25.2181 26.7041 23.0842L26.6289 22.541L27.1555 22.6574C29.1112 23.1036 31.1799 24.0153 32.6843 25.0823L32.8348 25.1987L32.8536 25.3733C32.9664 27.0998 33.4929 29.0979 34.264 30.5916L34.9034 31.8331L33.7374 31.096C32.2518 30.126 30.5405 29.4664 28.8104 29.1561L28.6411 29.1367ZM27.5316 23.5498C27.8137 25.3151 28.359 27.0028 29.1112 28.4577C30.5029 28.7099 31.8569 29.1949 33.1168 29.8544C32.5903 28.5353 32.2518 27.0222 32.1389 25.6255C30.8602 24.7331 29.1677 23.9959 27.5316 23.5498Z" fill="white" fill-opacity="0.05"/>
<path d="M32.1956 28.8063C32.1956 28.8063 31.5938 28.4766 30.9544 28.2438C30.3338 27.9916 29.6568 27.7782 29.6568 27.7782C29.6568 27.7782 29.3935 27.138 29.1867 26.4203C28.961 25.7219 28.8105 25.0042 28.8105 25.0042C28.8105 25.0042 29.5252 25.2175 30.1646 25.4891C30.4842 25.6249 30.8039 25.7801 31.0484 25.8965C31.2741 26.0323 31.4433 26.1099 31.4433 26.1099C31.4433 26.1099 31.4809 26.2845 31.5186 26.5367C31.6502 27.2156 31.9511 28.1468 32.1956 28.8063Z" fill="white" fill-opacity="0.05"/>
<path fill-rule="evenodd" clip-rule="evenodd" d="M17.4513 34.5129C17.3573 34.3771 17.2821 34.2995 17.2633 34.2801L17 33.9115L17.3949 33.7175C17.5642 33.6205 21.7578 31.4479 26.3088 31.7L26.4968 31.7194L26.5909 31.8746C27.9825 34.0473 30.3144 35.9872 32.5522 36.8214L34.6961 37.6167L32.4206 37.5585C29.8066 37.5003 27.1738 38.2569 25.03 39.6924L24.8984 39.7894L24.7291 39.7506C20.9868 38.6837 18.1848 35.444 17.4513 34.5129ZM26.0831 32.4566C22.6041 32.3014 19.2943 33.6593 18.1471 34.1831C18.9934 35.1919 21.5321 37.9659 24.7667 38.9747C26.572 37.7913 28.6783 37.0542 30.8409 36.8602C29.0168 35.832 27.2491 34.2219 26.0831 32.4566Z" fill="white" fill-opacity="0.05"/>
<path fill-rule="evenodd" clip-rule="evenodd" d="M19.3887 34.4324L19.8776 34.219C21.7206 33.3848 23.902 32.8611 25.745 32.8223H25.9142L26.0271 32.9581C27.099 34.2966 28.6786 35.5769 30.1455 36.3141L31.3678 36.9348L30.0138 37.0512C28.2461 37.1676 26.4972 37.672 24.9175 38.4674L24.7671 38.545L24.5978 38.4674C22.8677 37.6332 21.194 36.3723 19.746 34.8204L19.3887 34.4324ZM25.5945 33.5982C24.0525 33.6564 22.2659 34.0638 20.6863 34.704C21.9274 35.9649 23.319 36.993 24.7671 37.7108C26.027 37.09 27.3999 36.6439 28.8103 36.4305C27.6255 35.6739 26.4784 34.6652 25.5945 33.5982Z" fill="white" fill-opacity="0.05"/>
<path d="M27.4551 36.1231C27.4551 36.1231 26.7781 36.2395 26.1387 36.4141C25.4805 36.5887 24.8224 36.8409 24.8224 36.8409C24.8224 36.8409 24.2394 36.4723 23.6564 36.0261C23.0734 35.5993 22.5469 35.095 22.5469 35.095C22.5469 35.095 23.2427 34.8622 23.9197 34.6876C24.2582 34.5906 24.5967 34.513 24.86 34.4742C25.1232 34.4354 25.3113 34.416 25.3113 34.416C25.3113 34.416 25.4241 34.5324 25.6122 34.707C26.1011 35.1726 26.8722 35.7545 27.4551 36.1231Z" fill="white" fill-opacity="0.05"/>
<path fill-rule="evenodd" clip-rule="evenodd" d="M18.0742 49.4708L18.2811 49.0634C18.3563 48.8888 20.5001 44.6016 24.3365 42.041L24.5057 41.944L24.675 42.0022C27.0257 42.9333 30.0346 43.0691 32.3101 42.3902L34.4915 41.75L32.6298 43.0691C30.4671 44.6017 28.7746 46.8131 27.8719 49.2962L27.7967 49.4514L27.6463 49.5096C23.4714 51.1197 18.6948 49.6648 18.5067 49.6066L18.0742 49.4708ZM24.581 42.7781C21.6661 44.7762 19.7667 47.8801 19.1461 48.9858C20.4061 49.2962 24.0356 50.014 27.2325 48.85C28.0224 46.7937 29.3012 44.9314 30.9372 43.4571C28.8686 43.7481 26.5367 43.4959 24.581 42.7781Z" fill="white" fill-opacity="0.05"/>
<path fill-rule="evenodd" clip-rule="evenodd" d="M20.291 48.4427L20.5543 47.9771C21.5886 46.1924 23.0554 44.4465 24.5223 43.3019L24.6539 43.1855L24.8232 43.2243C26.4593 43.6511 28.4715 43.7481 30.0699 43.4571L31.4239 43.2049L30.3708 44.1167C29.0356 45.2806 27.8885 46.755 27.0798 48.3651L26.9858 48.5203L26.8166 48.5591C24.936 48.9276 22.8674 48.9276 20.8176 48.5397L20.291 48.4427ZM24.8232 44.0197C23.6196 44.9897 22.3972 46.4058 21.4758 47.8801C23.2059 48.1517 24.9172 48.1323 26.4969 47.8413C27.1739 46.561 28.0201 45.3776 29.0356 44.3495C27.644 44.4659 26.1396 44.3495 24.8232 44.0197Z" fill="white" fill-opacity="0.05"/>
<path d="M27.7963 44.931C27.7963 44.931 27.3074 45.4354 26.8937 45.9591C26.4611 46.5023 26.0662 47.1037 26.0662 47.1037C26.0662 47.1037 25.3892 47.1619 24.6746 47.1619C23.9412 47.1619 23.2266 47.0649 23.2266 47.0649C23.2266 47.0649 23.6591 46.4441 24.1104 45.9009C24.3361 45.6293 24.5618 45.3578 24.7498 45.1638C24.9379 44.9698 25.0695 44.834 25.0695 44.834C25.0695 44.834 25.2388 44.8534 25.502 44.8922C26.1602 44.9698 27.1193 44.9892 27.7963 44.931Z" fill="white" fill-opacity="0.05"/>
<path fill-rule="evenodd" clip-rule="evenodd" d="M27.8153 61.4187L27.7401 60.9725C27.7025 60.7591 26.9878 55.987 28.6427 51.6028L28.718 51.4282L28.8872 51.37C31.3131 50.6911 33.8331 48.984 35.2999 47.0441L36.6915 45.2012L35.9393 47.4127C35.0555 49.9539 34.9426 52.7668 35.6196 55.3274L35.6572 55.502L35.5632 55.6378C33.1185 59.4594 28.4171 61.1859 28.229 61.2635L27.8153 61.4187ZM29.2821 52.049C28.0598 55.4244 28.2854 59.0908 28.4171 60.3712C29.6018 59.8668 32.9492 58.2373 34.8674 55.3662C34.3408 53.2323 34.322 50.9239 34.7922 48.7512C33.2877 50.2255 31.2567 51.467 29.2821 52.049Z" fill="white" fill-opacity="0.05"/>
<path fill-rule="evenodd" clip-rule="evenodd" d="M29.0194 59.2262L28.963 58.683C28.775 56.6267 28.9818 54.3182 29.4896 52.5141L29.546 52.3395L29.7152 52.2619C31.2761 51.6218 32.9498 50.4772 34.0781 49.2745L35.0372 48.2463L34.7175 49.6237C34.285 51.389 34.191 53.2513 34.4543 55.0554L34.4919 55.23L34.3602 55.3658C33.0626 56.8207 31.3701 58.0622 29.4896 58.9934L29.0194 59.2262ZM30.1666 52.9021C29.7529 54.4152 29.5648 56.2969 29.6776 58.0622C31.2197 57.2281 32.5925 56.1611 33.702 54.9778C33.514 53.5423 33.5328 52.0485 33.7584 50.613C32.7053 51.5442 31.4266 52.3589 30.1666 52.9021Z" fill="white" fill-opacity="0.05"/>
<path d="M33.0798 51.8555C33.0798 51.8555 32.967 52.5538 32.9294 53.2328C32.8918 53.9312 32.9294 54.6489 32.9294 54.6489C32.9294 54.6489 32.4028 55.1145 31.8198 55.5413C31.2369 55.9874 30.6163 56.3366 30.6163 56.3366C30.6163 56.3366 30.5975 55.5801 30.6539 54.8623C30.6727 54.4937 30.7103 54.1445 30.7479 53.873C30.8043 53.6014 30.8232 53.4268 30.8232 53.4268C30.8232 53.4268 30.9736 53.3298 31.1993 53.2134C31.7822 52.8642 32.5533 52.3016 33.0798 51.8555Z" fill="white" fill-opacity="0.05"/>
<path fill-rule="evenodd" clip-rule="evenodd" d="M41.2223 63.7488C40.1128 62.3715 38.345 59.8108 37.574 56.7264L37.5176 56.5324L37.6304 56.3966C39.2101 54.3597 40.2632 51.4693 40.3572 49.0056L40.4324 46.6777L41.0718 48.9086C41.8241 51.5081 43.3285 53.8554 45.3407 55.5043L45.4723 55.6207V55.7952C45.6604 60.3928 42.8584 64.6218 42.7267 64.7964L42.4823 65.165L42.1626 64.8546C42.1249 64.7964 41.7488 64.4084 41.2223 63.7488ZM38.3262 56.707C39.2665 60.1794 41.542 63.0117 42.3694 63.9622C43.0464 62.8371 44.8142 59.4811 44.7389 55.9892C43.084 54.5925 41.7676 52.7496 40.9214 50.6933C40.5265 52.8078 39.5862 55.0193 38.3262 56.707Z" fill="white" fill-opacity="0.05"/>
<path fill-rule="evenodd" clip-rule="evenodd" d="M41.5039 61.8282C40.338 60.3539 39.3225 58.5692 38.7771 56.9397L38.7207 56.7651L38.8147 56.6099C39.6986 55.1549 40.4132 53.1956 40.6389 51.5467L40.8269 50.1306L41.3535 51.4497C42.0117 53.1375 43.0084 54.7088 44.2307 55.9891L44.3624 56.1249L44.3436 56.3189C44.0991 58.2782 43.4597 60.2957 42.463 62.1968L42.2185 62.6817L41.8612 62.2744C41.7484 62.1321 41.6293 61.9834 41.5039 61.8282ZM39.5293 56.8621C40.0559 58.3558 40.9962 59.9853 42.0681 61.3432C42.8391 59.7331 43.3657 58.0454 43.5914 56.3965C42.6135 55.3489 41.786 54.1268 41.1466 52.8271C40.8081 54.2238 40.244 55.6593 39.5293 56.8621Z" fill="white" fill-opacity="0.05"/>
<path d="M41.2965 54.2441C41.2965 54.2441 41.5974 54.8649 41.9735 55.4469C42.3308 56.0288 42.7633 56.6108 42.7633 56.6108C42.7633 56.6108 42.6129 57.2898 42.3684 57.9881C42.1615 58.7059 41.8606 59.3655 41.8606 59.3655C41.8606 59.3655 41.4093 58.7641 41.052 58.1433C40.8639 57.8523 40.6947 57.5226 40.5631 57.2898C40.4502 57.0376 40.375 56.8824 40.375 56.8824C40.375 56.8824 40.4314 56.7272 40.5442 56.475C40.8263 55.8543 41.1272 54.9231 41.2965 54.2441Z" fill="white" fill-opacity="0.05"/>
<path fill-rule="evenodd" clip-rule="evenodd" d="M47.5581 55.3281L47.5769 55.1535C47.6897 52.5541 46.8999 49.5666 45.5647 47.5297L44.3047 45.5898L46.0912 47.006C48.1786 48.6549 50.7362 49.6248 53.2938 49.7606L53.463 49.78L53.557 49.9158C56.3403 53.5046 56.4719 58.6453 56.4907 58.8587V59.3049L56.0582 59.2467C55.8701 59.2079 51.244 58.432 47.7085 55.4639L47.5581 55.3281ZM46.9563 48.5191C47.8589 50.4784 48.3667 52.8451 48.3103 54.9789C51.0371 57.2098 54.4973 58.1216 55.7009 58.3932C55.6069 57.074 55.1367 53.2718 53.0869 50.4978C50.9431 50.362 48.8368 49.683 46.9563 48.5191Z" fill="white" fill-opacity="0.05"/>
<path fill-rule="evenodd" clip-rule="evenodd" d="M48.6494 54.8042V54.6102C48.5366 52.8837 47.9912 50.8856 47.239 49.3919L46.5996 48.1504L47.7656 48.9069C49.2512 49.8575 50.9437 50.5171 52.6926 50.8275L52.8619 50.8468L52.9559 51.0214C53.8774 52.7479 54.5168 54.7848 54.7989 56.9187L54.8553 57.4425L54.3475 57.3261C52.3729 56.8799 50.3043 55.9682 48.7999 54.9012L48.6494 54.8042ZM48.3861 50.1485C48.8939 51.4676 49.2512 52.9807 49.364 54.3775C50.6428 55.2698 52.3165 56.0264 53.9714 56.4725C53.6893 54.6878 53.144 53.0195 52.3917 51.5452C51.0001 51.293 49.6273 50.8081 48.3861 50.1485Z" fill="white" fill-opacity="0.05"/>
<path d="M49.3086 51.1973C49.3086 51.1973 49.9104 51.5076 50.531 51.7598C51.1703 52.012 51.8474 52.206 51.8474 52.206C51.8474 52.206 52.1106 52.8656 52.3175 53.5639C52.5432 54.2817 52.6748 54.9995 52.6748 54.9995C52.6748 54.9995 51.979 54.7667 51.3396 54.4951C51.0011 54.3593 50.7002 54.2235 50.4557 54.0877C50.2113 53.9713 50.0608 53.8937 50.0608 53.8937C50.0608 53.8937 50.0232 53.7191 49.9856 53.4475C49.8352 52.7686 49.5531 51.8374 49.3086 51.1973Z" fill="white" fill-opacity="0.05"/>
<path fill-rule="evenodd" clip-rule="evenodd" d="M46.8086 42.3719L49.0653 42.4301C51.6981 42.5077 54.312 41.7511 56.4747 40.2962L56.6063 40.1992L56.7756 40.2574C61.0632 41.4796 64.1098 45.5533 64.2226 45.7085L64.5047 46.0771L64.1097 46.2905C63.9217 46.3875 59.7469 48.5602 55.1959 48.2886L55.0078 48.2692L54.895 48.114C53.5222 45.9607 51.1715 44.0208 48.9336 43.1673L46.8086 42.3719ZM56.738 41.0334C54.9326 42.2167 52.8264 42.9345 50.6637 43.1479C52.4879 44.176 54.2556 45.7861 55.4216 47.532C58.9006 47.6872 62.2104 46.3487 63.3575 45.8055C62.5113 44.8162 59.9725 42.0227 56.738 41.0334Z" fill="white" fill-opacity="0.05"/>
<path fill-rule="evenodd" clip-rule="evenodd" d="M50.1172 43.0496L51.49 42.9526C53.2389 42.8168 55.0066 42.3318 56.5863 41.5171L56.7368 41.4395L56.906 41.5171C58.6361 42.3512 60.3098 43.6121 61.739 45.1641L62.1152 45.5714L61.6262 45.7848C59.7833 46.5996 57.583 47.1234 55.7589 47.1815H55.5896L55.4768 47.0264C54.4049 45.7072 52.8252 44.4075 51.3584 43.6703L50.1172 43.0496ZM56.7368 42.293C55.4768 42.9138 54.0852 43.36 52.6936 43.5733C53.8783 44.3299 55.0254 45.3386 55.9093 46.4056C57.4514 46.3474 59.2379 45.94 60.8176 45.2999C59.5764 44.0389 58.1848 43.0108 56.7368 42.293Z" fill="white" fill-opacity="0.05"/>
<path d="M54.0488 43.8642C54.0488 43.8642 54.7258 43.7672 55.3652 43.5733C56.0234 43.3987 56.6816 43.1465 56.6816 43.1465C56.6816 43.1465 57.2646 43.5151 57.8476 43.9612C58.4305 44.388 58.9571 44.8924 58.9571 44.8924C58.9571 44.8924 58.2613 45.1446 57.5655 45.3192C57.2458 45.3968 56.8885 45.4744 56.6252 45.5132C56.3619 45.552 56.1927 45.5908 56.1927 45.5908C56.1927 45.5908 56.061 45.4744 55.873 45.2804C55.384 44.8148 54.613 44.2328 54.0488 43.8642Z" fill="white" fill-opacity="0.05"/>
<path fill-rule="evenodd" clip-rule="evenodd" d="M46.9961 38.2359L48.8767 36.9167C51.0205 35.3842 52.713 33.1727 53.6345 30.7091L53.6909 30.5345L53.8601 30.4763C58.0162 28.8662 62.7928 30.3211 62.9997 30.3793L63.4322 30.5151L63.2253 30.9225C63.1313 31.0971 61.0063 35.4036 57.1511 37.9449L57.0007 38.0419L56.8314 37.9837C54.4807 37.0719 51.4718 36.9167 49.1775 37.5957L46.9961 38.2359ZM54.2551 31.1359C53.4652 33.1921 52.1864 35.0544 50.5504 36.5288C52.619 36.2378 54.9509 36.4706 56.9066 37.1883C59.8027 35.2096 61.7209 32.1058 62.3415 31.0001C61.0815 30.6897 57.452 29.9719 54.2551 31.1359Z" fill="white" fill-opacity="0.05"/>
<path fill-rule="evenodd" clip-rule="evenodd" d="M50.0801 36.7825L51.1144 35.8707C52.4684 34.7068 53.6155 33.2325 54.4242 31.6223L54.4994 31.4672L54.6875 31.4284C56.5492 31.0598 58.6366 31.0598 60.6864 31.4478L61.213 31.5447L60.9309 32.0103C59.9154 33.795 58.4298 35.5603 56.9817 36.7049L56.8501 36.8019L56.662 36.7631C55.0448 36.3363 53.0326 36.2587 51.4153 36.5303L50.0801 36.7825ZM55.0071 32.1655C54.349 33.4458 53.4839 34.6292 52.4872 35.6573C53.86 35.5409 55.3645 35.6573 56.6997 35.9871C57.9032 34.9978 59.1068 33.601 60.0282 32.1073C58.3169 31.8551 56.5868 31.8745 55.0071 32.1655Z" fill="white" fill-opacity="0.05"/>
<path d="M53.709 35.0553C53.709 35.0553 54.1979 34.5703 54.6117 34.0271C55.0442 33.484 55.4391 32.8826 55.4391 32.8826C55.4391 32.8826 56.1161 32.8244 56.8307 32.8438C57.5641 32.8438 58.2599 32.9214 58.2599 32.9214C58.2599 32.9214 57.8462 33.5422 57.3949 34.0853C57.1692 34.3763 56.9247 34.6285 56.7367 34.8419C56.5486 35.0165 56.4358 35.1523 56.4358 35.1523C56.4358 35.1523 56.2665 35.1329 56.0033 35.0941C55.3451 35.0165 54.386 35.0165 53.709 35.0553Z" fill="white" fill-opacity="0.05"/>
<path fill-rule="evenodd" clip-rule="evenodd" d="M42.3125 71.0964L43.0459 70.1652C43.1776 69.9906 43.4784 69.6027 43.8734 69.0207C44.1743 68.6133 44.5128 68.0701 44.9265 67.3912C45.3214 66.751 45.6975 66.0332 45.9796 65.4707C46.1112 65.1603 46.2617 64.8499 46.4121 64.4813C46.5626 64.1451 46.7005 63.8218 46.8258 63.5114C47.0703 62.8712 47.2584 62.2505 47.4088 61.7849C47.5216 61.3969 47.6157 61.0477 47.6909 60.7567L48.0482 59.166L49.233 60.0002C49.5589 60.22 49.8974 60.4334 50.2485 60.6403C50.6622 60.8925 51.1511 61.1641 51.8093 61.4939C52.4863 61.8237 53.1821 62.1147 53.7275 62.328C54.9123 62.7742 56.3227 63.201 57.6203 63.4532C58.1468 63.5696 58.5981 63.6472 58.9743 63.7054L60.1214 63.88L59.9898 65.0827C59.9522 65.5095 59.8769 66.0138 59.7641 66.6152C59.6325 67.4688 59.294 69.2535 58.6358 71.271C58.3913 71.9887 58.0716 72.9199 57.7143 73.754C57.3382 74.6852 57.0373 75.3835 56.7552 75.9267C56.5107 76.4311 56.2474 76.9355 55.9842 77.4398L55.4012 78.468L54.0096 78.0218C53.6523 77.9054 53.2197 77.7502 52.712 77.5562L52.618 77.5174C51.9974 77.2652 51.3204 76.9937 50.587 76.6445C50.2109 76.4634 49.8285 76.2759 49.4398 76.0819C49.0073 75.8685 48.6124 75.6551 48.2739 75.4611C47.5593 75.0538 46.807 74.6076 46.1112 74.1226C45.359 73.6182 44.8136 73.2109 44.3623 72.8423C43.8169 72.4155 43.422 72.0857 43.2152 71.9111L42.3125 71.0964ZM48.8757 61.3387C48.8192 61.5909 48.744 61.8819 48.6312 62.1922C48.4807 62.6772 48.2739 63.3174 48.0106 63.9964C47.8852 64.3326 47.7473 64.6688 47.5969 65.0051C47.4464 65.4125 47.2772 65.7423 47.1267 66.072C46.8258 66.654 46.4497 67.4106 46.036 68.0895C45.6035 68.8073 45.2462 69.3699 44.9265 69.816C44.6256 70.2234 44.3435 70.6114 44.099 70.9412C44.3811 71.174 44.7572 71.4844 45.1521 71.7753C45.5847 72.1245 46.1112 72.5125 46.8258 72.9975C47.484 73.463 48.2175 73.8898 48.8945 74.2778C49.233 74.4718 49.5903 74.6658 50.004 74.8792C50.3801 75.0732 50.7562 75.2542 51.1323 75.4223C51.8093 75.7521 52.4863 76.0237 53.0881 76.2565L53.1821 76.2953C53.6523 76.4893 54.066 76.6251 54.4045 76.7415L54.7994 76.8773L54.8558 76.7803C55.1003 76.2953 55.3636 75.8103 55.6081 75.3059C55.8713 74.7822 56.1534 74.1226 56.5295 73.2303C56.868 72.4155 57.1689 71.5231 57.4134 70.8248C57.8647 69.4281 58.2596 67.7985 58.5041 66.363C58.5981 65.8393 58.6546 65.3931 58.6922 65.0051C58.3161 64.9469 57.8647 64.8693 57.357 64.7529C56.0218 64.4813 54.5173 64.0546 53.2762 63.5696C52.6932 63.3368 51.9598 63.0458 51.2452 62.6772C50.5682 62.3474 50.0416 62.0565 49.6091 61.7849C49.3583 61.6426 49.1139 61.4939 48.8757 61.3387Z" fill="white" fill-opacity="0.05"/>
<path fill-rule="evenodd" clip-rule="evenodd" d="M45.209 70.7691L45.5663 70.2454C45.5663 70.2454 45.8672 69.8186 46.2433 69.159C46.4815 68.771 46.7009 68.3831 46.9015 67.9951C47.1272 67.5489 47.3528 67.1027 47.5785 66.6372C47.7854 66.2104 47.9734 65.7448 48.1427 65.2986L48.1803 65.2016C48.3307 64.7942 48.4812 64.4451 48.5752 64.1347C48.8009 63.4169 48.9325 62.9707 48.9325 62.9513L49.177 62.1172L49.9104 62.5828C49.9104 62.5828 50.3053 62.8349 50.9071 63.1647C51.2957 63.3717 51.6718 63.5592 52.0354 63.7273C52.4491 63.9407 52.9005 64.1347 53.333 64.3093C53.8031 64.5033 54.2733 64.6779 54.7058 64.833C55.1571 64.9688 55.5897 65.124 55.947 65.221C56.6616 65.415 57.1882 65.5508 57.1882 65.5508L57.8087 65.6866L57.6771 66.3268C57.6771 66.3462 57.5643 66.8699 57.3762 67.7041C57.2822 68.1309 57.1317 68.5964 57.0001 69.1008C56.8496 69.6052 56.6804 70.1872 56.4735 70.7497C56.2855 71.2735 56.0786 71.8167 55.853 72.3404C55.6649 72.806 55.4768 73.2522 55.2512 73.7566C54.8751 74.5713 54.5742 75.1145 54.5742 75.1339L54.3109 75.6189L53.7843 75.4249C53.7655 75.4249 53.2202 75.2309 52.4115 74.9011C52.0354 74.7653 51.6217 74.5713 51.1892 74.3773L51.0387 74.2997C50.4934 74.0476 50.0044 73.8342 49.4967 73.5432C49.0077 73.291 48.5376 73.0194 48.0674 72.7478C47.6412 72.4892 47.2337 72.2305 46.8451 71.9719C46.1681 71.5257 45.7167 71.1765 45.6979 71.1571L45.209 70.7691ZM49.948 64.1347C49.9104 64.264 49.8665 64.4063 49.8164 64.5615C49.7035 64.9106 49.5531 65.2986 49.4026 65.706L49.365 65.803C49.177 66.2686 48.9701 66.7729 48.7444 67.2385C48.5376 67.7041 48.2931 68.1697 48.0674 68.6352C47.8418 69.0491 47.6098 69.45 47.3716 69.838C47.2337 70.0837 47.1084 70.2906 46.9955 70.4587C47.1585 70.5751 47.3466 70.7045 47.5597 70.8467C47.9358 71.1054 48.3244 71.3576 48.7256 71.6033C49.177 71.8555 49.6471 72.1271 50.1172 72.3792C50.5874 72.6314 51.0575 72.8448 51.5653 73.097L51.7345 73.1552C52.1482 73.3492 52.5432 73.5432 52.8817 73.6596C53.2014 73.7954 53.4834 73.8924 53.7091 73.9894C53.8219 73.776 53.9348 73.5044 54.0852 73.194C54.3109 72.709 54.499 72.2628 54.687 71.8361C54.8939 71.3317 55.0819 70.7885 55.27 70.2842C55.458 69.7604 55.6273 69.1978 55.7589 68.7322C55.9094 68.2085 56.041 67.7817 56.135 67.3937C56.1977 67.1221 56.2479 66.8893 56.2855 66.6953C56.0974 66.6436 55.8718 66.5854 55.6085 66.5208C55.2324 66.4044 54.781 66.2492 54.3109 66.094C53.8408 65.9388 53.3518 65.7642 52.8629 65.5508C52.4115 65.3568 51.9414 65.1628 51.4901 64.9494C51.1139 64.7554 50.7253 64.555 50.3241 64.3481C50.1862 64.2705 50.0608 64.1993 49.948 64.1347Z" fill="white" fill-opacity="0.05"/>
<path d="M50.6803 66.1113C50.6803 66.1113 50.906 66.2277 51.2445 66.4023C51.583 66.5575 52.0343 66.7709 52.5044 66.9843C52.9746 67.1977 53.4635 67.3723 53.8208 67.5081C54.1969 67.6438 54.4414 67.7408 54.4414 67.7408C54.4414 67.7408 54.3474 67.993 54.2345 68.381C54.1029 68.769 53.9337 69.2928 53.7268 69.7971C53.5387 70.3015 53.3319 70.8253 53.1626 71.2133C52.9934 71.5818 52.8805 71.834 52.8805 71.834C52.8805 71.834 52.6173 71.737 52.2412 71.5624C51.865 71.4072 51.3761 71.1939 50.8871 70.9417C50.417 70.7089 49.9469 70.4567 49.5896 70.2627C49.4203 70.1657 49.2887 70.0881 49.1758 70.0299C49.0818 69.9717 49.0254 69.9329 49.0254 69.9329C49.0254 69.9329 49.063 69.8747 49.1006 69.7777C49.157 69.6613 49.2323 69.5255 49.3263 69.351C49.4955 68.9824 49.7212 68.4974 49.9281 68.0318C50.1537 67.5662 50.3418 67.0619 50.4734 66.7127C50.6051 66.3441 50.6803 66.1113 50.6803 66.1113Z" fill="white" fill-opacity="0.05"/>
<path fill-rule="evenodd" clip-rule="evenodd" d="M30.692 79.998L29.8269 78.8146C29.6201 78.5043 29.338 78.1163 29.0371 77.6313L28.9243 77.4373C28.5858 76.8941 28.1909 76.2928 27.8336 75.6138C27.633 75.2388 27.4261 74.8508 27.213 74.4499L27.1754 74.3723C27.0876 74.2042 26.9998 74.036 26.9121 73.8679L26.63 73.2471C26.2163 72.316 25.8966 71.54 25.6521 70.8611C25.5142 70.486 25.3826 70.1239 25.2572 69.7747C25.1632 69.4837 25.0879 69.2122 25.0127 68.9406L24.9563 68.766C24.7682 68.1258 24.6366 67.6408 24.5614 67.2917L24.2793 66.1083L25.4076 65.7979C25.7085 65.7203 26.1599 65.5652 26.724 65.3712L26.8745 65.3324C27.1001 65.2548 27.3258 65.1772 27.5703 65.0802C27.8837 64.9509 28.1971 64.8215 28.5106 64.6922C29.0747 64.4594 29.7141 64.149 30.4475 63.761C31.5383 63.1791 32.723 62.4225 33.7009 61.666C34.0394 61.4138 34.3027 61.181 34.5283 60.987L35.7319 59.9395L36.202 61.2974C36.3525 61.666 36.5029 62.0539 36.6722 62.4613C36.8602 62.8881 37.1047 63.4119 37.462 64.0908C37.7629 64.6728 38.1014 65.2354 38.5339 65.9337C38.7408 66.2441 38.9477 66.5545 39.1545 66.8261C39.3677 67.1235 39.5808 67.421 39.7939 67.7184C40.2076 68.2616 40.6402 68.7466 41.0351 69.2122C41.336 69.5613 41.6181 69.8523 41.8437 70.0851L42.8216 71.0745L41.8813 72.122C41.6557 72.3548 41.336 72.704 40.9787 73.0531C40.5273 73.4993 39.982 74.0231 39.3802 74.5469C39.0793 74.8055 38.7659 75.0642 38.4399 75.3228C38.1014 75.5944 37.7629 75.866 37.3868 76.1376C36.7474 76.6032 35.9764 77.1463 35.243 77.5925C34.3967 78.1163 33.7385 78.4849 33.2308 78.7564C32.5914 79.0862 32.0648 79.3578 31.7451 79.513L30.692 79.998ZM25.8402 67.0589C25.9154 67.3693 26.0282 67.8154 26.1975 68.3974L26.2539 68.572C26.3291 68.8048 26.4043 69.0764 26.4796 69.3286C26.5924 69.6648 26.7178 70.0204 26.8557 70.3955C27.1001 71.0551 27.401 71.7728 27.8148 72.6846L28.0968 73.2859C28.1595 73.4282 28.2347 73.5834 28.3225 73.7515L28.3601 73.8485C28.5607 74.2236 28.7613 74.5921 28.9619 74.9543C29.3192 75.5944 29.6765 76.1958 30.015 76.7196L30.1278 76.9135C30.4099 77.3597 30.6732 77.7283 30.8801 78.0193L31.1057 78.3491L31.1998 78.3103C31.5006 78.1551 32.0084 77.9029 32.6478 77.5731C33.1367 77.3209 33.7573 76.9523 34.5848 76.448C35.2806 76.0212 36.014 75.4974 36.6534 75.0512C36.9919 74.7991 37.3304 74.5275 37.6313 74.2753C37.9572 74.0166 38.2644 73.7644 38.5527 73.5187C39.1357 73.0144 39.6435 72.5294 40.0948 72.1026C40.4333 71.7534 40.7154 71.443 40.9411 71.2102L41.0163 71.1133L40.9223 71.0357C40.6966 70.7835 40.3957 70.4925 40.076 70.1045C39.6623 69.6389 39.2297 69.1152 38.7784 68.5332C38.5527 68.2357 38.3271 67.9318 38.1014 67.6214C37.8946 67.3305 37.6689 67.0007 37.462 66.6515C37.0107 65.9337 36.6534 65.3324 36.3337 64.7116C35.9576 64.0132 35.6943 63.4701 35.5062 62.9851C35.3809 62.7135 35.268 62.4484 35.1677 62.1897C34.9609 62.3449 34.7352 62.5389 34.4719 62.7329C33.8702 63.1985 32.629 64.1102 31.0493 64.9444C30.2783 65.3712 29.6013 65.6815 29.0183 65.9337C28.6798 66.0695 28.3601 66.2053 28.0404 66.3217C27.7771 66.4381 27.5327 66.5157 27.2882 66.5933L27.1377 66.6515C26.5861 66.8325 26.1536 66.9683 25.8402 67.0589Z" fill="white" fill-opacity="0.05"/>
<path fill-rule="evenodd" clip-rule="evenodd" d="M31.4231 77.0312L31.1034 76.5656C31.1034 76.5462 30.7649 76.0418 30.2947 75.3047C30.0502 74.9167 29.787 74.4511 29.5237 73.9855C29.298 73.5782 28.9971 73.035 28.715 72.453C28.4894 71.9874 28.2449 71.4443 28.0004 70.9205C27.8124 70.4549 27.6369 70.0023 27.4739 69.5626C27.3109 69.1617 27.1918 68.8383 27.1166 68.5926L26.7969 67.6227L27.7372 67.2735C27.944 67.1959 28.2261 67.0795 28.5834 66.9243C28.9846 66.7433 29.3858 66.5557 29.787 66.3617C30.1443 66.1872 30.558 65.9738 31.0846 65.6828C31.4419 65.4888 31.8368 65.256 32.3069 64.9456C32.7018 64.6934 33.0403 64.4606 33.3412 64.2473C33.9242 63.8205 34.2815 63.5295 34.2815 63.5295L34.9585 62.9863L35.2782 63.8011C35.2782 63.8011 35.4663 64.2667 35.7671 64.8874C35.8988 65.159 36.1056 65.5858 36.3501 66.032C36.5758 66.4393 36.8203 66.8661 37.0835 67.2929C37.328 67.7003 37.5913 68.0883 37.8358 68.4568L37.8922 68.5344C38.1555 68.9224 38.4187 69.3104 38.6632 69.6014C39.1334 70.2221 39.4907 70.6295 39.4907 70.6295L39.9044 71.1145L39.4342 71.5607C39.4154 71.5801 39.0393 71.9292 38.4187 72.4724C38.099 72.7634 37.7417 73.0544 37.3468 73.3454L37.1964 73.4618C36.8203 73.7528 36.3877 74.1019 35.9364 74.3929C35.4851 74.7033 35.0149 75.0137 34.5448 75.3241C34.037 75.6345 33.5481 75.906 33.2472 76.0806C32.4762 76.5268 31.9308 76.779 31.912 76.7984L31.4231 77.0312ZM28.433 68.418C28.4956 68.612 28.5771 68.8319 28.6774 69.0776C28.8404 69.5044 29.0097 69.9376 29.1852 70.3773C29.4109 70.8817 29.6553 71.4055 29.881 71.8517C30.1443 72.4142 30.4264 72.9186 30.6332 73.3066C30.8965 73.7528 31.1598 74.2183 31.3854 74.5869C31.5735 74.8779 31.7239 75.1301 31.8556 75.3241C32.0624 75.2271 32.3257 75.0913 32.6266 74.9167C32.9275 74.7421 33.3788 74.4705 33.8678 74.1795C34.3191 73.8885 34.7893 73.5782 35.2406 73.2872C35.6355 72.9962 36.0492 72.6858 36.4253 72.3948L36.557 72.2978C36.9519 71.9874 37.2904 71.7159 37.5725 71.4637C37.7731 71.2826 37.9486 71.1274 38.099 70.9981C37.9737 70.8429 37.8295 70.6554 37.6665 70.4355C37.4032 70.1251 37.1212 69.7178 36.8391 69.3104L36.7827 69.2328C36.5194 68.8448 36.2373 68.4374 35.974 67.9913C35.7295 67.5645 35.4663 67.1183 35.2218 66.6721C34.9585 66.2066 34.7516 65.7604 34.62 65.4888C34.5448 65.3465 34.4821 65.2107 34.432 65.0814C34.3191 65.159 34.2 65.2431 34.0746 65.3336C33.7738 65.5664 33.3976 65.7992 33.0027 66.0708C32.495 66.4005 32.0812 66.6527 31.6863 66.8661C31.141 67.1571 30.7084 67.3899 30.3323 67.5839C29.9186 67.7779 29.5049 67.9654 29.0912 68.1465C28.8404 68.2499 28.621 68.3404 28.433 68.418Z" fill="white" fill-opacity="0.05"/>
<path d="M33.9073 67.1387C33.9073 67.1387 34.0201 67.3715 34.2082 67.7206C34.3774 68.0504 34.6219 68.4966 34.8852 68.9622C35.1484 69.4084 35.4305 69.8545 35.6374 70.1843C35.8631 70.5141 36.0135 70.7275 36.0135 70.7275C36.0135 70.7275 35.8066 70.8827 35.4869 71.1349C35.1672 71.3676 34.7347 71.678 34.2834 71.969C33.832 72.26 33.3619 72.551 33.0046 72.7644C32.6661 72.9778 32.4216 73.0942 32.4216 73.0942C32.4216 73.0942 32.2712 72.8614 32.0643 72.5122C31.8387 72.1436 31.5754 71.678 31.3309 71.1737C31.0676 70.6887 30.8232 70.2037 30.6539 69.8545C30.4847 69.4859 30.3906 69.2338 30.3906 69.2338C30.3906 69.2338 30.6163 69.1174 30.9736 68.9428C31.3121 68.7488 31.7634 68.4966 32.2148 68.2444C32.6473 67.9922 33.0798 67.7012 33.3995 67.4879C33.7004 67.2745 33.9073 67.1387 33.9073 67.1387Z" fill="white" fill-opacity="0.05"/>
<path fill-rule="evenodd" clip-rule="evenodd" d="M9.79688 66.2699V65.0671C9.79688 64.5046 9.81568 63.9226 9.83449 63.36C9.85329 62.6035 9.92851 61.6917 10.0037 60.9933C10.0413 60.5472 10.1166 60.0816 10.173 59.6742C10.2357 59.2345 10.3046 58.7948 10.3798 58.3551C10.5303 57.4821 10.7372 56.6286 10.9252 55.8332C11.1509 54.9991 11.3954 54.2619 11.5646 53.7187C11.7339 53.2144 11.9031 52.7682 12.0159 52.4578L12.5425 51.1387L13.8025 51.643C14.1034 51.7594 14.4795 51.8952 14.9308 52.031C15.4198 52.1862 16.0591 52.3802 16.7738 52.5548C17.4319 52.71 18.1466 52.8652 18.8612 52.9816C19.2247 53.0333 19.5821 53.0786 19.9331 53.1174C20.3092 53.1562 20.6101 53.195 20.9298 53.2144C21.7008 53.2532 22.2462 53.2532 22.6975 53.2532C23.1112 53.2532 23.525 53.2338 23.9387 53.195L25.2927 53.1174L24.9542 54.4753C24.8414 54.8633 24.7473 55.2901 24.6533 55.7168C24.5593 56.163 24.4652 56.7256 24.3712 57.5209C24.3148 57.8313 24.296 58.1611 24.2584 58.5491C24.2208 58.8983 24.1957 59.2668 24.1832 59.6548C24.1455 60.392 24.1644 61.1485 24.1832 61.8469C24.202 62.6035 24.2772 63.3018 24.3148 63.8062C24.3712 64.2912 24.4276 64.6985 24.484 65.0283L24.7097 66.4057L23.3557 66.6772C23.036 66.7354 22.5847 66.8324 22.0769 66.8906C21.5316 66.9682 20.7793 67.0652 19.9519 67.1234C19.1433 67.1622 18.297 67.201 17.4319 67.201C17.0057 67.1881 16.5732 67.1751 16.1344 67.1622C15.7206 67.1428 15.2693 67.1234 14.8556 67.0652C14.1222 67.007 13.2947 66.91 12.5613 66.7936C12.0159 66.6966 11.4706 66.5996 10.944 66.5027L9.79688 66.2699ZM13.2571 52.8458L13.2195 52.9428C13.0879 53.2726 12.9374 53.6605 12.787 54.1455C12.6177 54.6693 12.392 55.3677 12.1852 56.163C11.9971 56.9196 11.7903 57.7537 11.6398 58.5879C11.5834 59.0147 11.5082 59.4414 11.4518 59.8682C11.3954 60.2562 11.3201 60.7024 11.2825 61.1097C11.2261 61.8081 11.1509 62.6811 11.1133 63.4182C11.0945 63.9614 11.0945 64.524 11.0757 65.0671V65.1641L11.1885 65.1835C11.6962 65.2999 12.2416 65.3969 12.7682 65.4745C13.4452 65.5909 14.3102 65.6685 14.9684 65.7461C15.3633 65.7849 15.7959 65.8043 16.1908 65.8237C16.617 65.8496 17.037 65.8625 17.4508 65.8625C18.2782 65.8819 19.1056 65.8431 19.8579 65.7849C20.6477 65.7267 21.3623 65.6491 21.9077 65.5715C22.3778 65.5133 22.7915 65.4357 23.13 65.3581L23.2241 65.3387L23.2053 65.2417C23.1489 64.8925 23.0924 64.4658 23.036 63.9614C22.9796 63.4182 22.9044 62.7005 22.8856 61.9051C22.8668 61.1679 22.848 60.3726 22.8856 59.5772C22.9106 59.1892 22.9357 58.8077 22.9608 58.4327C22.9984 58.0253 23.036 57.6761 23.0736 57.3269C23.1865 56.5122 23.2805 55.9302 23.3933 55.4258C23.456 55.1284 23.5187 54.8374 23.5814 54.5529C23.293 54.5658 23.0047 54.5788 22.7163 54.5917C22.2274 54.5917 21.6632 54.5723 20.8546 54.5335C20.5161 54.5141 20.1776 54.4947 19.7826 54.4365C19.4191 54.3977 19.0492 54.3524 18.6731 54.3007C17.9021 54.1843 17.1687 54.0291 16.4729 53.8545C15.7206 53.6799 15.0436 53.4665 14.5359 53.3114C14.0657 53.1562 13.6708 53.001 13.3511 52.8846L13.2571 52.8458Z" fill="white" fill-opacity="0.05"/>
<path fill-rule="evenodd" clip-rule="evenodd" d="M12.0898 64.3118L12.1086 63.7492C12.1086 63.7104 12.1275 63.109 12.1651 62.2167C12.2027 61.4019 12.3343 60.238 12.5224 58.9771C12.5976 58.3757 12.7292 57.7743 12.8233 57.2894C12.9361 56.7268 13.0489 56.2612 13.1618 55.8538C13.3686 55.0391 13.5191 54.5347 13.5379 54.5153L13.7259 53.8945L14.3277 54.0691C14.3277 54.0691 14.8355 54.2243 15.5689 54.3989C15.9199 54.4894 16.3399 54.5864 16.8289 54.6899C17.2614 54.7481 17.7691 54.8451 18.2769 54.9227C19.33 55.0391 20.2515 55.1167 20.9285 55.1167C21.6431 55.1361 22.1132 55.1361 22.1132 55.1361L22.9407 55.1167L22.7526 55.9314C22.7526 55.9508 22.6586 56.4164 22.5458 57.1342C22.4141 57.8325 22.3013 58.7831 22.2261 59.8694C22.1884 60.3932 22.1885 60.9364 22.1696 61.3631C22.1696 61.8869 22.1696 62.3331 22.1885 62.6823C22.2261 63.4776 22.2637 64.0208 22.2637 64.0208L22.3201 64.6804L21.6995 64.7386C21.6807 64.758 21.1541 64.8161 20.3455 64.8743C19.9506 64.8937 19.4804 64.9131 18.9163 64.9325C18.4085 64.9325 17.8256 64.9325 17.2614 64.9131C16.0014 64.8549 14.8919 64.758 14.102 64.6416C13.2558 64.5252 12.6728 64.4282 12.6352 64.4088L12.0898 64.3118ZM14.591 55.524C14.5408 55.718 14.4844 55.9444 14.4217 56.203C14.3089 56.591 14.2149 57.0372 14.102 57.5609C14.008 58.0653 13.8952 58.6279 13.8012 59.1711C13.6319 60.3932 13.5003 61.4989 13.4815 62.2943C13.4438 62.6435 13.4438 62.9538 13.425 63.1866C13.6507 63.2254 13.9516 63.2642 14.2901 63.3224C15.0423 63.4388 16.1142 63.5358 17.3178 63.5746C17.8632 63.6134 18.4085 63.594 18.9163 63.594C19.4428 63.594 19.8754 63.5746 20.2515 63.5358C20.5148 63.5229 20.7467 63.5035 20.9473 63.4776C20.9347 63.2707 20.9222 63.0314 20.9097 62.7599C20.8909 62.3719 20.8721 61.8869 20.8909 61.3437C20.8909 60.8976 20.9097 60.335 20.9473 59.7724C21.0225 58.6279 21.1353 57.6385 21.267 56.9014C21.3046 56.7462 21.3297 56.6039 21.3422 56.4746C21.2168 56.4617 21.0727 56.4552 20.9097 56.4552C20.1951 56.4552 19.236 56.3776 18.1264 56.2418C17.5811 56.1642 17.0545 56.0672 16.622 55.9896C16.0954 55.8926 15.6441 55.7956 15.268 55.6986C15.0172 55.634 14.7916 55.5758 14.591 55.524Z" fill="white" fill-opacity="0.05"/>
<path d="M19.746 57.8131C19.746 57.8131 19.5956 58.8219 19.5016 59.8694C19.464 60.3932 19.4452 60.917 19.4263 61.3243C19.4075 61.7317 19.4075 62.0033 19.4075 62.0033C19.4075 62.0033 19.1443 62.0033 18.7493 62.0033C18.3544 61.9839 17.8279 61.9839 17.2825 61.9451C16.2294 61.8675 15.1387 61.7317 15.1387 61.7317C15.1387 61.7317 15.2139 60.5872 15.3455 59.5202C15.4208 58.9771 15.5148 58.4339 15.59 58.0265C15.6652 57.6385 15.7028 57.3669 15.7028 57.3669C15.7028 57.3669 15.9661 57.4057 16.3422 57.4833C16.7371 57.5415 17.2449 57.6191 17.7527 57.6773C18.7682 57.7743 19.746 57.8131 19.746 57.8131Z" fill="white" fill-opacity="0.05"/>
<path fill-rule="evenodd" clip-rule="evenodd" d="M0.751953 42.4885L1.41015 41.5185C1.63582 41.2081 1.97432 40.7425 2.42565 40.1412C2.78296 39.6562 3.2531 39.0936 3.91129 38.3371C4.47546 37.6775 5.15246 36.9985 5.71663 36.436C6.03633 36.1062 6.39363 35.7958 6.69452 35.5436C7.00795 35.2591 7.31511 34.9875 7.616 34.7289C8.23658 34.2051 8.81956 33.7783 9.32731 33.4097C9.75984 33.0993 10.1359 32.8472 10.418 32.6532L11.584 31.916L12.3362 33.0993C12.5055 33.3709 12.7311 33.7007 13.0132 34.0887C13.3517 34.5543 13.7466 35.0974 14.198 35.6406C14.4236 35.8928 14.6681 36.1838 14.9126 36.4554C15.1382 36.7076 15.3827 36.9791 15.646 37.2313C16.229 37.8133 16.6991 38.2789 17.1881 38.6863C17.771 39.1712 18.2036 39.5204 18.5985 39.792C18.9495 40.0506 19.288 40.2834 19.614 40.4904L20.8175 41.2469L19.5764 42.2557C19.3507 42.4303 19.0874 42.663 18.7865 42.954C17.8651 43.8076 16.906 44.8551 16.1537 45.8445C15.646 46.5234 15.2323 47.1054 14.8938 47.6098C14.7057 47.9202 14.5239 48.2176 14.3484 48.5021C14.2168 48.7155 14.0851 48.9483 13.9723 49.1423L13.8971 49.2975C13.615 49.8407 13.3893 50.2674 13.2389 50.5584L12.7311 51.6254L11.6592 51.1404C11.3395 50.9852 10.907 50.7524 10.324 50.442L10.1736 50.345C9.92909 50.2286 9.68461 50.0928 9.44014 49.9377C9.12671 49.7566 8.80702 49.5561 8.48106 49.3363C7.87928 48.9677 7.20227 48.5021 6.39363 47.8814L5.86708 47.474C5.71663 47.3576 5.58499 47.2412 5.43455 47.1248L5.35932 47.0472C5.02082 46.7756 4.69486 46.4976 4.38143 46.213C3.79846 45.7087 3.29071 45.2043 2.83938 44.7387L2.68893 44.6029C2.29401 44.1956 1.97432 43.8464 1.72984 43.5748L0.751953 42.4885ZM11.1891 33.7395L11.095 33.7977C10.8129 33.9723 10.4744 34.2051 10.0607 34.4961C9.59059 34.8453 9.00761 35.272 8.42464 35.7764C8.14255 36.0092 7.82286 36.2808 7.52197 36.5524C7.22108 36.824 6.90139 37.0955 6.6193 37.4059C6.05513 37.9491 5.41574 38.5893 4.87038 39.2294C4.23099 39.9666 3.77965 40.5098 3.44115 40.9753C2.97101 41.5767 2.61371 42.0617 2.44446 42.2945L2.38804 42.3721L2.67012 42.663C2.89579 42.9346 3.19668 43.2838 3.57279 43.633L3.72324 43.7882C4.15577 44.2344 4.66352 44.7193 5.20888 45.2043C5.52231 45.4759 5.842 45.7475 6.16797 46.0191L6.24319 46.0967C6.3811 46.2001 6.51274 46.31 6.63811 46.4264L7.14586 46.8144C7.93569 47.3964 8.57508 47.8426 9.13925 48.2111C9.47775 48.4181 9.79118 48.6121 10.0795 48.7931C10.324 48.9289 10.5497 49.0647 10.7753 49.1811L10.9258 49.2781C11.4335 49.5497 11.8285 49.7437 12.1105 49.8795C12.261 49.5691 12.4741 49.1617 12.7499 48.6573L12.844 48.5021C12.9568 48.2693 13.0884 48.0366 13.2389 47.8038C13.4144 47.5063 13.6024 47.2024 13.803 46.892C14.1603 46.3488 14.5929 45.7281 15.1382 45.0103C16.229 43.5942 17.3385 42.4885 17.9027 41.9647C18.1283 41.7513 18.354 41.5573 18.5609 41.3827C18.3227 41.2275 18.0845 41.0659 17.8462 40.8977C17.4325 40.6068 16.9624 40.2382 16.3606 39.7144C15.834 39.2876 15.3451 38.8026 14.7433 38.2013C14.4612 37.9297 14.198 37.6387 13.9535 37.3671C13.7027 37.0826 13.452 36.7981 13.2013 36.5136C12.7311 35.9316 12.3174 35.369 11.9601 34.8841C11.6592 34.4767 11.4335 34.1275 11.2455 33.8365L11.1891 33.7395Z" fill="white" fill-opacity="0.05"/>
<path fill-rule="evenodd" clip-rule="evenodd" d="M3.72266 42.291L4.04235 41.8448C4.06116 41.8254 4.39966 41.3405 4.98263 40.6421C5.2083 40.3511 5.5468 39.9243 5.94172 39.4782C6.33037 39.0514 6.71902 38.6311 7.10766 38.2172C7.46497 37.8292 7.87869 37.4607 8.236 37.1309L8.34883 37.0145C8.72495 36.6847 9.06345 36.3549 9.40195 36.0833C10.0225 35.579 10.4551 35.2492 10.4739 35.2298L10.9816 34.8418L11.3577 35.3656C11.3577 35.3656 11.6962 35.7923 12.1852 36.3937C12.4297 36.7041 12.7305 37.0533 13.0502 37.3831L13.1067 37.4607C13.4075 37.7904 13.7272 38.1202 14.0657 38.45C14.4168 38.7863 14.7741 39.116 15.1377 39.4394C15.4197 39.6915 15.7394 39.9437 16.0967 40.2347C16.5857 40.6227 16.943 40.8749 17.037 40.9331L17.3943 41.1853L17.2815 41.8448L17.1122 42C17.1122 42 16.7549 42.3104 16.2472 42.8342C15.9839 43.067 15.7206 43.3773 15.3821 43.7265C15.006 44.1533 14.7051 44.5025 14.4419 44.8323C14.0657 45.2978 13.7837 45.6858 13.5392 46.0156C13.2947 46.3648 13.0314 46.7334 12.787 47.1213C12.5801 47.4511 12.4108 47.7227 12.298 47.9167L11.7903 48.7897L10.9252 48.2853C10.6995 48.1495 10.4175 47.9749 10.0601 47.7421C9.68403 47.4899 9.28912 47.2183 8.87539 46.9274C8.40525 46.5976 7.95392 46.229 7.559 45.9186C7.05125 45.5306 6.59991 45.1233 6.26141 44.8129C5.82888 44.4249 5.45277 44.0757 5.13308 43.7653C4.5313 43.164 4.11757 42.7178 4.09877 42.6984L3.72266 42.291ZM10.7371 36.6847C10.5867 36.814 10.4049 36.9628 10.1918 37.1309C9.89089 37.3831 9.5712 37.674 9.21389 38.0038L9.10106 38.1202C8.72495 38.45 8.36764 38.7992 8.02914 39.1484C7.64049 39.5493 7.25811 39.9567 6.882 40.3705C6.52469 40.7973 6.18619 41.2047 5.96052 41.4956C5.73486 41.7478 5.56561 41.9806 5.41516 42.1746C5.58441 42.3492 5.79127 42.5626 6.03575 42.8148C6.31783 43.0864 6.69394 43.4355 7.10766 43.8041C7.42736 44.0951 7.85989 44.4831 8.33003 44.8517C8.72495 45.162 9.17628 45.5112 9.60881 45.841C10.0037 46.0932 10.3798 46.3648 10.756 46.617C10.9816 46.7592 11.1697 46.8821 11.3201 46.9855C11.433 46.811 11.5646 46.5976 11.715 46.3648C11.9783 45.9768 12.2416 45.5888 12.4861 45.2202C12.7493 44.8711 13.0502 44.4637 13.4452 43.9787C13.7084 43.6295 14.0281 43.2609 14.4419 42.8148C14.7804 42.4268 15.0812 42.1164 15.3445 41.8642C15.4574 41.7478 15.5639 41.6444 15.6642 41.5538C15.5514 41.4762 15.4323 41.3857 15.3069 41.2823C14.9308 40.9719 14.6111 40.7197 14.3102 40.4481C13.9216 40.1119 13.5455 39.7691 13.1819 39.42C12.8246 39.0708 12.4861 38.7216 12.1664 38.3724L12.11 38.2948C11.7715 37.9456 11.4518 37.5771 11.1885 37.2473C11.013 37.0404 10.8625 36.8528 10.7371 36.6847Z" fill="white" fill-opacity="0.05"/>
<path d="M13.6137 41.6916C13.6137 41.6916 13.4257 41.8662 13.1812 42.1378C12.9179 42.4288 12.5606 42.7974 12.2409 43.2047C11.9024 43.5927 11.5827 44.0001 11.3194 44.3299C11.0938 44.6403 10.9433 44.8537 10.9433 44.8537C10.9433 44.8537 10.7177 44.6985 10.398 44.4657C10.0971 44.2135 9.68335 43.8837 9.26963 43.5345C8.8371 43.1853 8.44218 42.8168 8.14129 42.5258C7.8404 42.2348 7.65234 42.0602 7.65234 42.0602C7.65234 42.0602 7.82159 41.8274 8.08487 41.517C8.34815 41.2067 8.72426 40.7799 9.08157 40.3919C9.43888 39.9845 9.83379 39.5965 10.1159 39.3249C10.398 39.0534 10.586 38.8594 10.586 38.8594C10.586 38.8594 10.7741 39.0534 11.0562 39.3443C11.3194 39.6353 11.6767 40.0039 12.0717 40.3531C12.4478 40.7023 12.8239 41.0321 13.1248 41.2842C13.4069 41.5364 13.6137 41.6916 13.6137 41.6916Z" fill="white" fill-opacity="0.05"/>
<path fill-rule="evenodd" clip-rule="evenodd" d="M11.4711 32.4415L10.8693 31.3746C10.7377 31.103 10.4932 30.6568 10.1923 30.0167C9.92904 29.4929 9.64696 28.8527 9.32726 27.9992C8.98876 27.2038 8.72548 26.3502 8.4622 25.5549C8.33056 25.1669 8.21773 24.7401 8.08609 24.2552C7.97326 23.8284 7.87296 23.4016 7.7852 22.9748C7.59715 22.1795 7.46551 21.4035 7.35267 20.7439L7.33387 20.647C7.23984 20.1038 7.18342 19.6382 7.12701 19.2502L6.97656 17.7565L8.04848 17.3685C8.58758 17.2004 9.12667 17.0387 9.66576 16.8836C10.2299 16.709 10.9445 16.515 11.9036 16.321C12.7687 16.1076 13.7278 15.9718 14.4424 15.8748C16.4922 15.6032 18.2411 15.5838 19.1062 15.6226C19.7644 15.6226 20.3285 15.6614 20.5918 15.6808L21.7766 15.7778L21.7013 16.9805C21.6825 17.3685 21.6637 17.8341 21.6825 18.3967C21.6825 19.7546 21.7954 21.2677 22.021 22.5674C22.1151 23.1494 22.2467 23.9254 22.4348 24.6431C22.6228 25.3803 22.7733 25.9429 22.9425 26.389C23.0804 26.8029 23.2183 27.2038 23.3562 27.5918L23.9016 28.9109L22.3219 28.9691C22.0398 28.9885 21.6825 29.0079 21.3064 29.0661C20.8363 29.1243 20.1969 29.2019 19.5387 29.3183C19.2253 29.383 18.893 29.4541 18.542 29.5317C18.1659 29.6287 17.8274 29.7063 17.5265 29.8033C16.9435 29.9779 16.1725 30.2106 15.4955 30.4822C14.7684 30.7667 14.1854 31.0189 13.7466 31.2388C13.1072 31.5492 12.6747 31.7626 12.4866 31.8596L11.4711 32.4415ZM8.36818 18.6877L8.42459 19.1144C8.4622 19.4636 8.51862 19.9098 8.59384 20.4336L8.61265 20.5306C8.72548 21.1707 8.85712 21.9079 9.02637 22.6838C9.12667 23.0977 9.23323 23.5115 9.34607 23.9254C9.4589 24.3716 9.57173 24.7789 9.68457 25.1475C9.92904 25.9235 10.2111 26.7576 10.512 27.4948C10.8317 28.3289 11.095 28.9303 11.3395 29.4347C11.5651 29.8809 11.772 30.3076 11.96 30.6568C12.3174 30.4628 12.7499 30.2494 13.1824 30.036C13.6714 29.8033 14.2731 29.5511 15.0442 29.2601C15.7588 28.9691 16.5486 28.7169 17.1692 28.5423C17.4889 28.4453 17.8462 28.3483 18.2599 28.2513C18.6235 28.1737 18.9683 28.1026 19.2942 28.038C19.99 27.9022 20.667 27.8052 21.1372 27.747C21.4569 27.7082 21.7578 27.6888 22.0022 27.6694C21.9019 27.3978 21.8079 27.1262 21.7202 26.8546C21.5509 26.3696 21.3817 25.7683 21.1936 25.0117C20.9867 24.2358 20.8363 23.421 20.7423 22.8002C20.5166 21.4423 20.385 19.8322 20.385 18.4355C20.3662 17.8923 20.385 17.4073 20.4038 17.0193C20.0276 16.9999 19.5951 16.9611 19.0874 16.9611C17.6769 16.9224 16.0409 17.0193 14.6116 17.2133C13.9158 17.3103 13.0132 17.4461 12.1669 17.6401C11.2454 17.8341 10.5496 18.0087 10.0231 18.1833C9.49651 18.3255 8.97622 18.4807 8.4622 18.6489L8.36818 18.6877Z" fill="white" fill-opacity="0.05"/>
<path fill-rule="evenodd" clip-rule="evenodd" d="M12.335 29.5487L12.0529 28.9668C12.0341 28.9474 11.8085 28.443 11.5076 27.6476C11.3383 27.2209 11.1691 26.7553 11.0186 26.2897C10.8306 25.7465 10.6613 25.2034 10.5109 24.6602C10.3416 24.0782 10.21 23.4769 10.0971 22.9919L10.0595 22.8173C9.9467 22.3323 9.85267 21.8668 9.77745 21.4594C9.62701 20.5864 9.55179 19.9851 9.55179 19.9657L9.47656 19.4225L9.98431 19.2479C10.0595 19.2285 10.6049 19.0345 11.4323 18.8211C11.9589 18.6853 12.429 18.5689 12.8616 18.4719C13.4383 18.3555 13.9962 18.2521 14.5353 18.1616C15.0994 18.0646 15.6824 18.0064 16.1902 17.9482C16.6979 17.89 17.1681 17.8512 17.6006 17.8318C18.4092 17.793 18.9358 17.793 18.9546 17.793H19.594L19.6128 18.4331C19.6128 18.4331 19.6316 18.9957 19.688 19.7717C19.7068 20.1402 19.7632 20.6058 19.8196 21.0908C19.8761 21.5564 19.9513 22.0607 20.0453 22.5651C20.1331 23.0566 20.2334 23.5415 20.3462 24.02C20.4402 24.408 20.5531 24.8154 20.6659 25.2422C20.854 25.9017 21.0044 26.3285 21.0232 26.3867L21.2301 26.9105L20.6283 27.2597L20.4778 27.2791C20.4778 27.2791 20.0077 27.3179 19.3119 27.4149C18.9734 27.4731 18.6161 27.5313 18.2024 27.6282H18.1083C17.657 27.7252 17.1869 27.8222 16.7167 27.958C16.2403 28.0874 15.7639 28.2231 15.2875 28.3654C14.9114 28.5012 14.4977 28.6564 14.0839 28.8116C13.3693 29.0638 12.8992 29.2772 12.8992 29.2966L12.335 29.5487ZM10.9246 20.3342C10.9622 20.567 10.9998 20.8774 11.075 21.2266C11.1315 21.5952 11.2255 22.0413 11.3195 22.5069L11.3571 22.6621C11.47 23.1277 11.6016 23.7097 11.7708 24.2722C11.9213 24.8025 12.078 25.3262 12.241 25.8435C12.3914 26.2897 12.5607 26.7359 12.7299 27.1433C12.8177 27.4019 12.8992 27.6218 12.9744 27.8028C13.1625 27.7252 13.3881 27.6347 13.6514 27.5313C14.0651 27.3761 14.4977 27.2209 14.9114 27.0851C15.4129 26.9299 15.9081 26.7876 16.397 26.6583C16.886 26.5031 17.4125 26.4061 17.8639 26.3091L17.9579 26.2897C18.3904 26.2121 18.7853 26.1345 19.1426 26.0763C19.2931 26.0634 19.431 26.0505 19.5564 26.0375C19.5188 25.8953 19.4811 25.7465 19.4435 25.5914C19.3119 25.1646 19.1991 24.7378 19.0862 24.3304C18.9734 23.8131 18.8731 23.3023 18.7853 22.7979C18.6725 22.2547 18.6161 21.731 18.5409 21.246C18.4844 20.7222 18.428 20.2566 18.4092 19.8299C18.3842 19.5583 18.3653 19.319 18.3528 19.1121C18.1648 19.125 17.9328 19.138 17.657 19.1509C17.2621 19.1703 16.8107 19.2091 16.3218 19.2479C15.8329 19.3061 15.2875 19.3643 14.7609 19.4613C14.2218 19.5518 13.6827 19.6488 13.1437 19.7523C12.7299 19.8493 12.2598 19.9657 11.752 20.1014C11.4323 20.179 11.1503 20.2566 10.9246 20.3342Z" fill="white" fill-opacity="0.05"/>
<path d="M17.829 24.9153C17.829 24.9153 17.5845 24.9541 17.2084 25.0123C16.8511 25.0899 16.3433 25.1675 15.8544 25.3033C15.3654 25.4197 14.8577 25.5555 14.4816 25.6525C14.2935 25.7107 14.1431 25.7689 14.0302 25.8077C13.9362 25.8271 13.861 25.8465 13.861 25.8465C13.861 25.8465 13.8422 25.7883 13.8046 25.6719C13.767 25.5555 13.7105 25.4003 13.6541 25.2063C13.5413 24.8183 13.4096 24.2945 13.2592 23.7708C13.1088 23.2276 13.0147 22.7038 12.9207 22.2771C12.8455 21.8697 12.7891 21.5981 12.7891 21.5981C12.7891 21.5981 13.0523 21.5205 13.4473 21.4235C13.861 21.3265 14.3875 21.2101 14.9141 21.1131C15.4218 20.9967 15.9484 20.9385 16.3433 20.8803C16.7382 20.8415 17.0015 20.8027 17.0015 20.8027C17.0015 20.8027 17.0391 21.0743 17.0955 21.4623C17.152 21.8503 17.2272 22.3741 17.34 22.8978C17.4529 23.4022 17.5657 23.9066 17.6597 24.2752C17.7537 24.6631 17.829 24.9153 17.829 24.9153Z" fill="white" fill-opacity="0.05"/>
<path fill-rule="evenodd" clip-rule="evenodd" d="M21.3633 16.1211L21.4949 14.9184C21.5513 14.4916 21.6078 13.9678 21.7206 13.3858C22.2283 10.3014 23.3943 6.73199 24.7483 4.05494C24.9928 3.56996 25.256 3.06559 25.5193 2.56122L26.1023 1.51367L27.193 1.88225C31.7628 3.43417 34.9785 5.23827 38.2883 8.08992L39.191 8.88528L38.4576 9.81643C38.3259 9.99102 38.025 10.379 37.6301 10.961C37.3292 11.3748 36.9719 11.9244 36.5582 12.6099C36.1821 13.2306 35.806 13.9678 35.5239 14.5304C35.3735 14.8214 35.2418 15.1317 35.0726 15.5003C34.9347 15.8366 34.803 16.1599 34.6777 16.4703C34.4332 17.1104 34.2451 17.7312 34.0947 18.1968C33.963 18.5848 33.8878 18.9339 33.8126 19.2249L33.4365 20.8156L32.2705 20.0009C29.2804 18.0222 26.0835 16.8195 22.5292 16.2763L21.3633 16.1211ZM26.6853 3.12379L26.6289 3.22078C26.3844 3.70575 26.1211 4.19073 25.8954 4.6757C24.5978 7.25576 23.4883 10.67 22.9994 13.6186C22.8865 14.1424 22.8301 14.608 22.7925 14.9959C26.3468 15.5391 29.5813 16.7419 32.609 18.6624C32.6843 18.4102 32.7595 18.1192 32.8535 17.8088C33.0039 17.3238 33.2108 16.6643 33.4741 15.9853C33.5995 15.662 33.7374 15.3257 33.8878 14.9765C34.0571 14.5886 34.2075 14.2394 34.3768 13.929C34.6588 13.347 35.0538 12.5905 35.4675 11.9115C35.8812 11.1938 36.2573 10.6312 36.577 10.185C36.8591 9.77763 37.1412 9.38965 37.3857 9.05987C34.2263 6.36341 31.1422 4.6563 26.7793 3.16258L26.6853 3.12379Z" fill="white" fill-opacity="0.05"/>
<path fill-rule="evenodd" clip-rule="evenodd" d="M23.4688 15.5006L23.8261 13.6577C23.8261 13.6383 23.9201 13.1145 24.1269 12.2998C25.0296 8.4006 26.8538 5.00578 26.929 4.86998L27.1923 4.38501L27.7 4.5596C31.2355 5.80113 34.2632 7.64403 35.7864 8.82737L36.2942 9.21535L35.9181 9.73912C35.9181 9.75852 35.636 10.1853 35.2411 10.8449C35.0154 11.2328 34.796 11.6208 34.5829 12.0088C34.376 12.4356 34.1315 12.9012 33.9247 13.3473C33.7178 13.7935 33.5297 14.2591 33.3605 14.7053L33.3229 14.7829C33.1536 15.1902 33.022 15.5394 32.928 15.8692C32.6835 16.5676 32.5519 17.0331 32.5519 17.0331L32.3074 17.8867L31.5928 17.4211C29.5618 16.102 25.6502 14.6859 24.6723 14.4725L23.4688 15.5006ZM27.8128 6.01452C27.2863 7.08146 26.0639 9.73912 25.3869 12.6102C25.3368 12.843 25.2866 13.0563 25.2365 13.2503C25.7442 13.3667 26.4965 13.6189 27.6248 14.0651C28.3958 14.3561 30.1447 15.0544 31.574 15.8498C31.6116 15.7205 31.6555 15.5847 31.7056 15.4424C31.8184 15.0932 31.9689 14.7053 32.1193 14.2785L32.1569 14.2009C32.345 13.7353 32.5519 13.2309 32.7775 12.7654C32.9844 12.2998 33.2289 11.8342 33.4545 11.3686C33.6802 10.9548 33.9121 10.5474 34.1503 10.1465C34.2882 9.90078 34.4136 9.69386 34.5264 9.52573C33.0596 8.47819 30.6337 7.06207 27.8128 6.01452Z" fill="white" fill-opacity="0.05"/>
<path d="M30.8029 13.8886C30.8029 13.8886 30.5772 13.7528 30.2387 13.5976C29.919 13.423 29.4489 13.2096 28.9787 12.9962C28.5086 12.7828 28.0384 12.6082 27.6811 12.4725C27.305 12.3367 27.0605 12.2591 27.0605 12.2591C27.0605 12.2591 27.1358 11.9875 27.2674 11.5995C27.3802 11.2309 27.5683 10.6877 27.7564 10.2028C27.9632 9.679 28.1701 9.17463 28.3393 8.78665C28.5086 8.39867 28.6214 8.14648 28.6214 8.14648C28.6214 8.14648 28.8659 8.26288 29.2608 8.41807C29.6369 8.57326 30.1259 8.78665 30.596 9.03884C31.0849 9.29102 31.5551 9.52381 31.8936 9.7178C32.0628 9.8148 32.2133 9.91179 32.3073 9.96999C32.4201 10.0282 32.4766 10.0476 32.4766 10.0476C32.4766 10.0476 32.4389 10.1058 32.3825 10.2222C32.3261 10.3192 32.2509 10.455 32.1757 10.649C31.9876 10.9981 31.7619 11.4831 31.5551 11.9681C31.3482 12.4337 31.1602 12.9186 31.0285 13.2872C30.8969 13.6364 30.8029 13.8886 30.8029 13.8886Z" fill="white" fill-opacity="0.05"/>
<path fill-rule="evenodd" clip-rule="evenodd" d="M45.7714 20.0605L45.2824 18.6832C45.1508 18.334 45.0003 17.9266 44.8123 17.5386C44.6242 17.0924 44.3797 16.5687 44.0412 15.9091C43.7403 15.3271 43.383 14.7452 42.9505 14.0662C42.7625 13.7364 42.5556 13.4454 42.3487 13.1544C42.1356 12.857 41.9225 12.566 41.7093 12.2815C41.2768 11.7189 40.8631 11.234 40.4682 10.7684C40.1485 10.4192 39.8852 10.1282 39.6595 9.89542L38.6816 8.90608L39.6031 7.87793C39.8288 7.62575 40.1485 7.29596 40.5246 6.92738C40.9759 6.48121 41.5025 5.97683 42.1043 5.45306C42.4177 5.19441 42.7374 4.92929 43.0633 4.6577C43.383 4.40552 43.7403 4.11453 44.1165 3.86235C44.7558 3.37737 45.5269 2.8342 46.2603 2.38803C47.1254 1.86425 47.7459 1.49567 48.2725 1.22409C48.9119 0.894306 49.4384 0.62272 49.7581 0.467529L50.8113 0.00195312L51.6575 1.18529C51.8832 1.49567 52.1653 1.88365 52.4473 2.34923L52.579 2.56262C52.9175 3.08639 53.2936 3.70716 53.6697 4.38612C53.8703 4.76117 54.0709 5.14268 54.2715 5.53066L54.3279 5.62765C54.4157 5.79578 54.4972 5.9639 54.5724 6.13203L54.8545 6.73339C55.287 7.68394 55.6067 8.4405 55.8512 9.13887C55.9828 9.50745 56.1144 9.87602 56.2273 10.2252C56.3401 10.5162 56.4153 10.7878 56.4905 11.0594L56.547 11.2146C56.735 11.8741 56.8667 12.3397 56.9419 12.6889L57.2052 13.8916L56.0768 14.1826C55.7947 14.2796 55.3246 14.4154 54.7604 14.6094L54.61 14.6676C54.3843 14.7452 54.1587 14.8228 53.9142 14.9198C53.6133 15.0361 53.2999 15.1655 52.9739 15.3077C52.4097 15.5405 51.7891 15.8315 51.0369 16.2195C49.965 16.8015 48.7802 17.5774 47.8024 18.334C47.4639 18.5862 47.1818 18.8189 46.9561 19.0129L45.7714 20.0605ZM42.4616 11.0982C42.5493 11.2146 42.6434 11.3309 42.7437 11.4473C42.9693 11.7577 43.1887 12.0681 43.4018 12.3785C43.6087 12.6695 43.8344 12.9993 44.06 13.3484C44.5114 14.0468 44.8687 14.6482 45.1884 15.2689C45.5457 15.9673 45.809 16.5299 46.0158 16.9954C46.1287 17.267 46.2415 17.5386 46.3543 17.8102C46.5424 17.6356 46.768 17.461 47.0313 17.2476C47.6331 16.8015 48.8931 15.8703 50.4539 15.0361C51.2438 14.6288 51.902 14.3184 52.5038 14.0662C52.8235 13.9304 53.162 13.7946 53.4628 13.6588C53.7261 13.5618 53.9706 13.4842 54.2151 13.4066L54.3655 13.3484C54.9171 13.1544 55.3559 13.0122 55.6819 12.9217C55.6067 12.6113 55.475 12.1845 55.3246 11.6025L55.2682 11.4473C55.193 11.1952 55.1177 10.9236 55.0237 10.652C54.9109 10.3287 54.7855 9.97949 54.6476 9.60444C54.4219 8.94487 54.121 8.22711 53.7073 7.31536L53.4252 6.71399C53.35 6.5588 53.2748 6.40361 53.1996 6.24842L53.1431 6.15142C52.9426 5.77638 52.742 5.40133 52.5414 5.02629C52.2029 4.38612 51.8268 3.80415 51.5071 3.28038L51.3754 3.08639C51.0933 2.64021 50.8489 2.27163 50.6232 1.98065L50.3975 1.65086L50.3035 1.68966C50.0026 1.84486 49.4949 2.09704 48.8743 2.42682C48.3665 2.67901 47.7647 3.02819 46.9373 3.55196C46.2227 3.97874 45.4893 4.50251 44.8499 4.94869C44.5114 5.20087 44.1917 5.45306 43.872 5.70525C43.546 5.9639 43.2389 6.22256 42.9505 6.48121C42.3863 6.96618 41.8598 7.47055 41.4273 7.89733C41.07 8.22711 40.7879 8.5569 40.5622 8.78968L40.487 8.86728L40.581 8.96427C40.8067 9.19706 41.1076 9.50745 41.4461 9.87603C41.747 10.2446 42.1043 10.652 42.4616 11.0982Z" fill="white" fill-opacity="0.05"/>
<path fill-rule="evenodd" clip-rule="evenodd" d="M46.5247 16.9952L46.205 16.1805C46.205 16.1805 46.0358 15.7343 45.7161 15.0941C45.5092 14.6674 45.34 14.2988 45.1519 13.969C44.9262 13.5616 44.6818 13.1154 44.4185 12.6887C44.174 12.2813 43.9107 11.8933 43.6475 11.5247L43.6099 11.4471C43.3466 11.0785 43.0645 10.6906 42.8388 10.3996C42.3499 9.77881 42.0114 9.37143 42.0114 9.35203L41.5977 8.86706L42.0678 8.42089C42.0678 8.42089 42.4627 8.0523 43.0833 7.50913C43.3842 7.23755 43.7603 6.94656 44.1552 6.63618L44.2869 6.51979C44.6818 6.2288 45.1143 5.89902 45.5468 5.58864C46.017 5.27825 46.4871 4.96787 46.9573 4.65749C47.465 4.3471 47.9351 4.07552 48.2548 3.90093C48.8566 3.55175 49.3268 3.31896 49.5148 3.24136L49.985 2.83398L50.3799 3.41595C50.3987 3.43535 50.7372 3.93973 51.2073 4.67689C51.433 5.04547 51.6775 5.49164 51.9784 6.01541C52.3169 6.61678 52.5613 7.08236 52.787 7.54793C52.9939 7.97471 53.2571 8.53728 53.4828 9.06105C53.6709 9.51369 53.8526 9.96633 54.0282 10.419C54.1911 10.8328 54.3102 11.1626 54.3855 11.4083L54.6864 12.3783L53.7649 12.7275C53.558 12.8051 53.2759 12.9214 52.9186 13.0766C52.5613 13.2318 52.1476 13.4064 51.7151 13.6198C51.3578 13.7944 50.944 14.0078 50.4175 14.2988C50.0602 14.5122 49.6653 14.7449 49.1951 15.0553C48.8002 15.3075 48.4429 15.5209 48.1608 15.7343C47.5778 16.1611 47.2017 16.4521 47.2017 16.4521L46.5247 16.9952ZM43.8355 9.54602C44.08 9.87581 44.3809 10.2832 44.6442 10.6712L44.7006 10.7682C44.9827 11.1561 45.2459 11.5635 45.5092 11.9903C45.7725 12.4365 46.0358 12.8826 46.2803 13.3094C46.4683 13.6974 46.6564 14.066 46.882 14.5122C46.9447 14.6544 47.0074 14.7837 47.0701 14.9001C47.1704 14.8225 47.2832 14.7385 47.4086 14.648C47.7283 14.4152 48.0856 14.1824 48.4993 13.9302C49.0071 13.6004 49.4208 13.3482 49.8157 13.1348C50.3423 12.8438 50.7748 12.6111 51.1697 12.4171C51.5709 12.2231 51.9846 12.0356 52.4109 11.8545C52.6616 11.7381 52.881 11.6411 53.0691 11.5635C53.0064 11.3825 52.9249 11.1691 52.8246 10.9234C52.6554 10.4772 52.4861 10.031 52.298 9.60422C52.0912 9.09985 51.8279 8.55668 51.621 8.1493C51.4142 7.70312 51.1697 7.25695 50.85 6.67498C50.5679 6.17061 50.3423 5.76323 50.1166 5.41405C49.9285 5.12306 49.7593 4.87087 49.6277 4.65749C49.4208 4.77388 49.1763 4.90967 48.8754 5.08426C48.5745 5.25885 48.1232 5.51104 47.6154 5.82142C47.1829 6.09301 46.7128 6.40339 46.2614 6.71378C45.8477 6.98536 45.4528 7.29574 45.0767 7.60613L44.9263 7.70312C44.5501 8.01351 44.2116 8.26569 43.9295 8.51788C43.7164 8.69894 43.5409 8.8606 43.403 9.00285C43.5284 9.15805 43.6725 9.3391 43.8355 9.54602Z" fill="white" fill-opacity="0.05"/>
<path d="M47.5777 12.8442C47.5777 12.8442 47.4836 12.6114 47.2956 12.2816C47.1263 11.9324 46.8818 11.4862 46.6186 11.0401C46.3553 10.5745 46.0732 10.1477 45.8475 9.81792C45.6219 9.48813 45.4902 9.25534 45.4902 9.25534C45.4902 9.25534 45.6971 9.10015 46.0168 8.86737C46.3365 8.63458 46.769 8.3048 47.2203 8.01381C47.6717 7.72283 48.123 7.43184 48.4803 7.21845C48.8376 7.02446 49.0821 6.88867 49.0821 6.88867C49.0821 6.88867 49.2325 7.12146 49.4394 7.49004C49.6463 7.83922 49.9284 8.3048 50.1728 8.80917C50.4361 9.29415 50.6618 9.77912 50.831 10.1477C51.0003 10.5163 51.1131 10.7685 51.1131 10.7685C51.1131 10.7685 50.8686 10.8655 50.5301 11.0594C50.1916 11.234 49.7215 11.4862 49.289 11.7578C48.8564 12.01 48.4239 12.2816 48.1042 12.495C47.7845 12.7084 47.5777 12.8442 47.5777 12.8442Z" fill="white" fill-opacity="0.05"/>
<path fill-rule="evenodd" clip-rule="evenodd" d="M56.1914 26.8902L56.5487 25.5128C56.6615 25.1248 56.7556 24.6981 56.8308 24.2907C56.9248 23.8251 57.0189 23.2625 57.1317 22.4866C57.1881 22.1568 57.2069 21.8464 57.2445 21.4584C57.2696 21.0963 57.2947 20.7278 57.3197 20.3527C57.3574 19.5961 57.3385 18.8396 57.3197 18.1412C57.2821 17.4041 57.2257 16.7057 57.1693 16.1819C57.1317 15.697 57.0565 15.2896 57.0189 14.9792L56.7932 13.5825L58.1284 13.3109C58.4481 13.2527 58.8994 13.1751 59.4072 13.0975C59.9713 13.0199 60.7236 12.9423 61.5322 12.8647C62.3408 12.8259 63.1871 12.7871 64.0521 12.7871C64.4909 12.8 64.9235 12.8194 65.3497 12.8453C65.7823 12.8647 66.2148 12.8841 66.6473 12.9229C67.3243 13.0005 68.2082 13.0781 68.9228 13.1945C69.4682 13.2915 70.0135 13.3885 70.5589 13.5049L71.706 13.7377V14.921C71.706 15.503 71.6872 16.0655 71.6684 16.6281C71.6496 17.4041 71.5556 18.2964 71.4992 18.9948C71.4616 19.441 71.3863 19.8871 71.3299 20.3139C71.2672 20.7665 71.1983 21.2063 71.1231 21.633C70.9538 22.5254 70.7657 23.3789 70.5589 24.1743C70.3332 25.0085 70.1076 25.7456 69.9383 26.2888C69.7691 26.7932 69.5998 27.2199 69.487 27.5303L68.9604 28.8494L67.6816 28.3645C67.3807 28.2481 67.0046 28.1123 66.5721 27.9571C66.0832 27.8019 65.425 27.6079 64.7291 27.4333C64.071 27.2781 63.3563 27.1229 62.6229 27.0065C62.2719 26.9548 61.9208 26.9096 61.5698 26.8708C61.1937 26.832 60.8928 26.8126 60.5731 26.7932C59.8021 26.7544 59.2567 26.735 58.8054 26.735C58.3917 26.7544 57.9779 26.7738 57.5642 26.7932L56.1914 26.8902ZM58.26 14.6494L58.2788 14.7658C58.3352 15.0956 58.3917 15.5224 58.4481 16.0461C58.5045 16.5505 58.5797 17.2877 58.5985 18.1024C58.6173 18.8396 58.6361 19.6349 58.5985 20.4109C58.5734 20.8118 58.5484 21.1998 58.5233 21.5748C58.4857 21.9822 58.4481 22.312 58.4105 22.6806C58.2976 23.4953 58.2036 24.0773 58.0908 24.5623C58.0281 24.8597 57.9654 25.1507 57.9027 25.4352C58.1911 25.4223 58.4794 25.4158 58.7678 25.4158C59.2567 25.3964 59.8209 25.4158 60.6295 25.4546C60.9868 25.474 61.3629 25.5128 61.7014 25.5516C62.065 25.5904 62.4349 25.6357 62.811 25.6874C63.5632 25.8038 64.3154 25.9784 65.0112 26.1336C65.7635 26.3276 66.4405 26.5216 66.9294 26.6768C67.4184 26.832 67.8133 26.9871 68.133 27.1035L68.227 27.1423L68.2646 27.0453C68.3962 26.735 68.5467 26.3276 68.6971 25.862C68.8664 25.3382 69.0921 24.6205 69.2989 23.8251C69.487 23.0686 69.6938 22.2344 69.8443 21.4002C69.907 20.9864 69.9696 20.5596 70.0323 20.1199C70.1076 19.7125 70.164 19.2858 70.2016 18.8784C70.258 18.1994 70.3332 17.3071 70.3708 16.5893C70.3896 16.0267 70.3896 15.4836 70.3896 14.921V14.824L70.2956 14.8046C69.7879 14.7076 69.2425 14.6106 68.7159 14.5136C68.0201 14.4166 67.1739 14.3196 66.5157 14.2614C66.1208 14.2032 65.6882 14.1838 65.2933 14.1644C64.8671 14.1515 64.4471 14.1386 64.0333 14.1256C63.2059 14.1256 62.3784 14.1644 61.6074 14.2032C60.8364 14.2614 60.1218 14.3584 59.5764 14.4166C59.1063 14.4942 58.6926 14.5718 58.3541 14.63L58.26 14.6494Z" fill="white" fill-opacity="0.05"/>
<path fill-rule="evenodd" clip-rule="evenodd" d="M58.5605 24.8927L58.7298 24.0585C58.7298 24.0585 58.8238 23.5929 58.9555 22.8558C59.0871 22.1574 59.1999 21.2263 59.2752 20.1205C59.3128 19.6162 59.3128 19.0924 59.3316 18.6268C59.3316 18.103 59.3316 17.6569 59.3128 17.3077C59.2752 16.5123 59.2187 15.9692 59.2187 15.9692L59.1811 15.329L59.8017 15.2514C59.8205 15.2514 60.3471 15.1932 61.1557 15.135C61.5506 15.0962 62.0396 15.0768 62.5849 15.0768C63.0927 15.0574 63.6569 15.0574 64.2398 15.0768C65.481 15.135 66.6093 15.232 67.3992 15.3678C68.2454 15.4842 68.8284 15.5812 68.8472 15.5812L69.4114 15.6782L69.3926 16.2601C69.3926 16.2795 69.3738 16.9003 69.3173 17.7733C69.2797 18.588 69.1669 19.752 68.9789 21.0323C68.8848 21.6143 68.772 22.1962 68.678 22.7006C68.5651 23.2632 68.4523 23.7481 68.3395 24.1361C68.1326 24.9509 67.9633 25.4553 67.9633 25.4746L67.7753 26.0954L67.1735 25.9208C67.1547 25.9208 66.647 25.785 65.9135 25.591C65.575 25.5005 65.155 25.41 64.6536 25.3195C64.221 25.2419 63.7133 25.1449 63.2243 25.0867C62.1712 24.9509 61.2497 24.8733 60.5727 24.8733C59.8393 24.8539 59.388 24.8733 59.388 24.8733L58.5605 24.8927ZM60.5539 16.5123C60.5665 16.7193 60.579 16.965 60.5915 17.2495C60.6104 17.6181 60.6104 18.103 60.6104 18.6462C60.5916 19.1312 60.5916 19.6744 60.5539 20.2175C60.4787 21.3815 60.3471 22.3708 60.2154 23.108C60.1904 23.2632 60.1653 23.4054 60.1402 23.5348C60.2781 23.5348 60.4223 23.5348 60.5727 23.5348C61.3062 23.5542 62.2653 23.6124 63.3748 23.7481C63.9013 23.8257 64.4279 23.9227 64.8792 24.0003C65.4058 24.0973 65.8571 24.1943 66.2332 24.2913C66.484 24.356 66.7034 24.4142 66.8914 24.4659C66.9541 24.2719 67.0168 24.0456 67.0795 23.7869C67.1798 23.4119 67.2863 22.9593 67.3992 22.429C67.4932 21.944 67.606 21.3815 67.7001 20.8189C67.8693 19.5968 67.9822 18.491 68.0198 17.7151C68.0386 17.3659 68.0574 17.0555 68.0762 16.8033C67.8317 16.7645 67.5496 16.7257 67.2111 16.6869C66.4589 16.5705 65.387 16.4735 64.1834 16.4153C63.6381 16.3959 63.0739 16.3959 62.5849 16.4153C62.0772 16.4153 61.6259 16.4347 61.2497 16.4541C60.9865 16.48 60.7545 16.4994 60.5539 16.5123Z" fill="white" fill-opacity="0.05"/>
<path d="M61.7383 22.1766C61.7383 22.1766 61.8887 21.1873 62.0016 20.1203C62.0392 19.5966 62.058 19.0728 62.0768 18.6654C62.0956 18.258 62.0956 18.0059 62.0956 18.0059C62.0956 18.0059 62.3589 18.0059 62.7538 18.0059C63.1299 18.0059 63.6753 18.0253 64.2018 18.0447C65.2549 18.1223 66.3645 18.258 66.3645 18.258C66.3645 18.258 66.2704 19.4026 66.1388 20.4889C66.0824 21.0321 65.9883 21.5753 65.9131 21.9632C65.8379 22.3706 65.8003 22.6228 65.8003 22.6228C65.8003 22.6228 65.537 22.584 65.1421 22.5258C64.766 22.4676 64.2582 22.39 63.7505 22.3318C62.7162 22.2154 61.7383 22.1766 61.7383 22.1766Z" fill="white" fill-opacity="0.05"/>
<path fill-rule="evenodd" clip-rule="evenodd" d="M60.6875 38.7592L61.9287 37.7504C62.1355 37.5564 62.4176 37.3237 62.7185 37.0521C63.6212 36.1985 64.5803 35.151 65.3513 34.1616C65.859 33.4827 66.2728 32.9007 66.5925 32.3769C66.7931 32.0795 66.9811 31.7885 67.1566 31.504C67.2883 31.2712 67.4011 31.0578 67.5327 30.8444L67.608 30.6892C67.89 30.1654 68.1157 29.7387 68.2662 29.4477L68.7551 28.3613L69.8458 28.8657C70.1655 29.0209 70.5981 29.2343 71.1622 29.5447L71.3127 29.6417C71.5571 29.7581 71.8016 29.8938 72.0649 30.049C72.3658 30.243 72.6855 30.4435 73.024 30.6504C73.6258 31.0384 74.284 31.504 75.1114 32.1247L75.6191 32.5127C75.7696 32.6291 75.92 32.7455 76.0517 32.8619L76.1457 32.9395C76.4842 33.224 76.8102 33.5021 77.1236 33.7736C77.6878 34.278 78.1955 34.7824 78.6469 35.2286L78.8161 35.4032C79.211 35.7911 79.5307 36.1403 79.7752 36.4313L80.7531 37.5176L80.0949 38.4876C79.9068 38.7398 79.5495 39.2247 79.0794 39.8455C78.7221 40.3305 78.2519 40.9125 77.5749 41.669C77.0108 42.3286 76.3526 42.9881 75.7696 43.5701C75.4687 43.8805 75.1302 44.1715 74.8105 44.4625C74.4971 44.747 74.1899 45.0186 73.889 45.2772C73.2684 45.7816 72.6667 46.2278 72.1777 46.5964C71.7452 46.9067 71.3691 47.1589 71.087 47.3335L69.9211 48.0901L69.1688 46.9067C68.9808 46.6352 68.7739 46.286 68.4918 45.9174C68.1345 45.4324 67.7396 44.9086 67.3071 44.3655C67.0814 44.0939 66.8369 43.8223 66.5925 43.5507C66.3668 43.2985 66.1223 43.0269 65.8402 42.7554C65.2761 42.1928 64.8059 41.7272 64.317 41.3198C63.734 40.8349 63.2827 40.4663 62.9066 40.2141C62.4552 39.8843 62.0979 39.6321 61.8911 39.4963L60.6875 38.7592ZM69.3757 30.1072C69.2064 30.437 68.9996 30.8444 68.7175 31.3488L68.6423 31.504C68.5106 31.7174 68.379 31.9695 68.2474 32.2023C68.0593 32.4998 67.865 32.8037 67.6644 33.1141C67.3259 33.6572 66.8934 34.278 66.348 34.9764C65.2573 36.4119 64.1477 37.5176 63.5836 38.0414C63.3391 38.2548 63.1134 38.4488 62.9254 38.6234C63.126 38.7527 63.3642 38.9144 63.64 39.1084C64.0349 39.3993 64.5238 39.7679 65.1068 40.2917C65.6334 40.7185 66.1411 41.2034 66.7429 41.8048C67.025 42.0764 67.2883 42.3674 67.5327 42.639C67.7835 42.9235 68.028 43.208 68.2662 43.4925C68.7363 44.0745 69.1688 44.6371 69.5073 45.1026C69.8082 45.5294 70.0527 45.8786 70.2219 46.1696L70.2972 46.2666L70.3724 46.2084C70.6545 46.0338 71.0118 45.801 71.4067 45.51C71.8956 45.1608 72.4598 44.7341 73.0616 44.2297C73.3437 43.9969 73.6446 43.7253 73.9643 43.4537C74.2651 43.1821 74.566 42.8912 74.8669 42.6002C75.4311 42.057 76.0705 41.3974 76.597 40.7767C77.2552 40.0395 77.7066 39.4963 78.0451 39.0308C78.5152 38.41 78.8725 37.9444 79.023 37.7116L79.0794 37.634L78.8161 37.3237C78.5716 37.0715 78.2707 36.7223 77.9134 36.3731L77.7442 36.1985C77.3117 35.7717 76.8227 35.2868 76.2773 34.8018C75.9639 34.5302 75.6442 34.2586 75.3183 33.987L75.2242 33.9094C75.0989 33.806 74.9672 33.696 74.8293 33.5796L74.3216 33.1917C73.5505 32.6097 72.9111 32.1635 72.347 31.7949C72.0085 31.588 71.6888 31.394 71.3879 31.213C71.1622 31.0578 70.9178 30.9414 70.6921 30.825L70.5604 30.728C70.0527 30.4564 69.6578 30.2624 69.3757 30.1072Z" fill="white" fill-opacity="0.05"/>
<path fill-rule="evenodd" clip-rule="evenodd" d="M63.7344 38.5669L64.3926 38.0043C64.3926 37.985 64.7311 37.6746 65.2576 37.1702C65.5209 36.918 65.803 36.6076 66.1039 36.2584C66.4988 35.8317 66.7997 35.4825 67.0442 35.1721C67.4391 34.6871 67.7212 34.2991 67.9656 33.9694C68.2101 33.6202 68.4546 33.2516 68.6991 32.883C68.9247 32.5532 69.094 32.2623 69.2068 32.0877L69.7146 31.1953L70.5796 31.7191C70.7865 31.8355 71.0874 32.0101 71.4447 32.2429C71.8396 32.5144 72.2345 32.786 72.6106 33.0576C73.0996 33.4068 73.5697 33.7754 73.9458 34.0664C74.4536 34.4737 74.9049 34.8811 75.2434 35.1915C75.6383 35.5407 76.0332 35.8899 76.3529 36.2196C76.9735 36.8404 77.3872 37.2672 77.406 37.2866L77.7634 37.694L77.4625 38.1401C77.4437 38.1595 77.1052 38.6639 76.5222 39.3623C76.2965 39.6339 75.958 40.0606 75.5631 40.5068C75.1744 40.9465 74.7858 41.3668 74.3971 41.7677C74.0398 42.1557 73.6261 42.5243 73.2688 42.8541L73.1372 42.9899C72.7799 43.3197 72.4226 43.63 72.1029 43.9016C71.4635 44.4254 71.0498 44.7358 71.0309 44.7552L70.5232 45.1432L70.1283 44.6194C70.1283 44.6194 69.8086 44.1926 69.3196 43.5912C69.0752 43.3003 68.7555 42.9511 68.4546 42.6019L68.3982 42.5437C68.0973 42.2139 67.7776 41.8647 67.4391 41.5544C67.0755 41.2052 66.7119 40.8689 66.3484 40.5456C66.0725 40.2999 65.7528 40.0412 65.3893 39.7697C64.8439 39.3235 64.4678 39.0519 64.449 39.0519L63.7344 38.5669ZM70.1659 32.9994C70.0531 33.174 69.9214 33.3874 69.771 33.6202C69.5265 34.0082 69.2632 34.3961 68.9999 34.7647C68.7555 35.1139 68.4358 35.5019 68.0597 36.0063C67.7776 36.3554 67.4579 36.724 67.0442 37.1702C66.7245 37.5388 66.4236 37.8492 66.1415 38.1207C66.0412 38.2371 65.9409 38.3406 65.8406 38.4311C65.9534 38.5087 66.0663 38.5993 66.1791 38.7027C66.5552 38.9937 66.8937 39.2653 67.1946 39.5369C67.5833 39.8731 67.9531 40.2158 68.3041 40.565C68.6802 40.9142 69.0187 41.2634 69.3384 41.6126L69.3949 41.6902C69.7146 42.0393 70.0531 42.4079 70.3163 42.7377C70.4793 42.9446 70.6235 43.1257 70.7489 43.2809C70.9118 43.1645 71.0936 43.0222 71.2942 42.8541C71.5951 42.6019 71.9148 42.3109 72.2909 41.9811L72.4038 41.8647C72.7611 41.535 73.1372 41.1858 73.4757 40.8366C73.8518 40.4357 74.2279 40.0283 74.604 39.6145C74.9801 39.1877 75.3186 38.7803 75.5255 38.4893C75.7512 38.2371 75.9392 37.985 76.0709 37.8104C75.9204 37.6358 75.6947 37.4224 75.4503 37.1702C75.1494 36.8792 74.7733 36.53 74.3971 36.1808C74.0586 35.8899 73.6261 35.5019 73.156 35.1333C72.7987 34.8423 72.3285 34.4737 71.8772 34.144C71.5011 33.8918 71.125 33.6202 70.7489 33.368C70.5232 33.2257 70.3289 33.1029 70.1659 32.9994Z" fill="white" fill-opacity="0.05"/>
<path d="M67.8906 38.3142C67.8906 38.3142 68.0599 38.1203 68.3232 37.8487C68.5864 37.5771 68.9437 37.1891 69.2634 36.8011C69.6019 36.3937 69.9216 35.9864 70.1661 35.676C70.4106 35.3656 70.561 35.1328 70.561 35.1328C70.561 35.1328 70.7679 35.288 71.0876 35.5402C71.4073 35.773 71.821 36.1222 72.2347 36.4713C72.6672 36.8205 73.0434 37.1891 73.3442 37.4607C73.6451 37.7517 73.852 37.9457 73.852 37.9457C73.852 37.9457 73.6827 38.1591 73.4195 38.4694C73.1374 38.7992 72.7801 39.2066 72.4228 39.614C72.0655 40.002 71.6705 40.3899 71.3885 40.6615C71.0876 40.9525 70.8995 41.1271 70.8995 41.1271C70.8995 41.1271 70.7303 40.9331 70.4482 40.6421C70.1661 40.3705 69.8088 40.002 69.4327 39.6528C69.0566 39.2842 68.6617 38.9544 68.3796 38.7022C68.0975 38.4694 67.8906 38.3142 67.8906 38.3142Z" fill="white" fill-opacity="0.05"/>
<path fill-rule="evenodd" clip-rule="evenodd" d="M59.7259 64.2088L59.8011 63.006C59.8199 62.618 59.8387 62.1525 59.8199 61.5899C59.8199 60.232 59.6883 58.7189 59.4814 57.4385C59.3874 56.8372 59.2557 56.0612 59.0677 55.3434C58.8796 54.6063 58.7104 54.0631 58.5599 53.5975C58.4283 53.2096 58.2778 52.8022 58.1274 52.4142L57.582 51.0951L59.1805 51.0175C59.4626 50.9981 59.8011 50.9787 60.196 50.9399C60.779 50.8623 61.3432 50.7847 61.9449 50.6683C62.2709 50.6036 62.6031 50.5325 62.9416 50.4549C63.3365 50.3579 63.6562 50.2803 63.9571 50.1833C64.5589 50.0087 65.3299 49.7759 65.9881 49.5043C66.7404 49.2328 67.3045 48.9806 67.7559 48.7478C68.3953 48.4568 68.8278 48.2434 69.0158 48.127L70.0313 47.5645L70.6143 48.612C70.7648 48.8836 70.9904 49.3298 71.3101 49.9893C71.5546 50.5131 71.8367 51.1533 72.1752 52.0068C72.4949 52.7828 72.777 53.6363 73.0402 54.4511C73.1531 54.8197 73.2847 55.2464 73.3975 55.7508C73.5104 56.1776 73.6169 56.5979 73.7172 57.0118C73.9053 57.8265 74.0369 58.5831 74.1498 59.2426L74.1686 59.3396C74.2626 59.9022 74.319 60.3678 74.3566 60.7363L74.5259 62.2301L73.454 62.618C72.9023 62.7991 72.3632 62.9672 71.8367 63.1224C71.2725 63.297 70.5579 63.4716 69.5988 63.685C68.7338 63.879 67.7747 64.0148 67.0413 64.1118C65.0102 64.4028 63.2425 64.4028 62.3963 64.3834C61.8133 64.3834 61.3055 64.3446 60.9106 64.3058L59.7259 64.2088ZM59.4814 52.3366C59.5754 52.6082 59.6695 52.8798 59.7635 53.1708C59.9327 53.6557 60.102 54.2377 60.3088 55.0137C60.4969 55.7702 60.6473 56.585 60.7414 57.2057C60.967 58.5831 61.0987 60.1738 61.0987 61.5899C61.1175 62.1331 61.0987 62.5986 61.0799 62.9866C61.456 63.006 61.8885 63.0448 62.3963 63.0448C63.8067 63.0836 65.4428 62.9866 66.872 62.7926C67.5678 62.6956 68.4893 62.5599 69.3167 62.3659C70.2382 62.1719 70.9152 61.9973 71.4606 61.8421C71.9871 61.6869 72.5074 61.5252 73.0214 61.3571L73.1155 61.3183L73.059 60.9109C73.0214 60.5424 72.965 60.0962 72.8898 59.5918L72.871 59.4754C72.7582 58.8352 72.6265 58.0981 72.4573 57.3221C72.357 56.9212 72.2504 56.5074 72.1376 56.0806C72.0247 55.615 71.9119 55.227 71.7991 54.8585C71.5546 54.0825 71.2725 53.2677 70.9716 52.5112C70.6519 51.6964 70.3887 51.0757 70.1442 50.5907C69.9185 50.1251 69.7116 49.6983 69.5236 49.3492C69.1663 49.5431 68.7338 49.7565 68.3012 49.9699C67.8123 50.2027 67.2105 50.4549 66.4395 50.7653C65.7249 51.0369 64.935 51.2891 64.3144 51.4636C63.9947 51.5606 63.6374 51.6576 63.2237 51.7546C62.8601 51.8322 62.5154 51.9098 62.1894 51.9874C61.4748 52.1232 60.7978 52.2008 60.3465 52.259C60.0268 52.2978 59.7259 52.3172 59.4814 52.3366Z" fill="white" fill-opacity="0.05"/>
<path fill-rule="evenodd" clip-rule="evenodd" d="M61.9076 62.2146L61.8888 61.5551C61.8888 61.5551 61.87 61.0119 61.8135 60.2359C61.7947 59.8673 61.7383 59.4018 61.6819 58.8974C61.6255 58.4318 61.5503 57.9275 61.4562 57.4231C61.3685 56.9316 61.2682 56.4467 61.1553 55.9682C61.055 55.5931 60.9422 55.1857 60.8168 54.746C60.6476 54.1059 60.4783 53.6597 60.4595 53.6209L60.2715 53.0777L60.8733 52.7285L61.0049 52.7091C61.0237 52.7091 61.475 52.6703 62.1897 52.5733C62.5093 52.5345 62.8667 52.4569 63.2804 52.3793L63.3932 52.3599C63.8445 52.263 64.3335 52.166 64.7848 52.0302C65.2487 51.9138 65.7188 51.778 66.1952 51.6228C66.5902 51.487 67.0039 51.3512 67.4176 51.196C68.1322 50.9244 68.5836 50.711 68.5836 50.711L69.1665 50.4395L69.4486 51.0214C69.4486 51.0408 69.6931 51.5452 69.994 52.3405C70.1632 52.7867 70.3325 53.2523 70.4829 53.6985C70.6584 54.2416 70.8277 54.7848 70.9907 55.328C71.1599 55.9294 71.2916 56.5307 71.4044 57.0157L71.442 57.1903C71.5548 57.6753 71.6489 58.1408 71.7053 58.5288C71.8557 59.4018 71.9498 60.0031 71.9498 60.0225L72.025 60.5851L71.4984 60.7597C71.4796 60.7597 70.9154 60.9537 70.0692 61.1671C69.5614 61.3029 69.0725 61.4193 68.6212 61.5163C68.057 61.6326 67.5054 61.7361 66.9663 61.8266C66.4021 61.943 65.8191 62.0012 65.3114 62.04C64.8036 62.0982 64.3147 62.1564 63.901 62.1758C63.0735 62.1952 62.547 62.2146 62.5282 62.2146H61.9076ZM61.9452 53.9507C61.9828 54.08 62.0267 54.2222 62.0768 54.3774C62.2085 54.8236 62.3213 55.2504 62.4153 55.6578C62.5282 56.1621 62.6347 56.6665 62.735 57.1709C62.829 57.7141 62.9043 58.2378 62.9607 58.7422C63.0359 59.266 63.0923 59.7316 63.1111 60.1389C63.1362 60.4105 63.1487 60.6498 63.1487 60.8567C63.3493 60.8567 63.5813 60.8502 63.8445 60.8373C64.2395 60.8179 64.7096 60.7597 65.1985 60.7209C65.6687 60.6627 66.2329 60.6045 66.7594 60.5075C67.2985 60.417 67.8376 60.32 68.3767 60.2165C68.7904 60.1195 69.2606 60.0031 69.7495 59.8673C70.088 59.7897 70.3701 59.7122 70.5958 59.654C70.5581 59.4018 70.5017 59.1108 70.4453 58.7616C70.3889 58.393 70.2949 57.9468 70.182 57.4813L70.1444 57.3067C70.0504 56.8411 69.9188 56.2591 69.7495 55.716C69.5991 55.1857 69.4423 54.662 69.2794 54.1447C69.1289 53.7179 68.9597 53.2717 68.7904 52.8255C68.7027 52.5798 68.6212 52.3664 68.5459 52.1854C68.3454 52.263 68.1197 52.347 67.8689 52.4375C67.4552 52.5927 67.0227 52.7479 66.609 52.9031C66.0949 53.0583 65.5997 53.2006 65.1233 53.3299C64.6344 53.4657 64.1266 53.5627 63.6377 53.6597L63.5249 53.6985C63.1111 53.7761 62.7162 53.8537 62.3589 53.8925C62.2085 53.9183 62.0706 53.9377 61.9452 53.9507Z" fill="white" fill-opacity="0.05"/>
<path d="M63.6758 55.0912C63.6758 55.0912 63.9203 55.0524 64.2776 54.9748C64.6537 54.9166 65.1614 54.8196 65.6504 54.7032C66.1393 54.5674 66.6283 54.451 67.0232 54.3346C67.2112 54.2764 67.3617 54.2376 67.4557 54.1988C67.5685 54.16 67.625 54.1406 67.625 54.1406C67.625 54.1406 67.6626 54.1988 67.7002 54.3152C67.719 54.4316 67.7942 54.5868 67.8318 54.7808C67.9447 55.1688 68.0951 55.6925 68.2455 56.2357C68.3772 56.7595 68.49 57.3027 68.5652 57.71C68.6593 58.1368 68.6969 58.4084 68.6969 58.4084C68.6969 58.4084 68.4524 58.486 68.0387 58.583C67.6438 58.6606 67.1172 58.777 66.5906 58.874C66.0829 58.9904 65.5375 59.068 65.1426 59.1068C64.7665 59.165 64.5032 59.1844 64.5032 59.1844C64.5032 59.1844 64.4656 58.9322 64.4092 58.5248C64.3528 58.1368 64.2776 57.613 64.1647 57.1087C64.0519 56.5849 63.9391 56.0805 63.845 55.7119C63.751 55.3434 63.6758 55.0912 63.6758 55.0912Z" fill="white" fill-opacity="0.05"/>
</svg>
