<?xml version="1.0" standalone="no"?>
<!DOCTYPE svg PUBLIC "-//W3C//DTD SVG 20010904//EN"
 "http://www.w3.org/TR/2001/REC-SVG-20010904/DTD/svg10.dtd">
<svg version="1.0" xmlns="http://www.w3.org/2000/svg"
 width="292.000000pt" height="292.000000pt" viewBox="0 0 292.000000 292.000000"
 preserveAspectRatio="xMidYMid meet">
<metadata>
Created by potrace 1.14, written by Peter Selinger 2001-2017
</metadata>
<g transform="translate(0.000000,292.000000) scale(0.100000,-0.100000)"
fill="#000000" stroke="none">
<path d="M0 1460 l0 -1460 1460 0 1460 0 0 1460 0 1460 -1460 0 -1460 0 0
-1460z m1280 850 c0 -5 -2 -10 -4 -10 -3 0 -8 5 -11 10 -3 6 -1 10 4 10 6 0
11 -4 11 -10z m57 -16 c-9 -9 -28 6 -21 18 4 6 10 6 17 -1 6 -6 8 -13 4 -17z
m103 -8 c-15 -15 -33 4 -19 20 10 12 14 12 20 2 5 -7 4 -17 -1 -22z m101 11
c-13 -13 -26 -3 -16 12 3 6 11 8 17 5 6 -4 6 -10 -1 -17z m69 19 c0 -2 -7 -6
-15 -10 -8 -3 -15 -1 -15 4 0 6 7 10 15 10 8 0 15 -2 15 -4z m-226 -22 c8 -22
8 -24 -8 -24 -18 0 -29 16 -21 30 9 15 22 12 29 -6z m119 1 c8 -18 -11 -31
-25 -17 -11 11 -3 32 12 32 4 0 10 -7 13 -15z m182 5 c15 -6 11 -8 -17 -7 -21
1 -38 5 -38 10 0 9 29 8 55 -3z m-350 -41 c0 -7 -8 -15 -17 -17 -18 -3 -25 18
-11 32 10 10 28 1 28 -15z m221 10 c10 -17 -13 -36 -27 -22 -12 12 -4 33 11
33 5 0 12 -5 16 -11z m170 -16 c-10 -11 -19 -7 -22 10 -2 15 0 16 12 6 8 -6
12 -14 10 -16z m-438 6 c-2 -6 -8 -10 -13 -10 -5 0 -11 4 -13 10 -2 6 4 11 13
11 9 0 15 -5 13 -11z m132 -4 c0 -8 -7 -15 -15 -15 -16 0 -20 12 -8 23 11 12
23 8 23 -8z m48 3 c-6 -18 -28 -21 -28 -4 0 9 7 16 16 16 9 0 14 -5 12 -12z
m130 1 c-2 -6 -8 -10 -13 -10 -5 0 -11 4 -13 10 -2 6 4 11 13 11 9 0 15 -5 13
-11z m-368 -9 c0 -5 -4 -10 -10 -10 -5 0 -10 5 -10 10 0 6 5 10 10 10 6 0 10
-4 10 -10z m278 -8 c2 -7 -3 -12 -12 -12 -9 0 -16 7 -16 16 0 17 22 14 28 -4z
m142 8 c0 -5 -4 -10 -10 -10 -5 0 -10 5 -10 10 0 6 5 10 10 10 6 0 10 -4 10
-10z m-272 -11 c-2 -6 -8 -10 -13 -10 -5 0 -11 4 -13 10 -2 6 4 11 13 11 9 0
15 -5 13 -11z m367 -9 c3 -5 -1 -10 -10 -10 -9 0 -13 5 -10 10 3 6 8 10 10 10
2 0 7 -4 10 -10z m-450 -20 c0 -22 -29 -18 -33 3 -3 14 1 18 15 15 10 -2 18
-10 18 -18z m45 0 c0 -19 -11 -26 -23 -14 -8 8 3 34 14 34 5 0 9 -9 9 -20z
m203 5 c8 -18 -11 -31 -25 -17 -11 11 -3 32 12 32 4 0 10 -7 13 -15z m55 -2
c-2 -10 -10 -18 -18 -18 -8 0 -16 8 -18 18 -2 12 3 17 18 17 15 0 20 -5 18
-17z m-348 -18 c0 -8 -7 -15 -15 -15 -8 0 -15 7 -15 15 0 8 7 15 15 15 8 0 15
-7 15 -15z m222 -17 c-4 -16 -2 -20 10 -16 8 4 22 -2 31 -13 9 -10 13 -19 9
-19 -4 0 -1 -4 6 -8 9 -7 7 -13 -9 -27 -26 -25 -122 -29 -162 -8 -22 11 -27
19 -21 36 9 28 26 45 42 39 7 -2 12 6 12 20 0 18 2 20 10 8 9 -13 11 -13 21 0
8 11 12 12 16 3 7 -19 24 -16 17 2 -4 11 -2 13 9 9 9 -3 13 -13 9 -26z m168
17 c0 -8 -4 -15 -10 -15 -5 0 -10 -9 -10 -19 0 -25 -29 -36 -37 -14 -4 9 1 21
10 28 10 7 17 17 17 24 0 6 7 11 15 11 8 0 15 -7 15 -15z m-320 -26 c0 -24
-23 -21 -28 4 -2 10 3 17 12 17 10 0 16 -9 16 -21z m246 -4 c-4 -15 -2 -25 5
-25 6 0 9 -6 7 -12 -10 -28 -31 -12 -35 25 -3 29 0 37 13 37 12 0 15 -6 10
-25z m349 5 c10 -11 16 -20 13 -20 -3 0 -13 9 -23 20 -10 11 -16 20 -13 20 3
0 13 -9 23 -20z m-710 0 c3 -5 -1 -10 -9 -10 -9 0 -16 5 -16 10 0 6 4 10 9 10
6 0 13 -4 16 -10z m72 -6 c8 -21 -13 -42 -28 -27 -13 13 -5 43 11 43 6 0 13
-7 17 -16z m403 1 c0 -9 -6 -12 -15 -9 -8 4 -12 10 -9 15 8 14 24 10 24 -6z
m83 -42 c-8 -20 -23 -4 -23 25 0 24 1 25 14 7 8 -11 12 -25 9 -32z m228 20
c13 -16 12 -17 -3 -4 -17 13 -22 21 -14 21 2 0 10 -8 17 -17z m-751 -18 c0 -8
-7 -15 -15 -15 -8 0 -15 7 -15 15 0 8 7 15 15 15 8 0 15 -7 15 -15z m71 0 c-1
-15 -24 -12 -29 3 -3 9 2 13 12 10 10 -1 17 -7 17 -13z m342 0 c1 -5 -6 -11
-15 -13 -11 -2 -18 3 -18 13 0 17 30 18 33 0z m47 5 c0 -5 -5 -10 -11 -10 -5
0 -7 5 -4 10 3 6 8 10 11 10 2 0 4 -4 4 -10z m-420 -20 c0 -5 9 -10 19 -10 26
0 34 -15 16 -30 -12 -10 -16 -9 -20 2 -9 24 -54 11 -48 -13 4 -13 0 -19 -11
-19 -20 0 -20 9 0 48 14 30 44 44 44 22z m344 -22 c20 -39 20 -48 0 -48 -11 0
-15 6 -11 19 6 24 -39 37 -48 13 -4 -11 -8 -12 -20 -2 -18 15 -10 30 16 30 10
0 19 5 19 10 0 22 30 8 44 -22z m451 -20 c28 -29 39 -44 26 -33 -24 20 -24 20
-18 0 6 -16 3 -15 -12 5 -11 14 -18 27 -15 29 2 3 -6 15 -18 28 -12 13 -19 23
-17 23 3 0 27 -23 54 -52z m-393 21 c-5 -11 -11 -20 -15 -20 -4 1 -13 1 -19 1
-7 1 -2 10 11 20 29 25 32 25 23 -1z m53 11 c-3 -5 6 -12 20 -16 14 -4 25 -13
24 -23 0 -10 -2 -11 -6 -3 -2 6 -9 10 -14 6 -5 -3 -9 0 -9 6 0 8 -6 8 -21 0
-19 -11 -19 -12 -4 -24 15 -11 13 -13 -18 -13 -39 0 -41 16 -4 32 12 6 23 16
23 23 2 19 4 22 10 22 3 0 2 -4 -1 -10z m230 0 c-3 -5 -12 -7 -20 -3 -21 7
-19 13 6 13 11 0 18 -4 14 -10z m-763 -15 c0 -5 -5 -11 -11 -13 -6 -2 -11 4
-11 13 0 9 5 15 11 13 6 -2 11 -8 11 -13z m824 -1 c18 -14 18 -14 -6 -3 -31
14 -36 19 -24 19 6 0 19 -7 30 -16z m-891 -12 c-3 -3 -11 0 -18 7 -9 10 -8 11
6 5 10 -3 15 -9 12 -12z m746 11 c0 -5 2 -16 4 -26 2 -11 0 -16 -3 -12 -4 4
-8 11 -8 16 -1 5 -2 11 -3 14 0 3 -10 -3 -21 -12 -12 -11 -16 -20 -9 -24 6 -3
2 -9 -10 -12 -12 -3 -19 -1 -15 4 3 5 -1 9 -8 9 -7 0 -4 6 7 12 11 7 26 18 33
25 15 14 32 17 33 6z m90 -54 l3 -46 64 -2 c36 -1 78 -9 94 -17 15 -8 30 -13
32 -12 7 5 41 -43 64 -88 18 -36 26 -42 62 -47 23 -3 65 -3 94 0 45 5 56 2 81
-19 50 -44 45 -162 -10 -192 -11 -6 -22 -12 -24 -13 -7 -4 38 -69 68 -97 33
-32 32 -46 -4 -46 -44 0 -70 21 -115 93 -50 80 -55 77 -48 -30 l4 -63 -38 0
-38 0 0 174 c0 118 -4 177 -11 182 -8 5 -10 -6 -7 -35 2 -22 1 -42 -2 -43 -3
-2 -16 -25 -30 -52 l-24 -49 29 -24 c20 -16 23 -21 8 -14 -16 8 -23 8 -26 -2
-3 -6 -6 -3 -6 8 -1 17 -3 17 -11 5 -6 -10 -10 -11 -10 -2 0 6 -6 12 -14 12
-9 0 -14 -9 -13 -20 1 -11 4 -20 7 -20 12 0 4 -44 -8 -48 -8 -2 -12 9 -12 32
0 41 -29 53 -31 14 -1 -17 -2 -19 -6 -5 -2 9 -12 17 -21 18 -11 0 -6 6 12 13
l28 13 -23 6 c-53 15 -55 12 -56 -68 0 -41 4 -75 9 -75 4 0 34 9 65 20 32 11
59 20 60 20 2 0 3 -13 3 -30 0 -16 -4 -30 -8 -30 -16 0 -7 -39 11 -44 16 -4
18 1 17 32 -3 61 -1 70 10 52 6 -10 10 -11 10 -2 0 6 3 12 8 12 4 0 5 -26 2
-57 l-4 -58 -7 45 -6 45 -1 -51 c-2 -44 1 -53 26 -71 16 -12 29 -28 29 -37 0
-15 -2 -15 -18 0 -10 9 -16 21 -12 27 3 6 1 7 -5 3 -7 -4 -13 -19 -13 -34 l-1
-27 -7 29 c-8 40 -31 46 -31 9 0 -22 2 -25 10 -13 7 11 9 2 5 -30 -4 -33 -3
-40 4 -25 5 11 10 14 10 6 1 -8 8 -11 19 -7 10 4 8 -1 -7 -13 -16 -12 -22 -24
-18 -35 4 -10 3 -14 -3 -11 -12 8 -24 -58 -16 -95 7 -39 -2 -64 -19 -50 -7 6
-24 9 -38 6 -19 -3 -24 -1 -21 9 4 10 0 12 -15 8 -12 -3 -21 -9 -21 -14 0 -5
0 -12 0 -16 0 -5 11 -7 25 -7 13 1 22 -3 19 -7 -3 -5 0 -18 6 -29 14 -25 2
-50 -12 -26 -8 14 -13 15 -24 5 -8 -6 -14 -8 -14 -4 0 4 -8 1 -17 -6 -16 -13
-17 -12 -4 3 7 10 17 16 21 13 15 -9 22 15 10 30 -16 19 -40 19 -40 0 0 -8 -7
-15 -16 -15 -14 0 -14 1 0 16 20 20 20 34 0 34 -8 0 -22 6 -29 14 -12 12 -11
15 11 19 19 3 24 1 20 -10 -4 -10 -2 -12 11 -5 20 11 27 43 8 36 -7 -3 -15 2
-19 11 -4 10 -2 14 5 9 7 -4 10 -1 7 7 -3 8 -11 13 -17 11 -7 -1 -10 2 -6 8 3
6 -4 10 -17 11 -13 0 -17 3 -10 6 6 2 10 8 7 13 -3 4 1 10 9 13 10 4 18 -5 25
-24 6 -17 15 -28 20 -25 5 3 8 -2 7 -11 0 -9 9 -22 20 -28 12 -6 30 -17 40
-25 35 -29 7 18 -79 132 l-82 109 -3 -83 c-2 -46 0 -116 3 -156 6 -65 8 -72
23 -60 9 7 5 -2 -8 -20 -21 -28 -22 -34 -10 -42 9 -6 17 -5 21 1 4 7 9 5 12
-5 3 -8 0 -16 -8 -18 -10 -2 -12 -8 -5 -18 7 -12 13 -11 34 10 15 13 26 20 26
16 0 -5 8 -2 18 5 15 13 16 12 3 -4 -8 -9 -16 -15 -19 -12 -7 6 -42 -25 -42
-37 0 -5 5 -6 10 -3 18 11 11 -1 -16 -26 -22 -21 -24 -21 -18 -4 7 20 7 20
-14 1 -12 -10 -19 -22 -17 -27 3 -4 1 -10 -5 -14 -5 -3 -15 -16 -21 -27 -10
-18 -9 -20 7 -14 15 6 16 5 7 -5 -9 -9 -16 -9 -26 -1 -8 7 -17 9 -20 5 -4 -3
-7 -1 -7 6 0 7 -4 10 -8 7 -5 -3 -9 1 -9 9 0 8 2 13 5 10 3 -2 14 0 25 6 14 8
18 8 13 0 -11 -17 10 -13 24 4 7 8 9 15 5 15 -4 0 5 14 19 31 14 17 23 35 20
41 -4 6 -10 5 -15 -3 -5 -8 -9 -10 -9 -5 0 4 -13 -6 -30 -24 -16 -18 -30 -27
-30 -20 0 7 10 21 22 31 23 21 18 40 -6 20 -12 -10 -14 -9 -11 6 1 10 -3 25
-9 33 -10 13 -9 13 6 1 16 -12 19 -10 32 19 9 21 15 28 19 19 3 -8 6 1 6 19 1
25 -3 32 -18 32 -11 0 -23 5 -27 12 -4 6 -3 8 4 4 17 -10 20 19 21 164 0 83
-4 139 -11 148 -7 7 -7 16 -2 21 14 14 48 21 59 13 6 -4 49 -58 95 -119 71
-95 86 -109 92 -93 10 26 -1 53 -18 46 -8 -3 -11 0 -8 8 3 8 -4 16 -18 19 -21
6 -24 11 -20 43 4 30 2 36 -10 32 -8 -4 -15 0 -15 7 0 7 6 11 13 8 16 -6 7 32
-11 47 -15 12 -9 44 6 35 4 -3 5 -13 2 -22 -4 -10 -2 -14 4 -10 6 4 18 0 26
-8 33 -33 51 -6 38 56 0 4 -34 5 -73 3 -40 -2 -80 -2 -88 1 -13 4 -15 35 -15
200 0 187 -1 195 -22 217 -22 22 -22 22 -45 2 l-23 -19 18 21 c19 24 22 34 6
34 -5 0 -16 -15 -24 -34 -13 -31 -35 -57 -35 -41 0 8 23 47 39 68 12 15 12 20
-5 40 l-19 22 23 -19 c16 -14 26 -16 33 -9 12 12 -34 53 -60 53 -14 0 -14 2
-1 10 13 9 13 10 0 10 -13 0 -13 2 -1 9 10 7 23 1 43 -21 15 -17 28 -26 28
-22 0 5 4 3 9 -5 5 -7 14 -10 21 -6 8 5 3 16 -16 36 -15 16 -24 29 -20 29 5 0
2 8 -5 18 -13 15 -12 16 3 3 10 -7 16 -17 13 -21 -2 -4 4 -15 15 -25 20 -18
20 -17 20 30 0 60 8 56 11 -6z m-788 17 c9 -22 -5 -27 -20 -8 -8 9 -11 11 -7
3 5 -9 3 -12 -5 -7 -6 4 -9 12 -6 17 9 14 32 11 38 -5z m117 -6 c0 -11 -4 -20
-9 -20 -5 0 -7 -9 -4 -20 4 -15 0 -20 -16 -20 -22 0 -28 14 -10 25 6 4 8 14 5
22 -8 19 1 33 20 33 8 0 14 -9 14 -20z m50 7 c0 -8 -3 -17 -6 -20 -10 -10 -13
-67 -4 -67 12 0 20 28 14 45 -9 22 5 38 22 24 10 -8 11 -15 4 -24 -8 -9 -8
-15 0 -20 5 -3 10 1 10 9 0 21 19 30 26 13 7 -19 -36 -69 -53 -63 -7 3 -15 1
-18 -4 -11 -17 -36 -11 -34 8 1 9 -1 25 -6 35 -4 10 -2 23 4 31 6 7 8 16 5 19
-9 9 5 27 22 27 8 0 14 -6 14 -13z m195 -9 c0 -22 12 -32 37 -33 12 0 23 -6
26 -14 3 -10 -2 -13 -22 -9 -15 3 -29 2 -32 -3 -9 -16 -36 3 -31 22 6 20 -9
27 -15 7 -3 -7 -12 -9 -22 -5 -15 6 -16 10 -6 22 7 8 16 12 21 9 5 -3 9 2 9
11 0 10 7 15 18 13 9 -2 17 -11 17 -20z m53 5 c-5 -26 -38 -29 -38 -4 0 15 6
21 21 21 14 0 19 -5 17 -17z m-363 -32 c7 -12 -12 -24 -25 -16 -11 7 -4 25 10
25 5 0 11 -4 15 -9z m235 -17 c0 -8 -5 -14 -11 -14 -6 0 -9 -6 -6 -14 7 -17
-18 -40 -33 -31 -16 10 -12 33 8 44 9 6 13 11 8 11 -5 0 -3 7 4 15 14 17 30
11 30 -11z m181 11 c-1 -15 -24 -12 -29 3 -3 9 2 13 12 10 10 -1 17 -7 17 -13z
m180 -22 c17 -20 18 -23 3 -10 -11 9 -26 17 -32 17 -6 0 -14 5 -17 10 -14 22
23 8 46 -17z m314 7 c10 -11 16 -20 13 -20 -3 0 -13 9 -23 20 -10 11 -16 20
-13 20 3 0 13 -9 23 -20z m-401 -14 c-3 -9 -10 -13 -16 -10 -5 3 -4 12 3 20
15 18 22 13 13 -10z m-238 -1 c4 -9 13 -14 22 -13 9 2 18 -5 20 -14 4 -19 -22
-25 -33 -8 -3 5 -12 7 -19 4 -17 -7 -30 12 -22 31 7 19 25 19 32 0z m-678 -2
c-10 -2 -26 -2 -35 0 -10 3 -2 5 17 5 19 0 27 -2 18 -5z m72 -3 c0 -5 -5 -10
-11 -10 -5 0 -7 5 -4 10 3 6 8 10 11 10 2 0 4 -4 4 -10z m740 -10 c0 -5 -5
-10 -11 -10 -5 0 -7 5 -4 10 3 6 8 10 11 10 2 0 4 -4 4 -10z m-706 -21 c-8
-14 -24 -10 -24 6 0 9 6 12 15 9 8 -4 12 -10 9 -15z m356 0 c0 -5 -7 -9 -15
-9 -15 0 -20 12 -9 23 8 8 24 -1 24 -14z m310 0 c0 -5 -7 -9 -15 -9 -15 0 -20
12 -9 23 8 8 24 -1 24 -14z m-934 -46 c-14 -20 -26 -43 -26 -50 0 -7 -5 -13
-10 -13 -6 0 -3 15 6 33 25 48 46 78 51 73 3 -2 -7 -22 -21 -43z m744 34 c0
-8 -3 -17 -7 -20 -9 -9 -34 13 -27 24 8 14 34 11 34 -4z m73 6 c9 -9 -13 -34
-24 -27 -14 8 -11 34 4 34 8 0 17 -3 20 -7z m267 -48 c0 -5 -5 -3 -10 5 -5 8
-10 20 -10 25 0 6 5 3 10 -5 5 -8 10 -19 10 -25z m-445 15 c3 -5 -1 -10 -10
-10 -9 0 -13 5 -10 10 3 6 8 10 10 10 2 0 7 -4 10 -10z m53 -1 c-2 -6 -8 -10
-13 -10 -5 0 -11 4 -13 10 -2 6 4 11 13 11 9 0 15 -5 13 -11z m170 0 c-2 -6
-8 -10 -13 -10 -5 0 -11 4 -13 10 -2 6 4 11 13 11 9 0 15 -5 13 -11z m47 1 c3
-5 -1 -10 -9 -10 -9 0 -16 5 -16 10 0 6 4 10 9 10 6 0 13 -4 16 -10z m87 -17
c-3 -16 -7 -22 -10 -15 -4 13 4 42 11 42 2 0 2 -12 -1 -27z m-214 5 c-3 -7
-11 -13 -18 -13 -7 0 -15 6 -17 13 -3 7 4 12 17 12 13 0 20 -5 18 -12z m-581
-14 c-3 -3 -12 -4 -19 -1 -8 3 -5 6 6 6 11 1 17 -2 13 -5z m528 -4 c3 -5 -1
-10 -10 -10 -9 0 -13 5 -10 10 3 6 8 10 10 10 2 0 7 -4 10 -10z m89 -11 c-3
-5 -10 -7 -15 -3 -5 3 -7 10 -3 15 3 5 10 7 15 3 5 -3 7 -10 3 -15z m251 9 c5
4 5 1 1 -6 -4 -7 -3 -19 3 -26 8 -10 4 -12 -19 -8 -17 2 -33 9 -37 15 -4 6 2
8 16 4 22 -5 22 -5 4 15 -18 21 -18 21 3 10 12 -6 25 -8 29 -4z m-957 -355
c15 -27 71 -40 101 -23 12 6 26 22 31 36 12 31 10 265 -3 282 -7 9 -3 12 14
12 l24 0 -5 -154 c-6 -176 -10 -186 -86 -205 -58 -15 -106 -6 -136 26 -22 23
-23 33 -26 178 l-3 154 33 3 33 3 5 -145 c3 -90 10 -153 18 -167z m-174 289
c-1 -7 -2 -23 -2 -37 -2 -32 -18 -32 -26 0 -13 50 -96 53 -111 5 -13 -42 3
-68 58 -94 59 -28 87 -66 87 -118 0 -60 -51 -105 -115 -103 -99 4 -95 2 -95
41 l0 36 29 -31 c16 -17 38 -31 50 -31 42 0 76 61 53 96 -4 6 -26 21 -48 32
-23 12 -54 36 -69 54 -23 27 -26 39 -22 77 4 33 12 52 33 69 24 21 34 23 103
20 50 -3 76 -8 75 -16z m483 10 c7 -4 39 -65 72 -135 33 -70 63 -127 65 -127
13 0 116 235 111 251 -5 15 -1 19 19 19 51 0 56 -18 56 -185 0 -84 3 -160 6
-169 5 -13 -2 -16 -37 -16 l-44 0 3 142 2 143 -53 -110 c-29 -60 -59 -125 -66
-142 -7 -18 -17 -33 -21 -33 -4 0 -23 33 -41 72 -19 40 -49 102 -66 138 l-33
65 3 -138 c2 -116 0 -137 -13 -137 -13 0 -15 23 -12 161 2 107 0 165 -7 172
-8 8 -5 15 11 24 27 15 29 15 45 5z m470 0 c6 -4 39 -65 73 -137 l61 -130 55
110 c31 61 57 121 58 135 3 27 40 40 59 21 7 -7 11 -80 12 -196 1 -127 -2
-182 -9 -175 -5 5 -21 10 -35 10 l-26 0 3 142 2 143 -19 -35 c-11 -19 -41 -83
-67 -143 -26 -59 -52 -106 -57 -104 -6 2 -37 62 -71 134 l-61 132 -3 -116 c-2
-68 2 -120 8 -128 12 -14 3 -25 -19 -25 -14 0 -16 19 -13 161 2 113 0 164 -8
175 -10 11 -8 16 11 23 30 12 32 12 46 3z m100 -14 c-3 -8 -6 -5 -6 6 -1 11 2
17 5 13 3 -3 4 -12 1 -19z m33 -48 c0 -5 -2 -10 -4 -10 -3 0 -8 5 -11 10 -3 6
-1 10 4 10 6 0 11 -4 11 -10z m246 -137 c-7 -7 -26 7 -26 19 0 6 6 6 15 -2 9
-7 13 -15 11 -17z m-1056 -39 c0 -2 -9 0 -20 6 -11 6 -20 13 -20 16 0 2 9 0
20 -6 11 -6 20 -13 20 -16z m1307 -36 c-3 -7 -5 -2 -5 12 0 14 2 19 5 13 2 -7
2 -19 0 -25z m20 -5 c-3 -10 -5 -4 -5 12 0 17 2 24 5 18 2 -7 2 -21 0 -30z
m-296 0 c13 -16 12 -17 -3 -4 -10 7 -18 15 -18 17 0 8 8 3 21 -13z m38 -73 c1
-13 0 -13 -9 0 -6 10 -10 11 -10 3 0 -7 -4 -13 -9 -13 -5 0 -4 14 2 30 10 26
13 28 19 13 3 -10 7 -25 7 -33z m368 -57 c-3 -10 -5 -4 -5 12 0 17 2 24 5 18
2 -7 2 -21 0 -30z m-1770 -5 c-3 -8 -6 -5 -6 6 -1 11 2 17 5 13 3 -3 4 -12 1
-19z m-119 0 c7 -7 12 -42 12 -85 l0 -73 76 0 75 0 -2 83 c-2 88 6 101 50 77
20 -10 21 -19 21 -186 l0 -175 -37 3 -36 3 2 85 2 85 -76 3 -77 4 3 -91 4 -91
-37 0 -38 0 0 185 0 185 23 0 c13 0 28 -5 35 -12z m518 -13 c9 -37 1 -39 -45
-16 -22 12 -51 21 -64 21 -24 0 -24 -2 -23 -75 1 -41 5 -77 8 -81 4 -3 21 -1
39 5 45 16 49 14 49 -18 0 -29 0 -29 -40 -19 -23 6 -44 8 -47 4 -4 -3 -7 -38
-7 -76 -1 -81 5 -85 83 -49 49 22 64 16 50 -19 -8 -22 -13 -23 -104 -20 l-96
3 0 178 c0 97 1 179 1 182 0 3 43 5 95 5 93 0 95 0 101 -25z m562 13 c8 -8 12
-62 12 -175 0 -162 0 -163 23 -163 12 0 42 9 66 20 24 11 46 19 48 16 2 -2 1
-15 -3 -30 -6 -26 -7 -26 -105 -26 l-99 0 0 185 0 185 23 0 c13 0 28 -5 35
-12z m292 -1 c12 -10 15 -43 15 -184 l0 -171 -42 -4 c-34 -2 -40 0 -33 12 4 8
7 93 6 188 -1 166 0 172 19 172 11 0 27 -6 35 -13z m709 -14 c45 -34 53 -97
14 -110 -17 -6 -43 26 -43 54 0 33 -26 63 -55 63 -79 0 -123 -143 -75 -247 21
-48 72 -85 110 -81 24 3 25 6 24 71 l-1 68 31 -3 31 -3 3 -77 3 -78 -79 0
c-101 0 -133 12 -174 63 -30 38 -33 48 -33 109 0 36 -3 64 -7 62 -13 -8 42 83
59 98 47 41 144 46 192 11z m-1237 -124 c54 -121 85 -190 96 -211 2 -5 -17 -8
-42 -8 -36 0 -46 4 -46 16 0 9 -12 43 -27 76 l-26 59 -51 -3 c-51 -3 -51 -3
-78 -58 -15 -30 -26 -63 -24 -72 3 -13 -2 -18 -20 -18 l-23 0 18 33 c10 17 47
99 81 180 35 81 68 146 73 144 6 -2 37 -64 69 -138z m430 111 c-12 -11 -25
-20 -29 -20 -9 1 36 40 45 40 3 0 -4 -9 -16 -20z m-990 -5 c0 -5 -5 -10 -11
-11 -8 -2 -7 -1 0 3 8 4 7 8 -2 15 -11 8 -11 9 -1 6 8 -2 14 -8 14 -13z m982
-38 c4 4 4 -1 0 -10 -3 -10 -7 -17 -8 -15 -1 2 -10 14 -21 28 l-20 25 21 -18
c11 -9 24 -14 28 -10z m-29 -65 c-3 -3 -11 0 -18 7 -9 10 -8 11 6 5 10 -3 15
-9 12 -12z m-48 -44 c-3 -7 -5 -2 -5 12 0 14 2 19 5 13 2 -7 2 -19 0 -25z
m268 -1 c-8 -13 -12 -27 -8 -32 5 -4 2 -5 -4 -1 -12 7 -18 -5 -14 -27 1 -5 -3
-6 -9 -2 -15 10 -12 21 16 54 31 37 41 41 19 8z m11 -74 c-10 -11 -19 -7 -22
10 -2 15 0 16 12 6 8 -6 12 -14 10 -16z m352 -47 c-8 -6 -18 -29 -21 -51 l-7
-40 25 45 c32 59 32 43 0 -21 -16 -31 -30 -47 -37 -43 -7 5 -9 2 -5 -8 3 -9
-1 -24 -9 -35 -13 -17 -14 -17 -7 2 6 18 4 17 -24 -5 -18 -14 -32 -33 -32 -43
-1 -15 -3 -15 -15 -5 -10 10 -11 19 -3 43 8 22 12 25 15 13 5 -25 17 -22 45
12 35 41 54 100 36 111 -10 6 -11 9 -1 9 6 0 11 3 11 8 -1 4 -1 15 0 25 1 15
4 16 23 6 19 -10 20 -13 6 -23z m-380 -81 c-23 -20 -24 -23 -9 -34 14 -10 13
-10 -3 -2 -21 9 -30 62 -10 54 7 -2 15 1 19 6 3 6 11 8 17 5 7 -5 2 -15 -14
-29z m-202 -52 c-3 -4 -6 -1 -6 5 0 7 -5 12 -11 12 -5 0 -8 -4 -5 -9 3 -5 -4
-11 -15 -14 -21 -6 -21 -5 2 19 20 21 24 22 32 8 5 -8 6 -18 3 -21z m348 20
c-5 -5 -12 -12 -16 -18 -4 -6 -8 -2 -8 8 0 9 7 17 17 17 9 0 12 -3 7 -7z
m-1064 -23 c0 -5 -7 -7 -15 -4 -8 4 -12 10 -9 15 6 11 24 2 24 -11z m807 -77
c-3 -10 -5 -4 -5 12 0 17 2 24 5 18 2 -7 2 -21 0 -30z m405 10 c-18 -25 -130
-147 -125 -135 2 3 -5 11 -15 19 -16 12 -15 13 3 6 11 -3 17 -3 13 2 -4 4 6
18 22 32 16 13 32 33 35 44 5 15 10 17 20 9 10 -8 18 -4 35 20 12 16 24 30 26
30 3 0 -4 -12 -14 -27z m-314 -13 c-14 -11 -32 -16 -48 -13 -32 6 -39 13 -12
13 12 0 22 4 22 9 0 10 39 20 53 13 4 -2 -3 -12 -15 -22z m-818 10 c0 -5 -2
-10 -4 -10 -3 0 -8 5 -11 10 -3 6 -1 10 4 10 6 0 11 -4 11 -10z m557 -12 c-2
-7 0 -22 5 -33 8 -16 5 -15 -14 5 -22 21 -23 26 -9 32 23 9 23 9 18 -4z m283
-32 c0 -17 -5 -23 -20 -22 -11 0 -20 4 -20 9 0 4 0 12 0 18 0 6 7 9 15 5 8 -3
15 -1 15 4 0 6 2 10 5 10 3 0 5 -11 5 -24z m-1109 -13 c13 -16 12 -17 -3 -4
-10 7 -18 15 -18 17 0 8 8 3 21 -13z m993 -8 c-4 -8 -10 -12 -15 -9 -5 3 -9 0
-9 -7 0 -7 -3 -10 -6 -7 -8 8 18 48 28 42 4 -3 5 -11 2 -19z m54 -19 c-7 -8
-15 -12 -17 -11 -5 6 10 25 20 25 5 0 4 -6 -3 -14z m-30 -13 c-2 -9 -11 -17
-20 -19 -11 -1 -15 3 -11 12 3 8 9 11 14 8 5 -3 9 0 9 5 0 6 3 11 6 11 3 0 4
-7 2 -17z m-127 -38 c10 3 21 0 25 -6 4 -8 3 -9 -4 -5 -7 4 -12 3 -12 -3 0 -6
-7 -8 -15 -5 -21 9 -19 -24 3 -44 10 -10 12 -13 5 -8 -9 6 -18 3 -28 -10 -13
-17 -13 -16 -9 13 3 17 0 34 -6 38 -5 3 -10 11 -10 16 0 6 5 7 11 3 8 -4 9 4
5 27 -5 34 -5 34 6 6 8 -19 17 -25 29 -22z m347 12 c13 -4 12 -5 -3 -6 -12 0
-27 -7 -34 -13 -11 -10 -13 -10 -7 0 5 7 1 12 -11 13 -14 0 -14 2 5 9 12 5 23
15 23 22 1 7 3 5 6 -4 2 -9 12 -19 21 -21z m-280 4 c10 -6 9 -10 -7 -14 -21
-5 -36 5 -24 17 8 8 15 7 31 -3z m67 -28 c-2 -10 -4 -25 -5 -33 -1 -8 -5 -4
-9 10 -8 27 -5 40 9 40 4 0 7 -8 5 -17z m-537 -2 c11 -7 11 -9 -1 -14 -9 -3
-18 1 -21 9 -6 16 2 18 22 5z m772 6 c0 -2 -10 -12 -22 -23 l-23 -19 19 23
c18 21 26 27 26 19z m-552 -52 c-3 -3 -9 2 -12 12 -6 14 -5 15 5 6 7 -7 10
-15 7 -18z m502 11 c0 -2 -8 -10 -17 -17 -16 -13 -17 -12 -4 4 13 16 21 21 21
13z m-210 -60 c0 -11 -19 -15 -25 -6 -3 5 1 10 9 10 9 0 16 -2 16 -4z m-307
-113 c-7 -2 -19 -2 -25 0 -7 3 -2 5 12 5 14 0 19 -2 13 -5z"/>
<path d="M1410 2100 c0 -5 5 -10 10 -10 6 0 10 5 10 10 0 6 -4 10 -10 10 -5 0
-10 -4 -10 -10z"/>
<path d="M1990 1960 c0 -4 8 -14 17 -21 15 -12 16 -12 10 6 -8 22 -10 25 41
-40 17 -22 25 -26 31 -16 5 8 8 2 7 -16 -1 -20 -6 -30 -18 -30 -10 -1 -18 2
-18 8 0 5 5 9 11 9 5 0 7 5 4 10 -4 6 -10 8 -15 5 -4 -3 -14 3 -21 13 -13 15
-12 16 4 3 21 -16 23 1 2 19 -8 7 -15 9 -15 4 0 -4 -14 5 -30 21 -23 22 -33
26 -42 17 -9 -9 -9 -12 3 -12 12 0 12 -2 -1 -10 -12 -8 -10 -10 9 -10 13 0 21
-3 18 -6 -4 -4 3 -15 15 -25 12 -11 16 -19 8 -19 -7 0 -21 10 -31 22 -11 12
-19 16 -19 8 0 -7 -9 -3 -20 10 -11 13 -23 20 -27 17 -3 -4 8 -21 26 -38 18
-17 33 -39 34 -50 1 -17 8 -19 67 -18 108 3 116 1 128 -26 11 -24 11 -25 -28
-23 -21 1 -37 5 -35 9 6 9 -20 19 -50 19 -22 0 -23 -3 -21 -75 0 -41 4 -76 9
-76 24 -4 64 12 64 25 0 9 -4 16 -9 16 -5 0 -7 4 -4 9 4 5 0 11 -6 14 -10 3
-10 8 1 18 8 8 11 9 7 2 -3 -6 -1 -13 4 -15 6 -2 12 -13 13 -26 0 -12 4 -22 8
-22 4 0 12 -12 17 -27 10 -27 11 -28 17 -6 4 13 11 21 15 18 5 -3 6 4 3 16 -4
13 -8 17 -13 9 -5 -8 -9 -6 -14 6 -3 9 -4 19 -1 22 3 3 5 -1 5 -9 0 -12 2 -12
9 0 7 11 10 9 16 -8 9 -28 19 -27 33 4 16 36 15 52 -5 65 -16 9 -15 10 5 5 19
-6 22 -3 22 22 -1 44 -33 105 -76 142 l-39 35 -6 -30 -6 -29 -4 30 c-4 29 -6
30 -56 31 -29 1 -53 -2 -53 -6z m37 -122 c-3 -8 -6 -5 -6 6 -1 11 2 17 5 13 3
-3 4 -12 1 -19z m63 -74 c0 -2 -7 -4 -15 -4 -8 0 -15 4 -15 10 0 5 7 7 15 4 8
-4 15 -8 15 -10z m70 -39 c0 -5 -5 -3 -10 5 -8 12 -10 12 -10 1 0 -8 -2 -12
-5 -9 -3 3 -2 13 1 22 5 14 9 15 15 4 5 -7 9 -17 9 -23z"/>
<path d="M2342 1788 c-7 -7 -12 -40 -12 -78 0 -38 5 -71 12 -78 19 -19 66 -15
78 7 15 30 12 113 -6 139 -17 24 -53 29 -72 10z"/>
<path d="M2181 1374 c0 -11 3 -14 6 -6 3 7 2 16 -1 19 -3 4 -6 -2 -5 -13z"/>
<path d="M2115 1340 c2 -16 0 -30 -5 -30 -6 0 -10 -6 -10 -14 0 -16 49 -51 58
-41 4 3 0 10 -8 15 -20 12 -21 50 -1 42 14 -5 14 -3 3 11 -8 9 -11 20 -8 26 3
5 -1 12 -10 15 -23 9 -23 9 -19 -24z"/>
<path d="M1924 946 c-8 -22 3 -33 18 -18 9 9 9 15 0 24 -9 9 -13 7 -18 -6z"/>
<path d="M1153 1255 l-21 -45 44 0 44 0 -15 38 c-24 55 -29 56 -52 7z"/>
<path d="M2069 813 l-24 -28 28 24 c25 23 32 31 24 31 -2 0 -14 -12 -28 -27z"/>
</g>
</svg>
